<svg width="300" height="110" viewBox="0 0 300 110" fill="none" xmlns="http://www.w3.org/2000/svg">
<path d="M0 2.9299C0 3.76656 0.117983 4.59903 0.350463 5.40274L0.954967 7.49256C1.1017 7.99982 1.41013 8.44525 1.83333 8.76106C2.17438 9.07494 2.61736 9.25499 3.08067 9.26807L6.66667 9.36932C11.2667 9.45514 13.1333 9.61249 15 10.0416C20.8 11.3862 24.6667 13.632 26.0667 16.4499C27.7 19.6255 27.8333 20.541 27.8333 26.8921C27.8 33.6008 27.7667 33.7295 25.3 37.6203C24.7333 38.5215 24.1333 39.4941 24 39.7659C23.8667 40.0377 23.5 40.6814 23.2 41.1964C22.9 41.7113 22.6667 42.3407 22.6667 42.6125C22.6667 43.1703 23.3333 44.0572 23.7333 44.0572C23.8667 44.0572 24 44.1573 24 44.2718C24 44.3862 24.8 44.8297 25.8 45.2588C27.3667 45.9311 27.8333 46.0455 29.3333 46.1313C30.8667 46.2172 31.2 46.1886 32.8333 45.7594C33.8333 45.5019 34.6667 45.2016 34.6667 45.1157C34.6667 45.0156 34.8667 44.9155 35.1333 44.8726C35.4 44.8297 35.9333 44.5007 36.3333 44.1573C37.3667 43.2562 37.1667 41.4967 35.7667 39.6944C35.2333 38.9792 34.6 38.0494 34.3667 37.6203C34.1333 37.1912 33.7667 36.4473 33.5 35.9753C31.9333 32.9857 31.8333 32.485 31.8667 26.606C31.9 21.6138 31.9667 20.7555 32.6 19.1677C33.4 17.0936 33.7 16.6645 34.9 16.2068C36.3333 15.6203 37.1333 15.5631 40.3667 15.8062C44.1333 16.078 45.2667 15.9207 47 14.8765C47.6333 14.4902 48.2333 14.1612 48.3333 14.1612C48.4333 14.1612 49 13.961 49.6333 13.7321C50.3333 13.4603 51.1667 13.303 51.8 13.2887C54.8 13.2458 57.5667 13.3459 58.2333 13.5319C58.6333 13.6463 59.1667 13.7321 59.4 13.7321C59.6333 13.7321 60.6 14.0754 61.5333 14.5046C63.3667 15.3199 64.1667 16.1925 64.9667 18.0949C65.1333 18.567 65.5333 19.4967 65.8 20.1691C67.4 24.0312 67.5333 24.8609 67.9667 33.329C69.1333 55.5006 69.2333 78.9311 68.2 83.1795C67.2333 87.0416 67.1333 87.2991 65.7667 88.9012C65.5 89.2159 65.1333 89.5878 64.9333 89.7451C63.9667 90.5319 63.5 92.8492 64.1 93.8362C65.3333 95.8244 68.1333 96.7828 71.8667 96.4967C73.2667 96.3823 75.9333 95.3095 76.7667 94.5371C78 93.3498 78.1 92.7061 77.2 91.1756C75.8 88.8153 75.6 88.4863 75.1667 87.9714C74.3667 87.013 73.8667 86.0403 73.5667 84.8244C73.2333 83.394 72.8667 61.5228 73.1667 60.7932C73.3333 60.4356 73.9667 60.0637 75.3333 59.4915C76.8667 58.8335 77.5333 58.6619 78.7 58.5904C80.4 58.4902 81.8333 58.6333 83.8333 59.1339C86.9 59.9064 87.1667 60.5787 87.6667 68.117C87.8667 70.8635 88.0667 73.1808 88.1667 73.2523C88.2667 73.3095 88.3667 74.4538 88.3667 75.7698C88.3333 78.13 88.8333 82.5072 89.8667 89.1157C90.1667 90.961 90.4 93.9935 90.4 95.8388C90.4333 99.0858 90.4 99.2432 89.5333 100.559C89.0333 101.303 88.5667 102.075 88.5 102.276C88.4333 102.476 88.2 102.919 87.9667 103.277C87.7667 103.635 87.5667 104.793 87.5333 105.866C87.5 107.54 87.5667 107.869 88.1 108.098C88.4 108.255 88.5667 108.427 88.4667 108.469C88.3333 108.527 88.5 108.598 88.8 108.655C89.1 108.698 89.3333 108.798 89.3333 108.87C89.3333 109.27 92.3667 110 94 110C95.9333 110 97.0667 109.671 99.4 108.427C101.1 107.511 101.533 106.51 100.833 105.194C100.167 103.964 99.5667 103.148 98.6667 102.133C97.8 101.217 97.6333 100.874 96.3667 98.1274C95.5 96.2107 94.6667 93.5358 94.6667 92.6632C94.6667 92.1339 94.5 91.0325 94.3333 90.2315C94 88.8583 93.5667 86.87 92.6333 82.6073C92.0667 79.9753 91.7 77.1573 91.5 74.2393C91.4 72.7802 91.1667 69.9623 91 67.9597C90.5667 63.3394 90.5667 59.4486 91 54.9714C91.1667 53.026 91.4 49.7789 91.4667 47.7763C91.6667 43.7854 92.2 38.0208 92.5 37.1196C92.6 36.8049 92.8333 35.4889 93 34.1873C93.1667 32.8856 93.4333 31.498 93.6333 31.1118C93.8 30.7113 94.1333 29.9103 94.3667 29.3238C94.5667 28.7373 95.0333 28.0221 95.3333 27.7503C98.4333 25.0897 98.6667 24.9324 102.133 23.3589C105.8 21.6853 108.967 21.1274 113.067 21.4707C114.233 21.5566 115.533 21.7139 116 21.814C116.467 21.9142 117.9 22.2003 119.167 22.4577C120.467 22.7295 121.567 22.987 121.667 23.0299C121.767 23.0871 122.3 23.173 122.833 23.2302C125.033 23.459 126.2 23.4733 127.4 23.2588C128.633 23.0299 131.233 22.0286 132.567 21.2419C133 20.9987 133.7 20.5839 134.167 20.3121C135.7 19.4109 139.2 19.0247 141 19.554C142.433 19.9688 143.967 20.7841 144.533 21.4135C145 21.9285 145.033 22.6294 144.9 27.1352C144.7 32.5423 144.333 34.3446 143 36.3329C142.6 36.9194 142.133 37.5917 142 37.8348C141.833 38.0637 141.4 38.6216 141 39.0507C140.6 39.4798 140.033 40.2952 139.733 40.8531C139 42.2692 139.533 43.3277 141.567 44.515C143.6 45.6879 145.4 45.9883 148.4 45.6307C149.8 45.459 151.567 44.8726 152.033 44.4291C152.233 44.2575 152.733 43.8427 153.167 43.485C154.3 42.5982 154.3 42.5553 152.467 39.6229C152.2 39.1938 151.767 38.4213 151.5 37.9064C151.267 37.3914 150.9 36.7763 150.7 36.5475C149.367 34.8453 148.667 32.1131 148.6 28.4655C148.533 23.0013 149.833 17.5943 151.833 14.948C152.3 14.3472 153.3 13.4317 153.633 13.303C153.733 13.2601 154.133 13.0169 154.467 12.7451C155.467 11.9727 158.333 10.8856 159.833 10.7139C161.4 10.528 162.867 10.6853 165.633 11.329C168.167 11.9012 170.167 12.0728 171.467 11.8583C172.033 11.7581 173.367 11.3433 174.4 10.9428C176.667 10.0702 178.733 9.72691 181.7 9.72691C185.033 9.72691 187.767 10.1847 189.867 11.0858C192.967 12.4161 192.833 12.0299 192.933 18.4955C193 22.2146 192.9 24.5462 192.667 25.2185C191.967 27.1066 191.767 27.5358 191.2 28.1795C190.9 28.5371 190.067 29.71 189.333 30.7828C187.8 33.0143 187.533 34.6021 188.567 35.4889C189.6 36.4044 191.433 37.3628 192.533 37.5631C194.567 37.935 197.333 37.7633 198.667 37.1912C201.7 35.9038 202.733 34.1443 201.467 32.4135C200.167 30.6255 199.767 29.9389 199.467 28.8947C199.4 28.6229 199.1 28.0364 198.867 27.6073C197.3 24.9753 196.667 21.9571 196.667 17.1079C196.667 14.104 197.1 12.4447 198.067 11.8153C199.1 11.1287 200.933 10.6424 203 10.485C205.667 10.2991 207.033 10.4707 209.6 11.3433C212.733 12.4161 214.1 12.6307 216.9 12.5592C218.967 12.5019 224.167 11.7867 225.133 11.4148C225.333 11.3576 226.233 11.3004 227.167 11.3004C229.3 11.3004 230.967 11.7724 232.933 12.9025C233.633 13.3173 234.733 13.8752 235.367 14.1469L236.5 14.619L239.4 14.5475C241.867 14.4759 242.6 14.4044 244.1 14.0325C246.067 13.5605 247.033 13.1886 248.433 12.4018C249.433 11.8297 251.767 11.3004 253.267 11.3004C255.7 11.3004 259.333 12.2445 259.333 12.8739C259.333 13.0026 259.467 13.1599 259.633 13.2315C260.5 13.6463 261.7 21.5423 261.667 26.5345C261.633 28.3082 260.9 32.342 260.533 32.5852C260.333 32.7282 259.933 33.5006 259.333 34.8309C259.2 35.1456 258.767 35.9181 258.333 36.5475C257.333 38.078 256.667 39.4655 256.667 39.9662C256.667 40.4096 257.333 41.4681 257.733 41.697C257.9 41.7685 258.533 42.1404 259.167 42.4981C259.833 42.8843 260.767 43.2276 261.367 43.3277C262.9 43.5566 265.233 43.528 266.567 43.2562C268.067 42.9415 270.033 41.6684 270.8 40.5098C271.367 39.6515 271.333 39.5943 270.7 38.6502C270 37.6489 268.933 36.0468 268.167 34.8309C265.767 31.1404 265.167 28.6086 265.167 22.3147C265.167 15.749 265.6 13.8752 267.533 12.2731C268.2 11.7152 270.3 10.7282 271.167 10.5709C271.533 10.4994 272.067 10.3849 272.333 10.3134C274.867 9.64109 278.6 9.44083 289.533 9.39792C299.133 9.36932 299.033 9.36931 299.7 8.41093C299.867 8.15345 300 6.15085 300 3.97659V0H150H0V2.9299Z" fill="#131313"/>
</svg>
