<svg width="48.000000" height="48.000000" viewBox="0 0 48 48" fill="none" xmlns="http://www.w3.org/2000/svg" xmlns:xlink="http://www.w3.org/1999/xlink">
	<desc>
			Created with Pixso.
	</desc>
	<defs>
		<filter id="filter_234_215_dd" x="4.978882" y="4.000000" width="45.042236" height="47.000000" filterUnits="userSpaceOnUse" color-interpolation-filters="sRGB">
			<feFlood flood-opacity="0" result="BackgroundImageFix"/>
			<feColorMatrix in="SourceAlpha" type="matrix" values="0 0 0 0 0 0 0 0 0 0 0 0 0 0 0 0 0 0 127 0" result="hardAlpha"/>
			<feOffset dx="4" dy="4"/>
			<feGaussianBlur stdDeviation="1"/>
			<feComposite in2="hardAlpha" operator="out" k2="-1" k3="1"/>
			<feColorMatrix type="matrix" values="0 0 0 0 0 0 0 0 0 0 0 0 0 0 0 0 0 0 0.71 0"/>
			<feBlend mode="normal" in2="BackgroundImageFix" result="effect_dropShadow_1"/>
			<feBlend mode="normal" in="SourceGraphic" in2="effect_dropShadow_1" result="shape"/>
		</filter>
		<clipPath id="clip234_217">
			<rect id="Успех" width="48.000000" height="48.000000" fill="white" fill-opacity="0"/>
		</clipPath>
		<linearGradient x1="43.021069" y1="3.999983" x2="4.978883" y2="35.515160" id="paint_linear_234_215_0" gradientUnits="userSpaceOnUse">
			<stop stop-color="#FAFAFA"/>
			<stop offset="0.267971" stop-color="#8C8C8C"/>
			<stop offset="0.498546" stop-color="#FAFAFA"/>
			<stop offset="0.768427" stop-color="#8C8C8C"/>
			<stop offset="1.000000" stop-color="#FAFAFA"/>
		</linearGradient>
	</defs>
	<g clip-path="url(#clip234_217)">
		<g filter="url(#filter_234_215_dd)" style="mix-blend-mode:normal">
			<path id="path" d="M24 4L29.25 7.83L35.75 7.81L37.75 14L43.02 17.81L41 24L43.02 30.18L37.75 33.99L35.75 40.18L29.25 40.16L24 44L18.74 40.16L12.24 40.18L10.24 33.99L4.97 30.18L7 24L4.97 17.81L10.24 14L12.24 7.81L18.74 7.83L24 4Z" fill="url(#paint_linear_234_215_0)" fill-opacity="1.000000" fill-rule="nonzero"/>
		</g>
		<path id="path" d="M15.96 25.06L15.93 25.06C15.34 24.46 15.34 23.53 15.93 22.93C16.53 22.34 17.46 22.34 18.06 22.93L18.06 22.96L15.96 25.06ZM30.93 17.96L30.93 17.93C31.53 17.34 32.46 17.34 33.06 17.93C33.65 18.53 33.65 19.46 33.06 20.06L33.03 20.06L30.93 17.96Z" fill="#000000" fill-opacity="0" fill-rule="nonzero"/>
		<path id="path" d="M17 24L22 29L32 19" stroke="#FFFFFF" stroke-opacity="1.000000" stroke-width="3.000000" stroke-linejoin="round" stroke-linecap="round"/>
	</g>
</svg>
