<svg width="530" height="970" viewBox="0 0 530 970" fill="none" xmlns="http://www.w3.org/2000/svg">
<path d="M419.541 6.9223C419.541 12.3917 414.367 21.9633 408.547 28.1164C394.967 40.4227 357.46 52.0452 363.28 41.79C365.867 38.3716 351.64 37.0043 327.713 38.3716C299.26 40.4227 289.56 39.0553 292.793 33.5859C295.38 29.4838 293.44 26.0654 287.62 26.0654C282.447 26.0654 275.98 28.8001 274.04 32.9022C272.1 36.3206 262.4 39.739 252.7 39.739C239.12 39.739 237.18 41.1063 244.94 46.5758C253.346 52.0452 253.346 53.4126 244.293 53.4126C226.833 53.4126 214.546 75.2904 203.553 128.617C180.919 237.323 134.359 284.497 31.5387 302.956C6.9652 307.742 -2.73485 317.997 3.73185 333.722C12.7852 356.283 13.4319 396.62 5.02519 402.774C-1.44151 406.876 -1.44151 408.927 3.73185 408.927C8.90521 408.927 10.8452 418.498 8.90521 437.641C5.67186 471.142 21.1919 502.591 31.5387 484.132C34.772 478.662 39.2987 476.611 42.532 479.346C45.1187 482.764 40.592 490.968 31.5387 498.489C17.9586 509.428 16.6652 512.162 25.072 518.999C32.832 524.469 31.5387 525.152 20.5453 521.734C8.90521 518.316 6.31853 519.683 9.55188 527.887C15.3719 542.928 30.2453 546.347 37.3587 533.357C40.592 527.203 45.1187 523.785 47.7054 526.52C50.2921 528.571 46.4121 536.775 39.9454 543.612C11.4919 573.694 -7.90821 615.398 17.9586 590.786C34.1253 575.745 47.0587 581.898 38.0054 600.357C33.4787 608.561 33.4787 614.715 38.0054 617.449C41.2387 619.5 50.2921 607.194 58.0521 590.102C72.9255 556.602 83.2722 550.449 83.2722 574.377C83.2722 587.367 84.5656 588.051 90.3856 579.847C95.559 571.643 96.2056 573.01 94.9123 586.684C93.6189 596.255 89.7389 603.092 85.8589 602.408C82.6256 601.725 79.3922 612.664 78.7455 626.337C78.0989 649.582 78.7455 650.266 84.5656 634.541C88.4456 624.97 93.6189 611.98 96.8523 605.827C100.086 598.99 102.672 586.684 102.672 578.48C102.672 566.857 104.612 565.49 108.492 572.326C113.019 579.847 114.312 579.847 117.546 572.326C120.132 565.49 121.426 565.49 121.426 570.959C122.072 575.745 124.659 579.847 127.892 579.847C131.772 579.847 131.772 571.643 127.892 557.969C124.659 545.663 122.072 527.887 122.072 518.316C122.072 504.642 123.366 503.275 128.539 511.479C131.772 516.948 135.006 531.989 135.006 544.979C135.006 564.806 136.299 566.857 144.706 559.336C153.113 552.5 154.406 553.183 154.406 564.806C154.406 573.01 156.993 580.531 160.873 583.265C164.106 585.316 164.753 592.153 162.813 598.306C160.226 605.827 161.519 607.878 166.046 604.459C171.219 601.041 172.513 581.214 170.573 543.612C168.633 501.224 169.279 490.968 174.453 499.856C178.333 507.377 180.273 520.367 178.333 529.254C177.039 538.142 178.333 545.663 180.919 545.663C184.153 545.663 186.739 541.561 187.386 536.775C187.386 532.673 189.973 535.408 193.853 544.295C197.086 553.183 202.259 558.653 206.139 555.918C209.373 553.867 210.666 555.918 208.726 562.071C206.139 569.592 208.726 570.959 218.426 568.224C232.006 564.806 237.826 575.745 225.54 581.898C221.66 583.949 222.306 584.633 226.833 583.949C231.36 583.265 235.886 573.694 237.18 564.122C238.473 553.867 241.706 547.03 244.94 549.081C247.526 551.132 248.82 545.663 246.233 537.459C243.646 526.52 244.94 524.469 252.053 528.571C257.226 531.989 259.166 531.989 256.58 529.254C254.64 526.52 255.286 514.897 257.873 503.958C263.046 486.183 261.753 482.764 247.526 477.295C227.48 469.091 228.126 466.356 248.82 467.04C266.926 468.407 280.507 485.499 274.686 501.224C273.393 506.009 275.98 514.214 280.507 518.316C285.68 523.101 288.267 529.938 285.68 534.04C283.74 538.142 285.033 538.826 288.913 536.091C293.44 533.357 296.673 535.408 297.32 540.193C297.32 544.979 300.553 542.244 304.433 533.357C308.313 525.152 314.133 518.316 317.367 518.316C320.6 518.316 321.247 522.418 318.66 526.52C314.78 533.357 315.427 533.357 323.833 527.203C329.007 522.418 334.827 520.367 337.413 522.418C339.353 524.469 338.06 514.214 334.827 499.856C331.593 485.499 329.007 469.774 329.007 464.988C329.007 450.631 339.353 456.101 347.114 473.876C355.52 493.019 378.154 490.968 371.04 471.142C363.927 453.366 363.927 416.447 370.394 417.815C374.274 418.498 378.154 413.712 379.447 406.192C380.74 398.671 379.447 395.253 374.92 397.988C371.04 400.722 367.807 397.988 367.807 392.518C367.807 378.845 380.094 378.161 384.62 391.835C387.207 397.304 391.087 400.039 394.32 397.988C397.554 395.937 398.2 398.671 396.26 404.141C394.32 409.61 396.26 416.447 400.787 419.866C405.96 423.284 407.254 421.917 403.374 415.763C400.14 410.294 400.787 408.243 404.667 410.978C408.547 413.712 411.78 428.07 411.78 443.794C412.427 458.835 413.721 480.029 415.014 489.601C416.307 499.856 416.307 503.958 415.014 499.173C413.074 495.07 409.194 490.968 405.96 490.968C402.727 490.968 400.14 479.346 400.14 464.988C400.14 451.315 395.614 433.539 390.44 426.702C380.74 413.029 381.387 411.661 371.687 445.845C369.747 451.315 372.334 459.519 377.507 463.621C392.38 476.611 396.26 538.826 384.62 569.592C378.8 583.949 375.567 596.939 376.86 598.306C378.154 600.357 381.387 594.888 383.974 587.367C385.914 579.163 391.087 573.01 394.967 573.01C404.667 573.01 395.614 614.031 382.68 629.072C376.86 635.909 374.274 641.378 376.86 641.378C380.74 641.378 340 724.787 327.713 741.879C324.48 746.665 323.187 753.502 325.773 757.604C327.713 761.022 326.42 764.441 322.54 764.441C318.66 764.441 316.72 767.175 318.66 769.91C319.953 772.645 305.727 789.053 286.973 805.462C248.82 838.962 244.94 849.217 278.567 827.339C312.193 804.778 344.527 767.175 339.353 754.185C336.767 746.665 338.06 744.614 343.233 748.032C347.76 751.451 349.054 749.4 347.114 742.563C344.527 737.093 345.82 728.206 349.054 722.736C353.58 715.216 354.874 715.899 354.874 726.838C354.874 738.461 356.167 738.461 361.34 730.257C367.16 721.369 367.807 721.369 367.807 730.257C367.807 736.41 365.22 743.93 361.34 748.032C358.107 751.451 354.227 763.757 352.934 775.38C351.64 786.318 348.407 799.992 345.173 805.462C341.94 810.931 338.707 829.39 337.413 846.482C336.767 863.574 334.18 896.391 331.593 920.32C325.127 984.586 337.413 987.321 347.76 923.738C352.287 894.34 358.754 860.156 361.987 847.166C364.574 834.176 365.867 821.186 363.927 817.768C361.987 814.349 361.987 803.411 364.574 793.155L369.747 774.696L374.92 791.788C380.094 807.513 380.094 807.513 378.154 788.37C376.214 774.012 382.034 754.185 397.554 723.42C422.774 672.144 433.121 644.797 437.001 620.868C438.294 611.296 441.527 603.092 444.114 602.408C446.701 601.041 448.641 585.316 447.994 566.173C447.347 528.571 449.287 524.469 458.341 547.03C463.514 562.071 464.161 561.387 465.454 542.244L466.101 521.734L471.921 542.244C476.447 562.071 477.094 561.387 476.447 535.408C475.801 489.601 477.741 476.611 484.208 480.713C488.088 482.764 490.674 510.111 490.674 540.877C490.674 579.847 492.614 593.52 497.141 586.684C501.668 578.48 503.608 581.214 503.608 596.939L504.254 617.449L513.954 594.204C519.128 581.214 522.361 566.857 520.421 562.071C519.128 557.969 520.421 551.132 524.301 547.03C528.181 542.928 528.181 538.826 523.654 536.091C519.774 533.357 516.541 527.203 516.541 523.101C516.541 518.316 519.128 518.999 523.654 525.152C528.828 532.673 529.474 530.622 525.594 514.897C523.008 503.275 521.714 486.183 522.361 475.244C523.008 463.621 519.774 456.784 513.954 456.784C503.608 456.784 496.494 431.488 500.374 408.927C503.608 389.784 492.614 349.446 478.387 331.671C473.214 325.518 470.627 317.997 473.214 315.946C477.741 311.16 507.488 341.926 504.901 349.446C504.254 352.181 506.841 353.549 510.721 352.865C514.601 351.497 521.714 361.753 525.594 374.059C535.294 402.09 541.114 395.253 539.821 357.651C538.528 327.569 532.708 315.262 513.954 299.538C502.314 289.966 501.668 289.966 508.781 304.323C518.481 322.783 518.481 326.885 510.074 326.885C506.841 326.885 503.608 321.416 503.608 313.895C503.608 307.058 499.081 297.487 493.261 292.701C488.088 287.232 480.327 277.66 477.094 270.823C471.274 259.884 472.567 257.833 482.268 259.884C488.734 261.252 499.081 268.772 505.548 276.976C511.368 284.497 521.714 290.65 528.181 289.283C561.161 283.813 500.374 224.333 440.881 203.822C426.007 199.037 415.014 192.2 416.954 189.465C418.247 186.047 427.301 186.73 436.354 190.149C464.161 201.771 466.747 197.669 449.287 173.057C439.587 160.067 434.414 149.128 437.001 149.128C439.587 149.128 449.287 158.699 458.341 171.006C467.394 182.628 479.034 199.037 484.854 205.873C490.674 214.078 498.434 217.496 502.961 214.761C508.781 210.659 507.488 205.19 496.494 192.883C479.681 173.74 491.968 169.638 511.368 188.098C521.068 196.986 523.008 197.669 523.008 189.465C523.008 175.108 510.074 162.802 495.201 162.802C488.734 162.802 485.501 159.383 487.441 155.965C489.381 151.863 486.794 149.128 480.974 149.128C475.154 149.128 471.921 146.393 473.861 142.975C476.447 139.556 471.921 138.189 464.807 140.24C450.581 144.342 447.994 135.454 458.987 123.832C463.514 119.046 457.694 109.474 438.294 91.6987C423.421 78.0251 413.721 67.0862 416.954 67.0862C420.834 67.0862 429.241 62.3004 436.354 56.1473C447.994 45.8921 447.994 45.8921 434.414 52.7289C416.954 62.3004 387.207 62.3004 387.207 54.0963C387.207 50.6779 392.38 45.8921 398.847 43.8411C412.427 39.0553 430.534 8.28967 424.067 0.769165C421.481 -1.28186 419.541 0.769165 419.541 6.9223ZM402.727 123.148C398.2 130.669 380.74 129.985 380.74 122.464C380.74 118.362 386.56 116.311 393.027 116.995C400.14 116.995 404.02 120.413 402.727 123.148ZM290.207 210.659C299.26 218.18 302.493 224.333 298.613 224.333C294.087 224.333 284.387 218.18 277.273 210.659C260.46 192.883 268.866 192.883 290.207 210.659ZM371.687 216.812C367.16 224.333 390.44 246.211 396.26 240.057C398.847 236.639 400.14 239.374 398.847 244.843C397.554 250.996 402.08 255.098 411.78 255.782C427.947 256.466 454.461 279.027 440.234 279.027C423.421 279.027 389.147 259.884 376.86 243.476C370.394 234.588 358.754 223.649 351.64 218.863C339.353 211.343 340 211.343 356.814 210.659C367.16 210.659 373.627 213.394 371.687 216.812ZM275.333 234.588C290.207 250.996 283.093 252.364 264.986 237.323C256.58 230.486 253.346 224.333 257.873 224.333C261.753 224.333 269.513 229.119 275.333 234.588ZM232.006 254.415C232.006 257.833 227.48 256.466 222.306 251.68C217.133 246.894 214.546 240.057 216.486 236.639C221.013 229.802 232.006 242.792 232.006 254.415ZM335.473 251.68C323.187 259.884 316.073 259.884 316.073 252.364C316.073 245.527 336.12 238.69 341.94 242.792C343.233 244.16 340.647 248.262 335.473 251.68ZM283.093 268.088C289.56 275.609 288.913 277.66 280.507 276.293C275.333 275.609 266.926 270.823 263.046 266.721C257.226 260.568 257.873 258.517 265.633 258.517C270.806 258.517 279.213 262.619 283.093 268.088ZM371.04 262.619C376.86 265.354 390.44 285.864 401.434 309.109C416.954 341.242 418.247 348.079 408.547 338.508C401.434 332.354 394.32 328.936 392.38 330.987C390.44 333.038 386.56 330.987 383.327 326.201C380.74 321.416 381.387 319.365 385.267 322.099C388.5 324.15 391.734 322.099 391.734 316.63C391.734 311.16 389.147 308.426 386.56 309.793C380.094 314.579 367.16 296.119 369.1 285.18C370.394 279.027 366.514 276.293 360.047 277.66C348.407 279.711 344.527 271.507 352.934 263.303C358.107 257.833 358.107 257.833 371.04 262.619ZM274.686 294.068C277.273 298.17 273.393 298.854 263.693 296.119C241.06 289.283 234.593 280.395 253.993 283.813C263.693 285.864 272.746 290.65 274.686 294.068ZM444.114 290.65C468.041 302.272 468.041 302.272 450.581 304.323C431.827 307.058 406.607 296.803 406.607 285.864C406.607 276.293 416.954 277.66 444.114 290.65ZM189.973 326.885C197.733 339.875 180.919 333.722 162.813 315.946L144.706 298.854L165.399 309.109C176.393 315.262 188.033 322.783 189.973 326.885ZM225.54 306.375C233.3 311.844 231.36 313.211 217.78 313.211C208.08 313.211 198.379 309.793 196.439 306.375C191.266 297.487 212.606 297.487 225.54 306.375ZM131.772 324.834C133.712 330.987 131.772 338.508 127.246 341.242C117.546 348.079 111.726 343.977 107.846 328.252C103.966 312.528 125.952 309.793 131.772 324.834ZM348.407 361.069C361.34 388.416 367.16 415.08 355.52 395.937C350.994 388.416 349.054 388.416 345.82 395.937C343.88 401.406 343.233 399.355 345.173 391.835C349.054 373.375 338.707 355.6 333.533 370.641C329.653 380.896 325.127 379.528 296.027 363.804C272.1 351.497 264.986 343.977 269.513 339.191C277.273 330.987 305.727 347.395 320.6 367.222C327.067 376.11 327.713 373.375 324.48 351.497C319.307 318.681 329.653 322.783 348.407 361.069ZM389.794 340.559C413.074 355.6 423.421 373.375 414.367 382.947C411.134 386.365 405.314 380.896 400.14 371.324C395.614 361.753 387.854 354.232 383.327 354.232C378.8 354.232 371.687 348.079 367.807 340.559C359.4 323.467 361.34 323.467 389.794 340.559ZM454.461 362.436C452.521 365.171 454.461 367.906 458.987 367.906C463.514 367.906 464.807 369.957 462.867 372.008C455.754 379.528 439.587 360.385 443.467 349.446C446.701 341.926 447.994 341.242 452.521 348.079C455.107 352.865 455.754 359.702 454.461 362.436ZM261.106 354.232C263.046 357.651 259.166 361.069 251.406 361.069C243.646 361.069 239.766 357.651 241.706 354.232C243.646 350.13 248.173 347.395 251.406 347.395C254.64 347.395 259.166 350.13 261.106 354.232ZM232.006 389.1C232.006 396.62 219.073 404.141 218.426 397.304C217.78 394.569 216.486 384.314 215.84 375.426C214.546 359.702 214.546 359.018 222.953 371.324C228.126 378.161 232.006 386.365 232.006 389.1ZM325.127 404.141C329.653 417.131 329.007 425.335 323.833 430.804C318.013 436.958 315.427 435.59 312.193 425.335C309.607 418.498 304.433 410.294 301.2 408.243C292.147 401.406 301.2 379.528 311.547 382.947C315.427 384.998 321.893 394.569 325.127 404.141ZM457.694 401.406C468.041 412.345 469.981 422.6 468.041 460.203C467.394 484.815 464.807 506.693 462.867 508.744C458.987 512.846 445.407 455.417 445.407 433.539C445.407 423.968 442.821 414.396 438.941 412.345C435.707 410.294 432.474 403.457 432.474 397.988C432.474 384.314 442.821 385.682 457.694 401.406ZM215.84 415.763C221.013 424.651 187.386 421.233 180.273 413.029C175.746 406.876 178.979 405.508 193.206 407.559C204.199 408.927 213.9 413.029 215.84 415.763ZM173.806 436.958C186.093 460.886 180.273 465.672 160.873 446.529C141.473 427.386 140.179 413.029 158.286 420.549C163.459 422.6 170.573 430.121 173.806 436.958ZM288.267 441.06C296.673 450.631 303.14 467.723 303.14 479.346C303.14 495.07 305.727 498.489 314.78 496.438C323.187 493.703 326.42 497.121 327.067 507.377C327.713 515.581 326.42 518.316 324.48 513.53C323.187 508.744 318.013 506.693 313.487 508.744C304.433 512.162 287.62 480.029 293.44 469.774C296.027 466.356 294.087 463.621 290.853 463.621C286.973 463.621 283.74 459.519 283.74 454.05C283.74 448.58 280.507 441.743 275.98 439.009C271.453 435.59 270.806 436.958 274.04 443.111C277.92 449.264 275.333 449.948 263.693 446.529C242.353 439.692 230.713 426.019 250.113 431.488C257.873 433.539 264.34 432.172 264.34 428.753C264.34 417.815 273.393 421.917 288.267 441.06ZM67.1055 495.07C54.8188 514.897 44.472 516.265 48.9987 497.805C50.9387 490.285 54.8188 484.132 58.0521 484.132C61.2855 484.132 63.8721 475.927 64.5188 464.988V446.529L70.9855 462.937C75.5122 475.244 74.2189 483.448 67.1055 495.07ZM199.673 456.784C199.673 460.203 203.553 462.937 208.08 461.57C213.253 460.886 215.84 469.091 216.486 486.183L217.133 511.479L214.546 486.183C212.606 472.509 209.373 464.305 206.786 469.091C204.199 474.56 199.673 472.509 194.499 463.621C189.973 455.417 189.326 449.948 193.206 449.948C196.439 449.948 199.673 452.682 199.673 456.784ZM96.8523 513.53C88.4456 522.418 87.7989 510.111 94.9123 476.611L99.439 453.366L101.379 480.029C102.672 494.387 100.732 509.428 96.8523 513.53ZM160.873 492.336C160.873 497.805 158.286 504.642 155.053 508.06C151.819 512.162 147.939 521.05 146.646 528.571C145.353 536.091 144.059 524.469 143.413 503.275C143.413 470.458 144.706 466.356 151.819 473.876C156.993 478.662 160.873 487.55 160.873 492.336ZM438.941 539.51C438.941 566.173 429.241 611.296 409.84 672.144C396.26 714.532 365.867 774.696 362.634 765.124C361.34 760.339 365.22 750.767 371.04 743.93C376.86 737.093 380.094 728.206 378.154 724.787C376.214 721.369 380.094 712.481 385.914 705.644C405.314 683.766 420.187 614.031 425.361 523.101C426.654 498.489 438.941 512.846 438.941 539.51Z" fill="#131313"/>
</svg>
