<svg width="530" height="970" viewBox="0 0 530 970" fill="none" xmlns="http://www.w3.org/2000/svg">
<path d="M109.969 4.74347C109.331 16.1682 131.652 44.394 141.218 44.394C145.044 44.394 147.595 47.0822 147.595 51.1144C147.595 59.851 118.897 59.851 101.04 50.4423C87.6481 43.7219 87.6481 43.7219 99.1273 53.8026C106.142 59.851 114.433 64.5552 117.622 64.5552C120.81 64.5552 111.244 76.652 95.9386 92.1089C78.082 108.91 71.0669 120.335 76.1688 122.351C89.5613 128.399 84.4594 140.496 70.4292 136.464C62.7764 134.448 58.3123 134.448 60.2255 136.464C65.3273 141.84 44.2821 165.362 37.9047 160.657C34.7161 158.641 27.701 162.673 23.2368 169.394C9.84441 187.539 11.7576 196.276 25.15 183.507C41.7312 167.378 57.0368 168.05 43.6444 184.179C26.4255 204.34 32.1651 223.829 50.0217 205.012C53.8481 200.98 58.3123 200.308 60.2255 203.668C62.1387 207.028 50.6594 221.141 34.7161 234.582C18.7727 248.023 7.93121 259.448 11.1199 259.448C14.3086 259.448 11.7576 262.808 5.38027 266.84C-0.359347 270.872 -4.18576 276.249 -2.27255 279.609C2.19159 287.001 34.0783 280.953 42.3689 271.544C46.833 266.168 46.1953 265.496 39.8179 269.528C34.0783 272.888 32.1651 272.216 34.7161 268.184C39.8179 260.12 64.6896 252.055 64.6896 258.103C64.0519 260.792 55.7613 272.888 45.5576 285.657C35.3538 298.426 28.3387 311.195 30.2519 314.555C32.1651 317.243 30.2519 319.931 27.0633 319.931C18.135 319.931 18.135 315.899 27.701 297.754C34.7161 283.641 34.0783 283.641 22.5991 293.05C6.65574 305.818 -4.82349 321.947 -5.46123 329.34C-5.46123 333.372 -0.997083 330.012 4.74253 322.619C14.3086 309.851 14.9463 309.851 10.4821 323.292C7.93121 330.684 5.38027 341.437 4.74253 346.813C4.74253 352.189 2.19159 358.238 0.278387 360.254C-4.18576 364.286 -12.4763 407.297 -9.28764 407.297C-8.01217 407.297 -0.359347 393.184 7.29347 375.711C21.9614 343.453 55.7613 303.802 61.5009 313.211C63.4141 315.899 60.2255 321.947 55.1236 326.652C50.0217 331.356 45.5576 340.093 45.5576 346.141C45.5576 360.926 27.0633 388.48 26.4255 374.367C26.4255 356.894 14.9463 375.711 11.1199 400.576L6.65574 424.098L16.8595 405.281C22.5991 395.2 28.3387 387.135 30.2519 387.135C32.1651 387.135 32.1651 389.824 29.6142 393.184C27.701 396.544 28.9765 401.248 32.8029 403.937C42.3689 410.657 40.4557 427.458 29.6142 427.458C24.5123 427.458 20.0482 430.818 20.0482 434.851C20.0482 438.211 23.2368 439.555 26.4255 437.539C30.2519 435.523 32.8029 436.867 32.8029 440.227C32.8029 444.259 28.3387 447.619 22.5991 447.619C14.3086 447.619 13.6708 454.34 16.8595 485.926C19.4104 513.479 18.135 521.544 13.6708 514.824C8.56894 506.759 7.29347 507.431 7.29347 519.528C7.29347 527.592 9.84441 535.657 13.0331 537.673C16.2218 539.689 17.4972 547.754 15.584 555.146C13.6708 562.539 14.9463 568.587 18.135 568.587C21.3236 568.587 24.5123 580.012 25.15 593.452C26.4255 607.565 29.6142 621.678 33.4406 625.711C37.267 629.743 37.9047 619.662 35.9915 598.829C33.4406 571.947 34.0783 568.587 39.1802 580.684C42.3689 589.42 44.2821 599.501 41.7312 602.861C39.8179 606.221 41.0934 608.909 44.2821 608.909C47.4708 608.909 51.9349 601.517 53.2104 592.108C55.1236 583.372 53.8481 577.323 50.6594 579.34C47.4708 581.356 45.5576 559.85 46.1953 528.936C47.4708 475.173 53.8481 454.34 60.2255 481.221C62.1387 488.614 62.1387 507.431 60.8632 522.888C58.95 547.754 59.5877 549.098 64.0519 531.625L69.7915 511.463L70.4292 531.625C71.7047 550.442 72.3424 551.114 77.4443 536.329C85.7349 515.496 87.6481 517.512 88.9235 549.77C90.199 565.899 93.3877 590.092 97.2141 604.205C100.403 617.646 101.678 633.103 99.1273 637.135C96.5763 641.167 97.2141 642.512 101.04 640.495C104.867 637.807 109.331 642.512 111.882 651.248C113.795 659.313 127.825 690.899 143.131 721.141C170.554 774.904 183.946 813.882 171.191 805.818C168.003 803.802 167.365 807.834 169.916 816.571C172.467 824.635 178.844 861.597 185.221 897.888C190.961 934.178 197.976 966.436 201.165 969.796C203.716 972.484 204.354 948.291 202.44 914.689C199.889 881.087 197.976 842.78 197.976 829.339C197.338 813.21 194.788 805.146 190.323 808.506C186.497 810.522 185.859 809.178 188.41 804.474C190.961 800.441 189.686 791.705 184.584 785.657C180.12 779.608 179.482 776.248 183.308 778.936C188.41 781.624 187.772 774.904 182.033 756.759C176.931 741.974 175.018 725.173 176.931 718.452C180.12 708.372 179.482 707.7 173.742 716.436C169.278 722.485 166.727 723.157 166.727 718.452C166.727 706.356 180.12 700.307 185.859 709.716C189.048 714.42 189.686 723.157 187.772 729.205C185.221 737.27 185.859 737.942 190.961 731.221C195.425 723.829 197.338 723.829 200.527 732.565C202.44 737.942 201.165 743.318 197.976 744.662C181.395 750.71 259.199 823.963 280.882 823.963C288.535 823.291 288.535 821.947 278.331 815.898C257.923 803.802 214.557 760.791 216.471 754.743C217.108 751.382 214.557 751.382 210.731 754.071C204.991 757.431 204.354 755.415 206.904 748.022C208.818 741.974 199.889 717.108 185.221 688.21C170.554 661.329 158.437 635.791 157.799 631.759C157.161 627.055 153.335 619.662 148.871 614.286C140.58 602.861 131.014 561.866 137.391 561.866C139.305 561.866 146.957 571.947 153.972 583.372C170.554 612.27 170.554 599.501 153.972 565.227C139.942 535.657 138.029 509.447 149.508 474.501C159.074 444.931 176.931 442.243 175.018 471.141L174.38 491.302L184.584 469.125C190.323 457.028 197.976 448.291 201.165 449.635C208.818 452.996 208.818 461.732 199.889 492.646C194.788 508.775 195.425 514.151 200.527 512.807C205.629 512.135 207.542 518.856 206.904 531.625C205.629 550.442 205.629 551.114 211.369 536.329C215.195 527.592 216.471 517.512 213.92 514.151C212.006 510.791 213.92 508.103 217.108 508.103C224.761 508.103 226.037 514.151 225.399 545.065C224.761 563.211 226.037 562.539 240.704 531.625C248.995 512.807 256.01 493.318 256.01 487.942C256.648 468.453 266.852 457.7 277.055 466.436C281.519 471.141 287.897 472.485 290.448 469.797C297.463 461.732 289.172 501.383 281.519 511.463C276.418 518.184 276.418 521.544 282.157 525.576C287.259 528.264 287.897 527.592 285.346 522.888C282.795 518.184 283.433 514.824 287.259 514.824C290.448 514.824 294.274 527.592 295.55 543.049C296.825 560.522 301.289 571.947 307.029 573.963C315.319 577.323 315.319 575.979 307.667 565.899C300.014 555.818 300.014 554.474 307.667 556.49C312.768 557.834 318.508 563.211 321.697 568.587C324.248 574.635 325.523 571.947 324.248 560.522C322.972 550.442 323.61 543.721 326.799 545.065C329.35 547.082 333.176 545.737 335.727 541.705C338.278 537.673 342.742 536.329 345.931 538.345C349.119 541.033 351.67 532.969 351.67 522.216C351.67 508.775 354.859 501.383 360.599 501.383C367.614 501.383 367.614 508.103 363.15 535.657C359.961 554.474 358.685 571.275 360.599 573.291C366.338 580.012 377.18 567.915 377.18 553.802C377.18 542.377 378.455 541.705 386.746 548.426C395.036 555.818 396.312 553.802 396.312 534.313C396.312 521.544 399.5 506.759 402.689 501.383C407.791 493.318 409.066 494.662 409.066 508.103C409.066 517.512 406.515 534.985 403.327 546.41C399.5 559.85 399.5 569.931 403.327 571.947C406.515 574.635 409.066 572.619 409.066 568.587C409.066 564.555 411.617 562.539 414.806 564.555C417.995 567.243 422.459 564.555 423.734 560.522C425.648 555.818 427.561 559.85 427.561 569.931C428.198 580.012 431.387 590.092 435.851 592.78C440.315 595.469 440.953 594.797 438.402 590.092C435.851 585.388 437.764 582.028 442.866 582.028C449.244 582.028 451.157 577.323 449.244 569.259C447.331 561.866 449.244 550.442 453.07 543.721C458.172 533.641 459.447 533.641 460.085 542.377C460.085 558.506 481.13 598.829 490.696 600.845C497.074 602.189 497.074 599.501 491.972 589.42C483.044 570.603 495.798 563.883 511.742 579.34C535.338 601.517 519.395 563.211 493.885 535.657C485.595 526.92 480.493 517.512 483.044 515.496C484.957 513.479 489.421 516.84 492.61 522.888C499.625 535.657 514.293 532.297 520.032 516.84C523.221 509.447 521.308 508.103 514.293 510.791C507.915 512.807 506.002 512.135 508.553 507.431C510.466 503.399 506.002 493.99 498.349 486.598C490.696 479.205 486.87 471.141 489.421 468.453C491.972 466.436 495.161 468.453 496.436 472.485C498.349 477.189 504.089 481.221 509.828 481.221C514.93 481.221 517.481 479.205 515.568 476.517C513.017 474.501 514.293 468.453 518.119 463.076C522.583 457.7 523.859 443.587 521.308 427.458C518.757 407.969 519.395 400.576 525.134 400.576C531.511 400.576 531.511 399.232 525.772 395.2C519.395 391.168 518.757 367.646 525.134 321.275C527.047 306.49 523.221 303.802 481.13 293.05C427.561 278.265 405.24 266.84 382.282 243.318C359.323 219.125 335.089 162.001 326.799 114.286C321.697 86.7326 315.319 70.6036 304.478 60.5229C295.55 52.4585 290.448 43.7219 292.361 41.7058C294.912 39.6896 289.172 37.6735 279.606 37.6735C270.678 37.6735 261.112 34.3134 259.199 30.9531C257.286 26.9208 250.908 24.2327 245.806 24.2327C240.704 24.2327 237.516 26.9208 239.429 30.2811C244.531 38.3456 203.078 43.0499 186.497 36.3295C178.844 33.6413 173.105 34.3134 173.105 37.6735C173.105 57.1628 124.637 31.6252 115.708 8.1037C111.882 -1.30493 109.969 -2.64899 109.969 4.74347ZM195.425 98.1573C196.701 100.846 190.961 101.518 182.671 99.5014C173.742 98.1573 165.452 94.1251 163.539 91.4369C162.263 88.7488 168.003 88.0767 176.293 90.0928C185.221 91.4369 193.512 95.4692 195.425 98.1573ZM153.972 118.991C153.972 126.383 136.754 127.055 132.289 119.663C131.014 116.975 134.84 113.614 141.856 113.614C148.233 112.942 153.972 114.958 153.972 118.991ZM90.199 165.362C73.6179 189.555 77.4443 197.62 99.765 186.867C119.535 177.458 122.086 176.786 122.086 184.851C122.086 193.587 78.7198 207.7 67.2405 202.996C54.4858 198.292 56.399 192.243 80.633 163.345C103.591 135.12 109.969 136.464 90.199 165.362ZM257.286 205.684C249.633 213.077 241.98 219.125 239.429 219.125C236.878 219.125 240.067 213.077 246.444 205.684C252.821 198.292 261.112 192.243 264.301 192.243C268.127 192.243 264.938 198.292 257.286 205.684ZM181.395 213.749C173.105 217.781 166.727 224.501 166.727 228.534C166.727 238.614 129.101 264.152 106.142 269.528L87.0103 274.232L102.954 260.792C111.244 253.399 120.81 248.695 123.361 250.039C130.376 254.743 166.727 217.781 162.901 211.06C160.988 208.372 167.365 205.684 177.569 206.356C194.788 206.356 194.788 207.028 181.395 213.749ZM268.765 232.566C259.836 239.286 251.546 243.99 250.27 241.974C246.444 238.614 270.04 219.797 278.331 219.797C282.157 219.125 277.693 225.173 268.765 232.566ZM182.671 264.152C182.033 270.872 176.293 275.576 170.554 275.576C165.452 274.904 162.263 276.921 164.176 280.953C169.278 289.689 153.972 307.162 145.682 301.786C141.856 299.77 141.218 301.114 143.769 305.818C146.957 311.195 152.059 310.523 162.263 303.13C169.916 297.754 178.844 293.05 182.033 293.05C190.961 293.05 161.625 313.883 150.784 315.899C146.32 316.571 138.029 321.275 132.289 325.98C119.535 337.404 119.535 331.356 132.289 304.474C152.059 262.808 187.135 235.254 182.671 264.152ZM270.04 260.792C266.214 264.824 257.923 269.528 252.821 270.2C244.531 271.544 243.893 269.528 250.27 262.136C254.097 256.759 262.387 252.727 267.489 252.727C275.142 252.727 275.78 254.743 270.04 260.792ZM128.463 279.609C128.463 289.689 103.591 300.442 85.0971 297.754L67.8783 295.738L90.199 284.313C115.708 271.544 128.463 270.2 128.463 279.609ZM291.085 278.937C287.259 282.297 277.693 286.329 268.765 289.017C255.372 292.378 256.01 291.033 271.953 282.969C294.274 271.544 298.738 270.872 291.085 278.937ZM332.538 299.098C332.538 307.162 319.146 311.867 308.304 307.835C301.289 305.146 301.289 303.802 308.304 299.098C319.146 291.706 332.538 291.706 332.538 299.098ZM368.889 309.851C350.395 327.324 331.263 334.044 346.568 317.915C355.497 308.507 378.455 293.722 383.557 293.722C385.47 293.722 378.455 301.114 368.889 309.851ZM421.821 323.292C421.821 336.06 413.531 340.093 402.689 333.372C395.674 328.668 395.674 325.98 402.051 317.243C411.617 305.818 421.821 308.507 421.821 323.292ZM166.727 336.732C162.263 342.109 155.248 346.813 151.422 346.813C147.595 346.813 139.305 354.878 133.565 364.958L122.723 383.775L122.086 365.63C122.086 350.845 127.188 344.125 146.32 334.044C172.467 319.931 179.482 320.603 166.727 336.732ZM209.455 344.797L205.629 368.99L225.399 349.501C236.24 338.748 243.255 334.716 240.704 340.093C238.153 345.469 240.704 344.125 245.806 337.404C253.459 327.324 257.923 325.98 263.025 331.356C268.127 336.732 266.214 340.765 256.648 346.813C248.995 350.845 243.893 356.222 245.806 358.91C247.082 361.598 241.98 363.614 234.965 364.286C227.312 364.286 216.471 365.63 211.369 367.646C204.991 369.662 202.44 365.63 203.078 356.894C203.716 343.453 203.716 343.453 194.788 356.222C189.686 363.614 187.135 375.039 189.686 381.759C191.599 389.824 189.686 393.856 183.308 393.856C170.554 393.856 170.554 392.512 182.671 362.27C201.165 316.571 215.195 307.162 209.455 344.797ZM90.199 358.238C82.5462 363.614 74.8934 366.302 72.9802 364.286C70.4292 362.27 72.3424 360.254 76.1688 360.254C80.633 360.254 83.1839 358.238 83.1839 354.878C81.2707 343.453 84.4594 340.765 93.3877 344.797C101.678 348.157 101.04 350.173 90.199 358.238ZM317.233 377.727C314.044 390.496 310.855 393.856 306.391 389.152C301.289 383.775 301.927 377.055 307.029 366.974C316.595 348.157 322.334 354.205 317.233 377.727ZM225.399 384.447C222.21 390.496 220.935 401.248 222.21 407.297C226.037 422.754 212.644 431.49 207.542 417.377C202.44 404.609 214.557 373.695 224.123 373.695C228.587 373.695 229.225 377.727 225.399 384.447ZM99.765 395.2C97.2141 403.937 92.7499 427.458 88.9235 447.619C81.2707 492.646 71.067 506.087 70.4292 473.829C69.7915 461.732 69.1537 440.899 67.8783 428.13C66.6028 413.345 69.7915 401.92 78.082 393.184C94.6631 375.711 105.505 377.055 99.765 395.2ZM134.203 401.92C127.188 416.033 127.188 416.705 136.754 407.969C145.044 401.248 149.508 400.576 155.886 406.625C160.988 410.657 166.727 412.001 168.64 409.313C174.38 403.265 173.742 414.017 166.727 430.818C161.625 443.587 160.988 443.587 160.988 429.474C160.35 421.41 157.799 413.345 154.61 411.329C147.595 406.625 139.942 424.77 138.029 452.996C137.391 465.764 133.565 477.861 130.376 479.877C126.55 482.566 122.086 489.286 120.173 494.662C115.708 504.743 120.173 471.813 126.55 441.571C129.101 430.818 127.825 426.786 122.723 430.146C117.622 433.506 117.622 430.146 122.086 416.705C130.376 395.2 134.84 387.135 138.667 387.135C140.58 387.135 138.029 393.856 134.203 401.92ZM352.308 403.265C345.931 410.657 313.406 416.705 313.406 409.985C313.406 407.969 338.916 399.232 357.41 394.528C358.685 393.856 356.134 397.888 352.308 403.265ZM379.093 430.818C368.251 446.275 351.67 453.668 351.67 442.915C351.67 434.178 379.093 407.969 384.195 411.329C387.383 413.345 384.832 422.082 379.093 430.818ZM268.765 421.41C268.765 425.442 274.504 426.786 283.433 424.098C296.825 420.066 296.825 420.066 285.346 430.146C278.331 436.195 268.765 440.899 264.301 440.899C259.836 440.899 250.27 454.34 242.618 471.141C227.95 503.399 223.486 506.759 212.006 491.974C205.629 483.91 206.904 483.238 217.108 485.926C228.587 489.286 230.501 486.598 230.501 469.125C230.501 457.7 234.965 443.587 240.704 438.211C252.184 425.442 258.561 424.098 252.184 435.523C249.633 440.227 250.27 440.899 254.735 438.211C258.561 435.523 260.474 429.474 257.923 424.098C256.01 418.721 257.923 414.017 261.75 414.017C265.576 414.017 268.765 417.377 268.765 421.41ZM476.029 479.205C486.232 500.039 483.044 508.103 470.289 493.99C460.085 483.238 457.534 472.485 460.085 447.619C461.998 431.49 461.998 431.49 464.549 446.275C465.825 454.34 471.564 469.797 476.029 479.205ZM442.866 503.399C435.851 515.496 428.198 498.022 428.836 472.485L429.474 444.259L437.764 471.141C442.229 485.926 444.142 500.039 442.866 503.399ZM387.383 492.646C387.383 514.151 386.108 524.232 384.832 515.496C383.557 506.759 377.18 498.022 370.165 496.678C363.787 494.662 358.048 489.958 358.048 486.598C358.048 483.238 361.236 482.566 364.425 484.582C368.251 486.598 370.802 485.254 370.802 481.221C370.802 475.845 382.919 456.356 387.383 454.34C388.021 454.34 388.021 471.813 387.383 492.646ZM319.784 497.35C315.319 502.055 313.406 496.678 314.044 480.549C314.044 459.044 314.682 458.372 320.421 473.829C324.248 484.582 324.248 492.646 319.784 497.35ZM112.52 530.281C115.071 545.737 115.708 561.866 115.071 565.227C114.433 569.259 115.071 576.651 117.622 582.028C119.535 587.404 122.723 606.221 125.274 623.694C127.188 641.167 131.652 657.296 135.478 659.313C138.667 662.001 139.942 666.033 138.029 669.393C136.116 672.753 138.667 680.818 144.406 687.538C149.508 694.259 153.972 702.323 154.61 706.356C154.61 709.716 159.074 719.796 164.176 728.533C169.278 737.27 173.105 747.35 171.829 750.71C168.003 762.807 129.101 673.426 113.157 615.63C97.2141 557.162 92.1122 501.383 102.316 501.383C106.142 501.383 110.607 514.151 112.52 530.281Z" fill="#131313"/>
</svg>
