<svg width="97" height="100" viewBox="0 0 97 100" fill="none" xmlns="http://www.w3.org/2000/svg">
<path d="M0 2.13057C0 3.76681 0.485485 4.92581 1.75988 6.28934C2.73085 7.312 4.00525 9.3573 4.55142 10.8572C5.15827 12.2889 6.18993 13.7206 6.91816 13.9251C8.92078 14.6751 17.4774 23.7426 20.269 28.0377C21.6041 30.2194 23.3639 32.9464 24.1529 34.1055C24.8811 35.2645 25.4879 36.9689 25.4879 37.9233C25.4879 39.3551 25.3059 39.4914 24.0315 39.1505C22.8178 38.8096 22.3323 39.1505 21.4827 40.7186C20.1476 43.2411 18.9946 43.582 16.021 42.3548C11.1055 40.3095 9.58832 39.9687 8.92078 40.7186C8.07118 41.6731 9.34558 43.2411 11.4089 43.7184C12.3192 43.9229 14.4432 45.1501 16.0817 46.3773C18.3877 48.0817 19.1766 49.1043 19.298 50.6042C19.4194 51.8314 19.9656 52.6495 20.6938 52.854C22.0289 53.2631 22.0896 53.7403 21.1186 56.1265C20.5724 57.4901 19.5408 58.1718 15.8996 59.3308C12.4405 60.4898 11.2875 61.1716 10.8627 62.3988C9.52764 66.4212 12.9867 67.2393 17.9022 63.9669C19.6014 62.876 21.6041 61.9897 22.4537 61.9897C23.9708 61.9897 23.9708 61.9897 22.6357 62.6033C21.8468 62.9442 21.24 63.4214 21.24 63.626C21.24 64.3759 23.6067 63.8987 24.4563 63.0124C25.1238 62.2624 25.4879 62.1943 26.0341 62.8078C27.0051 63.8987 26.8837 65.3304 25.67 66.8985C24.699 68.0575 24.699 68.1938 25.6093 68.8074C26.3982 69.2846 26.5196 70.2391 26.2769 73.6479C25.9127 78.7612 25.9734 80.9429 26.4589 81.761C27.0658 82.9882 27.9154 82.3746 28.765 79.9884C29.6146 77.7386 31.5565 76.6477 31.5565 78.4203C31.5565 78.8976 30.7069 81.5564 29.7359 84.3517C27.8547 89.5331 27.5513 91.2375 28.4615 91.2375C29.4932 91.2375 31.5565 87.6923 32.4061 84.3517C33.5591 79.9884 34.4694 78.284 35.5617 78.284C37.0789 78.284 37.6857 81.6928 37.5644 90.0104C37.443 96.828 37.5644 98.2597 38.414 99.2142C40.6593 101.737 44.5432 97.7825 44.4218 93.0783C44.4218 91.9875 43.2688 89.1922 41.9337 86.8742C38.3533 80.7383 38.4747 78.4885 42.662 73.8525C46.91 69.0119 49.6408 68.1256 53.0999 70.3755C56.8624 72.898 61.2318 77.4658 62.5061 80.3293C63.6592 82.8518 65.1763 84.079 66.208 83.329C67.1789 82.7155 66.8148 81.9655 63.4164 76.9886C61.5352 74.2615 60.0787 71.3981 60.0787 70.5118C60.0787 68.8074 62.2027 65.3304 63.2344 65.3304C63.5985 65.3304 64.4481 64.785 65.0549 64.1714C66.0866 63.1487 66.6935 63.0806 70.5773 63.8305C73.0048 64.3077 76.5852 65.6031 78.5878 66.6939C83.564 69.421 87.1445 70.7845 89.6326 70.7845C91.5139 70.7845 91.6959 70.6482 91.5139 68.9438C91.3925 67.5802 90.5429 66.6257 88.2975 65.0577C85.7487 63.3533 84.535 63.0124 80.7118 62.9442C77.4348 62.8078 75.3108 62.3306 73.1261 61.2398C69.1209 59.1945 66.1473 56.6038 66.1473 55.1721C66.1473 54.5585 65.8438 53.6722 65.5404 53.3313C65.0549 52.7859 65.1156 52.0359 65.5404 50.6724C66.208 48.6953 67.1182 48.6271 71.4269 50.0588C72.3979 50.3315 72.9441 50.127 73.1868 49.3089C73.733 47.7408 72.4586 46.9227 69.3636 46.9227C67.9072 46.9227 66.7541 46.5818 66.7541 46.2409C66.7541 45.8318 67.1789 45.5591 67.6644 45.5591C68.1499 45.5591 68.5747 45.2183 68.5747 44.8774C68.5747 44.4001 67.7251 44.332 66.3293 44.6047C63.7199 45.1501 63.5985 45.1501 60.6856 44.4001C57.5906 43.5138 57.8334 41.6049 61.2924 39.5596C62.8096 38.6733 65.3584 36.628 67.0576 35.0599C68.6961 33.4237 72.5193 30.083 75.4322 27.5605C79.8622 23.8789 81.0759 23.129 82.3503 23.4699C83.382 23.8108 83.8068 23.6744 83.564 23.2654C83.0179 22.2427 87.1445 19.2429 90.8463 17.8794C94.7302 16.4477 97.279 13.7206 96.9756 11.1981L96.7935 9.42548L92.9703 12.8343C90.907 14.7433 87.63 17.1294 85.688 18.0839C83.8068 18.9702 81.0759 20.9473 79.6802 22.4472C78.2844 23.8789 74.886 26.3333 72.0945 27.8332C69.3029 29.4013 66.2687 31.4466 65.3584 32.4692C63.9019 34.0373 63.5378 34.1736 62.4455 33.4237C61.3531 32.6737 61.2924 32.7419 61.6565 34.2418C61.8993 35.469 61.7172 36.0826 60.8069 36.628C59.2898 37.5825 57.2265 37.5825 56.741 36.6962C56.1342 35.5372 57.5299 25.7197 58.5009 24.4925C59.836 22.8563 59.7146 21.6973 58.2582 21.6973C57.4692 21.6973 56.6196 22.6518 55.8307 24.4244C54.3743 27.6968 53.0999 28.4468 51.7648 26.9469C50.8545 25.9242 50.9152 25.447 52.7965 21.3564C54.9811 16.5159 56.0735 9.69818 54.5563 10.2436C54.0709 10.4481 53.2819 12.3571 52.7358 14.6069C51.5827 19.652 50.6118 21.6973 49.3374 21.6973C48.7912 21.6973 47.4561 22.9245 46.3031 24.4244C45.1501 25.9242 43.6936 27.1514 43.0868 27.1514C41.691 27.1514 40.0525 22.5836 39.6277 17.6067C39.2636 13.107 38.2926 9.97089 37.3823 10.3118C37.0182 10.4481 36.7755 11.6071 36.8968 12.9025C37.9892 29.1285 37.9892 29.1967 34.5908 25.447C33.3164 24.0153 31.9206 21.97 31.4958 20.9473C30.8283 19.0384 29.7359 18.2885 29.7359 19.652C29.7359 20.061 30.2214 21.4928 30.889 22.9245C31.4958 24.288 32.3454 26.606 32.7702 28.0377C33.3771 30.2876 33.3771 30.833 32.4061 31.992C30.9496 33.8327 29.9787 33.6282 26.3982 30.9011C22.4537 27.8332 17.2954 21.2882 16.021 17.6749C15.4748 16.1068 14.5645 14.4706 14.0184 13.9933C13.4722 13.5843 12.3799 12.0162 11.5909 10.5845C10.8627 9.22095 9.83106 8.06194 9.34558 8.06194C8.86009 8.06194 6.91816 6.22117 5.0369 3.97134C1.15303 -0.732857 0 -1.14191 0 2.13057Z" fill="white"/>
</svg>
