<svg width="115" height="100" viewBox="0 0 115 100" fill="none" xmlns="http://www.w3.org/2000/svg">
<path d="M20.248 0.157341C19.7924 0.437065 20.7765 2.06293 22.5626 3.96853C23.4739 4.94756 24.3487 5.99651 24.5309 6.32867C24.9865 7.18532 24.9319 8.35664 24.3851 9.31818C24.13 9.75525 23.9659 10.1573 24.0206 10.2098C24.2029 10.4021 24.9136 10.3147 25.588 10.0525C26.4992 9.68532 26.9002 9.91259 27.0095 10.8916C27.1371 11.958 27.5745 12.7273 28.8138 14.0909C30.0166 15.4371 30.4176 16.1538 30.6545 17.2727C30.7639 17.8671 31.0008 18.2168 31.6933 18.8462C32.7139 19.7727 33.206 20.6643 34.1537 23.1818C34.9739 25.4021 35.4295 26.1713 36.8146 27.7098C37.416 28.3741 38.1268 29.3531 38.4002 29.8601C38.8193 30.6818 38.8558 30.8566 38.6553 31.451C38.1815 33.007 37.3249 32.8671 33.935 30.7517C33.1696 30.2797 32.0578 29.7378 31.4746 29.5804C30.5087 29.3007 30.3447 29.1783 29.4517 28.042C28.7227 27.1154 28.1577 26.6259 27.2282 26.1014C26.5357 25.6993 24.8225 24.493 23.4192 23.4091C19.7195 20.5594 18.2979 19.5804 16.6395 18.7413C15.8193 18.3392 14.9628 17.7972 14.7258 17.5175C13.9968 16.6958 12.5571 15.6469 10.2971 14.3182C8.56577 13.3042 7.70919 12.6573 6.19651 11.1888C3.71791 8.77622 2.89778 8.21678 1.93185 8.21678C1.22108 8.21678 0 8.74126 0 9.03846C0 9.40559 0.783677 10.3497 1.42155 10.7517C1.80428 10.979 2.84311 11.4685 3.73613 11.8182C5.01189 12.3077 5.55864 12.6224 6.21474 13.2867C7.10777 14.1783 8.21949 14.8601 9.38589 15.2797C9.84152 15.4371 10.7163 16.0839 11.664 16.993C12.5935 17.8496 13.6688 18.6713 14.3431 19.021C14.981 19.3357 15.5824 19.7727 15.6918 19.9825C16.5301 21.521 17.9334 22.5175 21.0317 23.8112L23.0547 24.6504L23.3645 25.6294C23.9659 27.5699 25.0048 28.6538 28.3399 30.8566C30.5452 32.3252 31.8574 33.5664 32.5135 34.8077L32.9873 35.7343L32.4406 36.1713C31.9849 36.5559 31.8574 36.8182 31.7298 37.8322C31.4929 39.4755 31.3106 39.6329 30.0895 39.1783C28.4311 38.5315 27.4287 37.9895 24.2029 35.9091C21.0317 33.8462 18.6807 32.6399 17.496 32.4301L16.8582 32.3252L17.9517 33.3042C18.5531 33.8287 19.4826 34.5979 19.9929 34.9825C20.9406 35.6818 22.7631 36.521 23.3645 36.5385C23.565 36.5385 24.0388 37.0455 24.5491 37.7797C25.023 38.4965 26.5539 40.1399 28.0666 41.5909C30.8368 44.2483 31.4746 45.0699 32.2036 46.993C32.7322 48.3741 32.6775 48.4266 30.855 48.4266C28.9414 48.4266 27.2647 48.0594 22.9271 46.7133C18.8994 45.4371 17.9334 45.1923 16.1838 45.0175C15.1997 44.9126 15.1268 44.9301 15.1268 45.2797C15.1268 46.521 16.3843 47.3077 18.6078 47.4825C21.7789 47.7098 22.9635 48.2517 23.0182 49.4755L23.0547 50.0874H19.8653C18.1157 50.0874 15.4731 50.0175 13.9968 49.9301L11.2995 49.7727V50.1573C11.2995 50.7867 11.6093 51.1713 12.393 51.4685C13.3043 51.8182 14.4342 51.8182 15.5642 51.5035C16.3479 51.2762 16.4937 51.2762 17.1862 51.5734C17.9334 51.8706 19.3914 52.1678 22.9635 52.7098C25.5333 53.1119 26.9002 53.6189 27.9208 54.5629C28.4128 55 28.7956 55.4545 28.7956 55.5594C28.7956 55.8566 27.9572 56.2238 26.7544 56.4685C25.6244 56.6783 24.9683 57.2378 24.9683 57.9545C24.9683 58.479 25.2781 58.7063 26.2076 58.8462C26.6268 58.8986 27.0642 59.0559 27.1735 59.1958C27.4469 59.5105 27.21 60.3671 26.7361 60.7867C25.9525 61.486 25.4604 61.5909 22.4897 61.7308C20.8677 61.8007 19.3732 61.9406 19.1545 62.0455C18.4073 62.4301 18.4802 63.7413 19.3368 64.8776C19.6466 65.3147 19.8288 65.3846 20.5578 65.3846C21.0317 65.3846 22.107 65.2622 22.9635 65.1224C24.7314 64.8252 25.4968 64.7902 25.8613 65.0175C26.0618 65.1399 25.916 65.4021 25.2235 66.2587C23.9477 67.7972 22.7813 69.4056 22.7813 69.6154C22.7813 69.9476 24.458 69.5629 26.2441 68.8287C28.2853 67.9895 29.8344 67.7972 30.7821 68.2692C31.1101 68.4266 31.3471 68.6538 31.2924 68.7587C31.2559 68.8811 30.5816 69.5105 29.7979 70.1573C26.9548 72.5175 24.4216 73.5664 20.3391 74.0734C19.3003 74.2133 19.2456 74.2483 18.5713 75.1748C17.9152 76.049 17.733 76.6608 17.8423 77.5699C17.8788 77.8846 19.3003 78.1993 20.1933 78.0769C21.706 77.8846 22.9635 77.1329 26.7179 74.1608C28.9049 72.4476 29.9984 71.9406 31.5293 71.9406C32.4952 71.9406 32.878 72.028 33.5887 72.4301C34.0626 72.6923 34.4089 72.9895 34.3724 73.0594C34.3177 73.1294 33.8803 73.3392 33.4065 73.514C32.2765 73.9161 31.8938 74.2483 31.8938 74.8252C31.8938 75.5594 32.8962 76.3112 35.1743 77.2727C37.817 78.3741 38.1815 78.6364 38.1632 79.3531C38.1268 80.0874 37.2338 81.8357 36.0127 83.6364C34.7734 85.4196 34.2995 86.4161 34.1537 87.465L34.0261 88.2692L34.664 88.3741C35.557 88.5315 36.7964 88.1643 37.3796 87.5699C37.9263 86.993 38.4002 85.7517 39.0198 83.1818C39.5666 80.8566 40.2044 79.8077 41.4255 79.2657C42.683 78.7063 43.1569 78.7238 43.3938 79.3182C43.7583 80.2273 43.4667 82.6049 42.6466 85.2273C41.4802 89.021 41.5531 90.542 42.9929 91.8531C43.5214 92.3427 43.5578 92.3427 43.9952 92.0804C44.7607 91.5909 45.3621 90.3671 46 87.9021C46.8566 84.6678 47.5127 83.549 48.8978 83.0594C49.7726 82.7448 49.9366 82.8147 49.9366 83.479C49.9366 84.3706 50.3011 85.0874 51.3035 86.1888C52.9255 87.9895 53.0531 88.6014 52.5428 91.9056C52.2512 93.7413 52.2512 93.9161 52.5428 94.493C52.7068 94.8252 53.0713 95.2098 53.3811 95.3497C53.8732 95.6119 53.9097 95.5944 54.019 95.2273C54.5293 93.4615 55.3859 90.0524 56.0602 87.0804C56.9715 83.042 57.5729 80.7692 57.7551 80.7692C58.1014 80.7692 59.1038 81.5559 59.5777 82.1678C60.2702 83.0944 60.7805 84.5455 61.2361 86.9755C61.9834 90.8916 62.7124 92.2727 64.4255 93.0245C65.4826 93.4965 65.7377 93.4441 65.9746 92.7273C66.3209 91.7308 66.1022 90.4545 65.1545 88.2168C64.1704 85.8392 64.0246 84.6154 64.5895 83.4266L64.9176 82.7448L64.1521 81.3287C63.2956 79.7203 63.1862 78.986 63.733 78.4615C64.0792 78.1294 64.1339 78.1294 64.6624 78.3916C65.4097 78.7587 65.9382 79.4755 67.0499 81.5909C67.6513 82.7273 68.2528 83.5839 68.7084 83.986C69.4556 84.6329 69.8019 84.7727 69.8019 84.4231C69.8019 84.021 68.7813 81.8182 67.87 80.2448C66.9406 78.6713 66.1204 76.3811 66.3756 76.1364C66.6307 75.8741 67.706 76.3112 68.435 76.9406C69.3098 77.7098 69.8383 78.7762 70.2757 80.542C70.4944 81.5035 70.7132 81.8706 71.351 82.535C72.2623 83.4615 72.5357 83.9336 73.2647 85.8217C74.1941 88.2343 74.6315 88.8986 76.4723 90.6119C77.4382 91.486 78.3677 92.5 78.5499 92.8322C78.7139 93.1643 79.206 94.458 79.607 95.7168C80.0261 96.958 80.5729 98.2867 80.828 98.6364C81.393 99.4406 82.4865 100 83.4525 100C84.1086 100 84.2361 99.9301 84.4913 99.4231C84.9287 98.6538 84.874 97.4126 84.3819 96.486C84.145 96.0664 83.3066 94.965 82.523 94.0559C80.9374 92.2378 80.3542 91.2413 78.9144 87.9371C77.748 85.2098 76.9097 83.7238 75.9437 82.6224C75.3241 81.9056 75.1965 81.6084 75.1236 80.8217L75.0325 79.8601L73.4287 78.6364C72.4628 77.9196 71.6244 77.1154 71.351 76.6783C70.8589 75.8566 70.7678 74.8951 71.1323 74.4056C71.351 74.1259 71.4422 74.1608 72.2623 74.8601C72.7544 75.2797 73.939 76.6434 74.9049 77.8846C75.8708 79.1434 76.9826 80.4196 77.3471 80.7343C78.641 81.8182 80.6276 82.5175 82.4501 82.5175C83.3431 82.5175 84.0357 82.0979 84.4731 81.2937C84.8558 80.5944 84.8193 79.021 84.4002 77.8846L84.0539 76.9406L85.2567 77.7273C86.5872 78.6014 88.7742 79.6329 91.5079 80.6993C93.2028 81.3462 93.2757 81.3986 94.1506 82.5699C95.6814 84.6329 97.1941 85.472 98.8526 85.2448C99.8368 85.1049 99.9097 84.8776 99.3082 83.6538C98.6521 82.3252 97.4675 81.451 94.3328 80C91.3439 78.6189 90.1046 77.7448 89.4667 76.5559C89.1751 76.014 89.0111 75.8916 88.355 75.7867C87.9176 75.7168 87.0063 75.4545 86.2956 75.2273C83.7076 74.3357 79.3154 71.1538 78.4406 69.5629C78.2036 69.1084 78.2036 69.0559 78.4588 69.0559C78.9326 69.0559 79.8986 69.5105 81.1014 70.2972C82.0127 70.8916 82.4501 71.049 83.2155 71.1189C83.7623 71.1538 84.1997 71.1364 84.1997 71.0839C84.1997 70.4021 82.7781 69.021 81.0103 68.007C80.3177 67.6049 79.5341 67.0979 79.3154 66.8881C78.1672 65.8916 77.8574 64.1434 78.6046 62.7622C79.1696 61.6608 80.0261 61.2762 81.8486 61.3112C83.7076 61.3287 85.7306 61.8531 90.3962 63.4615C95.1529 65.1224 95.1347 65.1049 95.1347 64.8776C95.1347 64.5979 93.786 63.7063 92.3463 63.007C90.8883 62.2902 89.813 61.4161 89.412 60.5769L89.1022 59.965H87.6624C85.7124 59.965 84.5095 59.528 83.416 58.4091C82.5412 57.5 81.557 55.8741 81.7393 55.5944C81.8851 55.3671 84.9651 55.3671 87.0246 55.6119C89.2845 55.8566 91.7813 55.8566 92.7472 55.5944C93.8407 55.3147 94.7702 54.4231 94.7884 53.6538C94.8431 51.9406 94.5151 51.1538 93.5856 50.7692C92.6925 50.4196 92 50.4545 88.9929 51.0664C84.2726 52.028 83.1062 51.7308 81.229 49.1783C80.6822 48.4091 80.0079 47.6573 79.7528 47.5C79.1513 47.1154 79.1513 46.8007 79.7528 45.6643C80.3906 44.4231 81.2837 43.8112 83.8534 42.8147C86.4414 41.8182 87.061 41.4685 87.8629 40.5944L88.4643 39.9476L87.7353 39.8951C87.0063 39.8427 86.1862 40.0699 82.3772 41.3462C80.1719 42.0804 78.8597 42.2028 78.0943 41.7133C77.0555 41.0664 76.7456 39.0909 77.4564 37.6923C78.0214 36.5734 79.4794 35.2273 82.3407 33.1643C85.2203 31.1014 86.6601 29.7902 87.2797 28.6538C87.6989 27.8846 87.8629 27.7797 90.6331 26.4685C95.1712 24.3182 96.9572 23.0594 98.1965 21.1189C98.5428 20.5769 98.5792 20.4196 98.397 20.035C98.1054 19.4406 97.7044 19.3357 96.4469 19.5804C94.3692 20 93.057 20.9965 89.2845 25C88.355 25.9965 87.1157 27.0629 86.2773 27.6224C85.4754 28.1469 83.58 29.5105 82.0309 30.6294C80.5 31.7657 78.7139 32.972 78.0578 33.3217L76.8732 33.9685L73.8843 33.986L70.8954 34.0035L70.6949 33.4091C70.4215 32.6049 70.5856 31.1538 71.0777 30.2448C71.2963 29.8427 72.5174 28.4615 73.8114 27.1853C76.0895 24.9301 76.5998 24.2657 76.9279 23.1818C77.2924 21.9755 76.1807 20.2273 74.8867 19.9476C74.1941 19.7902 73.1553 20.035 72.6268 20.4545C72.08 20.8916 71.4239 22.5525 70.8225 25.0874C70.0024 28.5315 69.565 29.5979 68.6173 30.507C67.3051 31.7657 66.4485 31.6958 66.0111 30.2622C65.5737 28.9161 65.8106 27.7098 67.3597 22.8147C68.1434 20.3846 68.3074 18.007 67.7789 17.0629L67.4873 16.5734L66.5578 18.3741C65.6466 20.1748 65.0269 20.979 64.1704 21.521C63.7876 21.7483 63.733 21.9056 63.7694 22.8496C63.7876 23.4266 63.8423 24.1958 63.897 24.5804C64.061 25.7692 63.8059 26.9056 63.2227 27.535C62.3114 28.514 61.4184 28.4266 60.9445 27.3252C60.7987 26.958 60.58 26.486 60.4707 26.2762C60.1791 25.7168 60.5071 24.8077 61.874 22.2902C63.4231 19.4406 63.5872 18.6888 63.1498 16.2587C62.7488 13.8986 62.8217 13.3741 63.9517 11.2238C64.8265 9.54546 64.9358 9.21329 64.8994 8.42657C64.8811 8.007 63.9881 7.51749 63.2773 7.51749C62.6395 7.51749 61.546 10.3671 60.5071 14.7727C59.1585 20.4895 58.5024 22.6748 57.4818 24.7552C56.8074 26.1364 55.313 28.1469 54.9667 28.1469C54.584 28.1469 53.4358 26.8706 53.0531 26.0315C52.5428 24.9301 52.3059 22.5874 52.4334 20.0525C52.5428 17.6224 52.2876 15.0874 51.7773 13.8112C51.4311 12.9545 50.4105 11.5385 50.1189 11.5385C50.046 11.5385 49.7726 11.9056 49.5357 12.3601C49.1165 13.1993 49.1165 13.2517 49.1165 19.4056C49.1165 25.4021 49.0983 25.6469 48.6973 26.7657C48.4786 27.3951 48.0594 28.1469 47.786 28.4615L47.294 29.021L46.164 28.6189C43.6854 27.7622 42.3914 26.3986 40.3685 22.4126C39.2385 20.2448 38.9287 19.7552 38.6189 19.7552C38.4002 19.7552 37.7441 19.5455 37.1609 19.3007C36.1949 18.8811 36.0309 18.7238 35.4295 17.6748C34.3906 15.8566 32.9691 14.1434 30.0895 11.2937C25.8978 7.13287 24.0571 4.93007 23.7837 3.75874C23.1822 1.17133 22.3803 0 21.1957 0C20.813 0 20.3938 0.069931 20.248 0.157341Z" fill="#131313"/>
<path d="M105.596 11.8531C103.919 12.4126 102.188 13.8986 100.894 15.8741C100.62 16.2937 100.42 16.6608 100.456 16.6958C100.584 16.8182 103.427 15.3322 104.521 14.5979C105.669 13.8112 107.528 12.0455 107.528 11.7308C107.528 11.4511 106.653 11.5035 105.596 11.8531Z" fill="#131313"/>
<path d="M9.84153 26.2238C9.60461 26.2762 9.24011 26.5734 9.05786 26.8881C8.63868 27.5699 8.65691 27.6224 10.5341 29.0559C11.8463 30.0524 14.58 31.4685 15.1815 31.4685C15.5642 31.4685 12.5206 27.535 11.5365 26.7657C10.7892 26.1713 10.4794 26.0664 9.84153 26.2238Z" fill="#131313"/>
<path d="M98.8162 34.1958C97.7773 34.6853 97.1395 35.4021 97.0848 36.1364L97.0483 36.6259L98.233 36.5734C100.219 36.4685 101.277 35.8392 101.586 34.5804C101.805 33.6538 100.365 33.4441 98.8162 34.1958Z" fill="#131313"/>
<path d="M12.3019 71.9755C11.6458 72.1329 9.84155 72.9545 9.84155 73.0944C9.84155 73.479 10.2972 74.1259 10.6435 74.2482C11.6641 74.5629 13.0674 74.0035 13.687 73.007C14.2338 72.1329 14.1609 71.8531 13.359 71.8706C12.9763 71.8881 12.5024 71.9231 12.3019 71.9755Z" fill="#131313"/>
<path d="M91.3986 75.8217C92.4192 77.6573 93.2211 78.6014 94.1323 79.1084C95.1894 79.7028 95.7726 79.5979 96.1553 78.7587C96.3011 78.4266 96.4105 77.8846 96.4105 77.5525C96.4105 77.0105 96.3193 76.8881 95.7361 76.6084C95.3534 76.4161 94.4786 76.1014 93.7678 75.8741C93.0753 75.6469 92.0911 75.2797 91.599 75.0525L90.7242 74.6329L91.3986 75.8217Z" fill="#131313"/>
<path d="M103.245 88.6888C103.555 89.6329 104.375 90.2972 106.58 91.3461C109.095 92.5524 109.204 92.6224 110.662 94.4056C111.956 95.979 112.594 96.3986 113.578 96.3636C114.69 96.3112 115 96.0839 115 95.2447C115 94.3182 114.198 93.5664 112.594 93.007C110.972 92.4301 109.46 91.6958 107.983 90.7343C106.288 89.6503 104.885 88.8811 103.919 88.5664C103.135 88.3042 103.135 88.3042 103.245 88.6888Z" fill="#131313"/>
<path d="M29.16 90.7343C28.668 91.2063 28.431 91.8357 28.431 92.6573C28.431 93.2517 28.5039 93.3392 29.0142 93.514C29.3241 93.6189 29.9802 93.951 30.4722 94.2482C31.4199 94.8426 31.7115 94.8252 32.1672 94.1608C32.641 93.479 32.7139 92.4475 32.3494 91.7308C31.748 90.507 29.9619 89.965 29.16 90.7343Z" fill="#131313"/>
<path d="M46.7109 53.668C45.3828 54.7227 44.0645 55.709 42.7559 56.627C41.4473 57.5449 40.041 58.3555 38.5371 59.0586C38.3809 59.0195 38.2344 59.0098 38.0977 59.0293C37.9609 59.0488 37.8242 59.0781 37.6875 59.1172C37.5703 59.1758 37.4336 59.2246 37.2773 59.2637C37.1406 59.3027 37.0039 59.3223 36.8672 59.3223C36.4766 59.3223 36.0957 59.2441 35.7246 59.0879C35.373 58.9316 35.0605 58.7266 34.7871 58.4727C34.5137 58.1992 34.2988 57.8867 34.1426 57.5352C33.9863 57.1836 33.9082 56.8125 33.9082 56.4219C33.9082 55.25 34.1523 54.1172 34.6406 53.0234C35.1484 51.9102 35.7637 50.8555 36.4863 49.8594C37.2285 48.8438 38.0391 47.8867 38.918 46.9883C39.7969 46.0703 40.6074 45.2305 41.3496 44.4688L40.5586 43.9414L40.8223 43.707C41.252 43.7266 41.6426 43.6875 41.9941 43.5898C42.3457 43.4727 42.6777 43.3457 42.9902 43.209C43.3027 43.0723 43.6152 42.9453 43.9277 42.8281C44.2598 42.7109 44.6211 42.6523 45.0117 42.6523C45.1289 42.6523 45.2461 42.6523 45.3633 42.6523C45.4805 42.6523 45.5781 42.6719 45.6562 42.7109C45.7539 42.7305 45.8223 42.7793 45.8613 42.8574C45.9199 42.9355 45.9492 43.043 45.9492 43.1797C45.9492 43.2383 45.793 43.3848 45.4805 43.6191C45.168 43.834 44.748 44.127 44.2207 44.498C43.7129 44.8496 43.127 45.2695 42.4629 45.7578C41.7988 46.2461 41.1152 46.793 40.4121 47.3984C39.7285 48.0039 39.0547 48.6582 38.3906 49.3613C37.7461 50.0449 37.1602 50.7676 36.6328 51.5293C36.1055 52.2715 35.6855 53.0527 35.373 53.873C35.0605 54.6934 34.9043 55.5234 34.9043 56.3633C34.9043 56.6953 34.9727 56.9688 35.1094 57.1836C35.2461 57.3789 35.4121 57.5449 35.6074 57.6816C35.8223 57.8184 36.0566 57.916 36.3105 57.9746C36.584 58.0137 36.8477 58.0332 37.1016 58.0332C37.9609 58.0332 38.8594 57.8086 39.7969 57.3594C40.7344 56.9102 41.6426 56.3633 42.5215 55.7188C43.4004 55.0742 44.2207 54.3809 44.9824 53.6387C45.7637 52.8965 46.4277 52.2227 46.9746 51.6172C47.0918 51.5 47.1602 51.3828 47.1797 51.2656C47.2188 51.1484 47.2383 51.0117 47.2383 50.8555C47.2383 50.8164 47.2285 50.7676 47.209 50.709C47.209 50.6504 47.209 50.6211 47.209 50.6211C46.623 50.7383 46.0762 50.875 45.5684 51.0312C45.0605 51.168 44.5527 51.3242 44.0449 51.5C43.5566 51.6562 43.0684 51.832 42.5801 52.0273C42.1113 52.2031 41.6133 52.4082 41.0859 52.6426C41.0664 52.6426 41.0469 52.6426 41.0273 52.6426C41.0273 52.6621 40.998 52.6719 40.9395 52.6719C40.7832 52.6719 40.6758 52.6133 40.6172 52.4961C40.5586 52.3789 40.5293 52.2617 40.5293 52.1445C40.5293 51.9297 40.6855 51.7148 40.998 51.5C41.3301 51.2656 41.7109 51.0605 42.1406 50.8848C42.5703 50.6895 43 50.5234 43.4297 50.3867C43.8594 50.25 44.1816 50.1523 44.3965 50.0938C44.4551 50.0742 44.6211 50.0254 44.8945 49.9473C45.1875 49.8691 45.4902 49.791 45.8027 49.7129C46.1152 49.6152 46.4082 49.5371 46.6816 49.4785C46.9551 49.4004 47.1309 49.3516 47.209 49.332C47.3652 49.293 47.502 49.2344 47.6191 49.1562C47.7363 49.0586 47.8535 48.9707 47.9707 48.8926C48.0879 48.7949 48.2051 48.7168 48.3223 48.6582C48.4395 48.5801 48.5859 48.541 48.7617 48.541C48.8594 48.541 48.9473 48.5508 49.0254 48.5703C49.123 48.5898 49.2012 48.668 49.2598 48.8047H53.8594C53.8789 48.8047 53.9277 48.8145 54.0059 48.834C54.084 48.8535 54.1621 48.8828 54.2402 48.9219C54.3379 48.9414 54.416 48.9707 54.4746 49.0098C54.5332 49.0293 54.582 49.0391 54.6211 49.0391C54.6211 49.0586 54.6309 49.0781 54.6504 49.0977C54.6504 49.1172 54.6504 49.1367 54.6504 49.1562C54.6504 49.1562 54.6504 49.166 54.6504 49.1855C54.6504 49.2051 54.6504 49.2246 54.6504 49.2441C54.6504 49.2441 54.6504 49.2539 54.6504 49.2734C54.6309 49.293 54.6211 49.3125 54.6211 49.332C54.6016 49.3711 54.5625 49.4199 54.5039 49.4785C54.4453 49.5371 54.4062 49.5664 54.3867 49.5664C54.2305 49.5664 53.9668 49.5859 53.5957 49.625C53.2441 49.6445 52.8633 49.6738 52.4531 49.7129C52.043 49.7324 51.6523 49.752 51.2812 49.7715C50.9297 49.791 50.6855 49.8105 50.5488 49.8301C50.1191 49.8887 49.7871 49.9766 49.5527 50.0938C49.3184 50.2109 49.1328 50.4648 48.9961 50.8555C48.7812 51.5781 48.6152 52.252 48.498 52.877C48.3809 53.4824 48.293 54.0781 48.2344 54.6641C48.1953 55.25 48.1758 55.8555 48.1758 56.4805C48.1758 57.1055 48.1758 57.7891 48.1758 58.5312C48.1758 58.6484 48.1758 58.8828 48.1758 59.2344C48.1758 59.5859 48.1758 59.9473 48.1758 60.3184C48.1953 60.709 48.2051 61.0703 48.2051 61.4023C48.2246 61.7344 48.2344 61.9688 48.2344 62.1055C48.2539 62.2227 48.3027 62.4277 48.3809 62.7207C48.459 63.0137 48.5371 63.3164 48.6152 63.6289C48.7129 63.9609 48.791 64.2734 48.8496 64.5664C48.9082 64.8594 48.957 65.0645 48.9961 65.1816C49.0156 65.2207 49.0254 65.3184 49.0254 65.4746C49.0449 65.6504 49.0547 65.7676 49.0547 65.8262C48.7422 65.8262 48.4688 65.709 48.2344 65.4746C48.0195 65.2402 47.834 64.9375 47.6777 64.5664C47.5215 64.1953 47.3945 63.7852 47.2969 63.3359C47.2188 62.8867 47.1504 62.4473 47.0918 62.0176C47.0527 61.5879 47.0234 61.1973 47.0039 60.8457C46.9844 60.4941 46.9746 60.2305 46.9746 60.0547C46.9551 59.8203 46.9355 59.4199 46.916 58.8535C46.916 58.2676 46.916 57.6523 46.916 57.0078C46.916 56.3438 46.916 55.7285 46.916 55.1621C46.9355 54.5762 46.9551 54.166 46.9746 53.9316L46.7109 53.668ZM54.0352 58.3262C54.0352 58.1309 54.084 57.9355 54.1816 57.7402C54.2793 57.5449 54.4551 57.4473 54.709 57.4473C54.9238 57.4473 55.1289 57.5254 55.3242 57.6816C55.5195 57.8379 55.6172 58.0234 55.6172 58.2383C55.6172 58.5117 55.5293 58.7168 55.3535 58.8535C55.1777 58.9707 54.9727 59.0293 54.7383 59.0293C54.4648 59.0293 54.2793 58.9805 54.1816 58.8828C54.084 58.7852 54.0352 58.5996 54.0352 58.3262ZM56.877 54.4004C57.3457 54.9277 57.834 55.416 58.3418 55.8652C58.8496 56.2949 59.3867 56.6758 59.9531 57.0078C60.5195 57.3203 61.1152 57.5645 61.7402 57.7402C62.3848 57.916 63.0586 58.0039 63.7617 58.0039C64.6406 58.0039 65.5195 57.8477 66.3984 57.5352C67.2773 57.2031 68.0684 56.7539 68.7715 56.1875C69.4941 55.6016 70.0801 54.9082 70.5293 54.1074C70.9785 53.3066 71.2031 52.4375 71.2031 51.5C71.2031 50.9727 71.0762 50.5137 70.8223 50.123C70.5684 49.7129 70.2363 49.3711 69.8262 49.0977C69.4355 48.8242 68.9863 48.6191 68.4785 48.4824C67.9902 48.3262 67.502 48.248 67.0137 48.248C66.7598 48.248 66.4375 48.2871 66.0469 48.3652C65.6758 48.4238 65.2754 48.5117 64.8457 48.6289C64.416 48.7266 63.9766 48.8535 63.5273 49.0098C63.0781 49.1465 62.6582 49.3027 62.2676 49.4785C61.877 49.6543 61.5449 49.8398 61.2715 50.0352C60.998 50.2109 60.8027 50.3867 60.6855 50.5625C60.6855 50.6602 60.666 50.8262 60.627 51.0605C60.6074 51.2949 60.5781 51.5586 60.5391 51.8516C60.5195 52.125 60.5 52.3887 60.4805 52.6426C60.4609 52.877 60.4414 53.043 60.4219 53.1406C60.4219 53.2578 60.4023 53.4043 60.3633 53.5801C60.3242 53.7363 60.2754 53.9023 60.2168 54.0781C60.1777 54.2344 60.1094 54.3906 60.0117 54.5469C59.9336 54.7031 59.8262 54.8301 59.6895 54.9277C59.416 54.8105 59.2207 54.625 59.1035 54.3711C58.9863 54.0977 58.9082 53.8047 58.8691 53.4922C58.8496 53.1602 58.8496 52.8379 58.8691 52.5254C58.8887 52.1934 58.8984 51.9199 58.8984 51.7051C58.8984 51.5098 58.8984 51.1875 58.8984 50.7383C58.918 50.2891 58.9375 49.7617 58.957 49.1562C58.9961 48.5508 59.0449 47.8965 59.1035 47.1934C59.1816 46.4707 59.2793 45.7578 59.3965 45.0547C59.5137 44.332 59.6602 43.6484 59.8359 43.0039C60.0117 42.3398 60.2266 41.7539 60.4805 41.2461C60.7344 40.7188 61.0273 40.3086 61.3594 40.0156C61.7109 39.7031 62.1016 39.5469 62.5312 39.5469C63.0391 39.5469 63.4883 39.6641 63.8789 39.8984C64.2891 40.1328 64.6309 40.4355 64.9043 40.8066C65.1973 41.1582 65.4219 41.5684 65.5781 42.0371C65.7539 42.4863 65.8418 42.9453 65.8418 43.4141C65.8418 43.7852 65.7734 44.1465 65.6367 44.498C65.5 44.8301 65.3535 45.1523 65.1973 45.4648C65.0605 45.7773 64.9238 46.0898 64.7871 46.4023C64.6504 46.7148 64.582 47.0371 64.582 47.3691C65.0508 47.3691 65.5781 47.3789 66.1641 47.3984C66.75 47.418 67.3457 47.4668 67.9512 47.5449C68.5566 47.623 69.1426 47.7598 69.709 47.9551C70.2949 48.1309 70.8125 48.3848 71.2617 48.7168C71.7109 49.0293 72.0625 49.4297 72.3164 49.918C72.5898 50.4062 72.7266 51.002 72.7266 51.7051C72.7266 52.4082 72.5996 53.082 72.3457 53.7266C72.0918 54.3516 71.7402 54.9375 71.291 55.4844C70.8613 56.0312 70.3535 56.5195 69.7676 56.9492C69.2012 57.3789 68.5859 57.75 67.9219 58.0625C67.2773 58.375 66.6133 58.6191 65.9297 58.7949C65.2656 58.9512 64.6211 59.0293 63.9961 59.0293C63.6641 59.0293 63.2441 58.9805 62.7363 58.8828C62.248 58.7656 61.7402 58.6191 61.2129 58.4434C60.6855 58.248 60.1582 58.0137 59.6309 57.7402C59.123 57.4473 58.6641 57.1445 58.2539 56.832C57.8438 56.5 57.5117 56.1387 57.2578 55.748C57.0039 55.3574 56.877 54.9473 56.877 54.5176V54.4004ZM62.8828 40.8359C62.6289 40.8359 62.4043 40.9629 62.209 41.2168C62.0137 41.4707 61.8379 41.8027 61.6816 42.2129C61.5449 42.6035 61.4277 43.043 61.3301 43.5312C61.252 44 61.1738 44.4688 61.0957 44.9375C61.0371 45.3867 60.998 45.7969 60.9785 46.168C60.959 46.5391 60.9492 46.8125 60.9492 46.9883C60.9492 47.0469 60.9492 47.1543 60.9492 47.3105C60.9492 47.4473 60.9492 47.5938 60.9492 47.75C60.9492 47.9062 60.9492 48.0625 60.9492 48.2188C60.9492 48.3555 60.9492 48.4531 60.9492 48.5117C61.418 48.1992 61.8672 47.8574 62.2969 47.4863C62.7266 47.1152 63.1074 46.7246 63.4395 46.3145C63.791 45.8848 64.0645 45.4258 64.2598 44.9375C64.4746 44.4297 64.582 43.873 64.582 43.2676C64.582 42.9941 64.5527 42.7109 64.4941 42.418C64.4355 42.125 64.3379 41.8613 64.2012 41.627C64.084 41.3926 63.9082 41.207 63.6738 41.0703C63.459 40.9141 63.1953 40.8359 62.8828 40.8359ZM75.0996 58.3262C75.0996 58.1309 75.1484 57.9355 75.2461 57.7402C75.3438 57.5449 75.5195 57.4473 75.7734 57.4473C75.9883 57.4473 76.1934 57.5254 76.3887 57.6816C76.584 57.8379 76.6816 58.0234 76.6816 58.2383C76.6816 58.5117 76.5938 58.7168 76.418 58.8535C76.2422 58.9707 76.0371 59.0293 75.8027 59.0293C75.5293 59.0293 75.3438 58.9805 75.2461 58.8828C75.1484 58.7852 75.0996 58.5996 75.0996 58.3262Z" fill="white"/>
</svg>
