<svg width="320" height="280" viewBox="0 0 320 280" fill="none" xmlns="http://www.w3.org/2000/svg">
<path d="M56.3423 0.440552C55.0745 1.22379 57.813 5.77621 62.7829 11.1119C65.3186 13.8531 67.7528 16.7902 68.2599 17.7203C69.5277 20.1189 69.3756 23.3986 67.8542 26.0909C67.1442 27.3147 66.6878 28.4406 66.8399 28.5874C67.3471 29.1259 69.3249 28.8811 71.2013 28.1469C73.7369 27.1189 74.8526 27.7552 75.1569 30.4965C75.5119 33.4825 76.729 35.6364 80.1775 39.4545C83.5246 43.2238 84.6403 45.2308 85.2995 48.3636C85.6038 50.028 86.2631 51.007 88.1902 52.7692C91.0301 55.3636 92.3994 57.8601 95.0365 64.9091C97.3186 71.1259 98.5864 73.2797 102.441 77.5874C104.114 79.4476 106.092 82.1888 106.853 83.6084C108.019 85.9091 108.12 86.3986 107.563 88.0629C106.244 92.4196 103.861 92.028 94.4279 86.1049C92.298 84.7832 89.2044 83.2657 87.5816 82.8252C84.8938 82.042 84.4374 81.6993 81.9525 78.5175C79.9239 75.9231 78.3518 74.5524 75.7655 73.0839C73.8384 71.958 69.0713 68.5804 65.1664 65.5455C54.8716 57.5664 50.916 54.8252 46.3011 52.4755C44.019 51.3497 41.6355 49.8322 40.9762 49.049C38.9477 46.7483 34.9414 43.8112 28.6529 40.0909C23.8352 37.2518 21.4517 35.4406 17.2425 31.3287C10.3455 24.5734 8.06339 23.007 5.3756 23.007C3.39778 23.007 0 24.4755 0 25.3077C0 26.3357 2.18067 28.979 3.95563 30.1049C5.0206 30.7413 7.91125 32.1119 10.3962 33.0909C13.9461 34.4615 15.4675 35.3427 17.2932 37.2028C19.7781 39.6993 22.8716 41.6084 26.1173 42.7832C27.3851 43.2238 29.8193 45.035 32.4564 47.5804C35.0428 49.979 38.0349 52.2797 39.9113 53.2587C41.6862 54.1399 43.3598 55.3636 43.664 55.951C45.9968 60.2587 49.9017 63.049 58.523 66.6713L64.1521 69.021L65.0143 71.7622C66.6878 77.1958 69.5785 80.2308 78.859 86.3986C84.9953 90.5105 88.6466 93.986 90.4723 97.4615L91.7908 100.056L90.2694 101.28C89.0016 102.357 88.6466 103.091 88.2916 105.93C87.6323 110.531 87.1252 110.972 83.7274 109.699C79.1125 107.888 76.3233 106.371 67.3471 100.545C58.523 94.7692 51.981 91.3916 48.6846 90.8042L46.9097 90.5105L49.9525 93.2518C51.626 94.7203 54.2124 96.8741 55.6323 97.951C58.2694 99.9091 63.3407 102.259 65.0143 102.308C65.5721 102.308 66.8907 103.727 68.3106 105.783C69.6292 107.79 73.8891 112.392 78.0983 116.455C85.8067 123.895 87.5816 126.196 89.6102 131.58C91.0808 135.448 90.9287 135.594 85.8574 135.594C80.5325 135.594 75.8669 134.566 63.7972 130.797C52.5895 127.224 49.9017 126.538 45.0333 126.049C42.2948 125.755 42.0919 125.804 42.0919 126.783C42.0919 130.259 45.5911 132.462 51.7781 132.951C60.6022 133.587 63.8986 135.105 64.0507 138.531L64.1521 140.245H55.2773C50.4089 140.245 43.0555 140.049 38.9477 139.804L31.4422 139.364V140.441C31.4422 142.203 32.3043 143.28 34.4849 144.112C37.0206 145.091 40.1648 145.091 43.309 144.21C45.4897 143.573 45.8954 143.573 47.8225 144.406C49.9017 145.238 53.9588 146.07 63.8986 147.587C71.0491 148.713 74.8526 150.133 77.6926 152.776C79.0618 154 80.1268 155.273 80.1268 155.566C80.1268 156.399 77.794 157.427 74.4469 158.112C71.3027 158.699 69.477 160.266 69.477 162.273C69.477 163.741 70.3391 164.378 72.9255 164.769C74.0919 164.916 75.309 165.357 75.6133 165.748C76.374 166.629 75.7147 169.028 74.3962 170.203C72.2155 172.161 70.8463 172.455 62.58 172.846C58.0666 173.042 53.9081 173.434 53.2995 173.727C51.2203 174.804 51.4231 178.476 53.8067 181.657C54.6688 182.881 55.1759 183.077 57.2044 183.077C58.523 183.077 61.5151 182.734 63.8986 182.343C68.8178 181.51 70.9477 181.413 71.962 182.049C72.5198 182.392 72.1141 183.126 70.187 185.524C66.6371 189.832 63.3914 194.336 63.3914 194.923C63.3914 195.853 68.0571 194.776 73.0269 192.72C78.7068 190.371 83.0174 189.832 85.6545 191.154C86.5674 191.594 87.2266 192.231 87.0745 192.524C86.9731 192.867 85.0967 194.629 82.916 196.441C75.0048 203.049 67.9556 205.986 56.5959 207.406C53.7052 207.797 53.5531 207.895 51.6767 210.49C49.851 212.937 49.3439 214.65 49.6482 217.196C49.7496 218.077 53.7052 218.958 56.1902 218.615C60.3994 218.077 63.8986 215.972 74.3455 207.65C80.4311 202.853 83.4739 201.434 87.7338 201.434C90.4216 201.434 91.4865 201.678 93.4644 202.804C94.7829 203.538 95.7464 204.371 95.645 204.566C95.4929 204.762 94.2758 205.35 92.9572 205.839C89.813 206.965 88.748 207.895 88.748 209.51C88.748 211.566 91.5373 213.671 97.8764 216.364C105.23 219.448 106.244 220.182 106.193 222.189C106.092 224.245 103.607 229.14 100.209 234.182C96.7607 239.175 95.4422 241.965 95.0365 244.902L94.6815 247.154L96.4564 247.448C98.9414 247.888 102.39 246.86 104.013 245.196C105.534 243.58 106.853 240.105 108.577 232.909C110.098 226.399 111.873 223.462 115.271 221.944C118.77 220.378 120.089 220.427 120.748 222.091C121.762 224.636 120.951 231.294 118.669 238.636C115.423 249.259 115.626 253.517 119.632 257.189C121.103 258.559 121.204 258.559 122.422 257.825C124.552 256.455 126.225 253.028 128 246.126C130.384 237.07 132.209 233.937 136.063 232.566C138.498 231.685 138.954 231.881 138.954 233.741C138.954 236.238 139.968 238.245 142.758 241.329C147.271 246.371 147.626 248.084 146.206 257.336C145.395 262.476 145.395 262.965 146.206 264.58C146.662 265.51 147.677 266.587 148.539 266.979C149.908 267.713 150.01 267.664 150.314 266.636C151.734 261.692 154.117 252.147 155.994 243.825C158.529 232.517 160.203 226.154 160.71 226.154C161.674 226.154 164.463 228.357 165.781 230.07C167.708 232.664 169.128 236.727 170.396 243.531C172.475 254.497 174.504 258.364 179.271 260.469C182.212 261.79 182.922 261.643 183.582 259.636C184.545 256.846 183.937 253.273 181.3 247.007C178.561 240.35 178.155 236.923 179.727 233.594L180.64 231.685L178.51 227.72C176.127 223.217 175.823 221.161 177.344 219.692C178.307 218.762 178.46 218.762 179.93 219.497C182.01 220.524 183.48 222.531 186.574 228.455C188.247 231.636 189.921 234.035 191.189 235.161C193.268 236.972 194.231 237.364 194.231 236.385C194.231 235.259 191.391 229.091 188.856 224.685C186.269 220.28 183.987 213.867 184.697 213.182C185.407 212.448 188.399 213.671 190.428 215.434C192.862 217.587 194.333 220.573 195.55 225.517C196.158 228.21 196.767 229.238 198.542 231.098C201.078 233.692 201.838 235.014 203.867 240.301C206.453 247.056 207.67 248.916 212.792 253.713C215.48 256.161 218.067 259 218.574 259.93C219.03 260.86 220.399 264.483 221.515 268.007C222.681 271.483 224.203 275.203 224.913 276.182C226.485 278.434 229.528 280 232.216 280C234.041 280 234.396 279.804 235.106 278.385C236.323 276.231 236.171 272.755 234.802 270.161C234.143 268.986 231.81 265.902 229.629 263.357C225.217 258.266 223.594 255.476 219.588 246.224C216.342 238.587 214.01 234.427 211.322 231.343C209.597 229.336 209.242 228.503 209.04 226.301L208.786 223.608L204.323 220.182C201.636 218.175 199.303 215.923 198.542 214.699C197.173 212.399 196.919 209.706 197.933 208.336C198.542 207.552 198.796 207.65 201.078 209.608C202.447 210.783 205.743 214.601 208.431 218.077C211.119 221.601 214.212 225.175 215.227 226.056C218.827 229.091 224.355 231.049 229.426 231.049C231.911 231.049 233.838 229.874 235.055 227.622C236.12 225.664 236.019 221.259 234.853 218.077L233.889 215.434L237.236 217.636C240.938 220.084 247.024 222.972 254.631 225.958C259.347 227.769 259.55 227.916 261.984 231.196C266.244 236.972 270.453 239.322 275.068 238.685C277.807 238.294 278.01 237.657 276.336 234.231C274.51 230.51 271.214 228.063 262.491 224C254.174 220.133 250.726 217.685 248.951 214.357C248.139 212.839 247.683 212.497 245.857 212.203C244.64 212.007 242.105 211.273 240.127 210.636C232.926 208.14 220.704 199.231 218.269 194.776C217.61 193.503 217.61 193.357 218.32 193.357C219.639 193.357 222.326 194.629 225.674 196.832C228.209 198.497 229.426 198.937 231.556 199.133C233.078 199.231 234.295 199.182 234.295 199.035C234.295 197.126 230.339 193.259 225.42 190.42C223.493 189.294 221.312 187.874 220.704 187.287C217.509 184.497 216.647 179.601 218.726 175.734C220.298 172.65 222.681 171.573 227.753 171.671C232.926 171.72 238.555 173.189 251.537 177.692C264.773 182.343 264.723 182.294 264.723 181.657C264.723 180.874 260.97 178.378 256.964 176.42C252.907 174.413 249.914 171.965 248.799 169.615L247.937 167.902H243.93C238.504 167.902 235.157 166.678 232.114 163.545C229.68 161 226.941 156.448 227.449 155.664C227.854 155.028 236.425 155.028 242.155 155.713C248.444 156.399 255.391 156.399 258.079 155.664C261.122 154.881 263.708 152.385 263.759 150.231C263.911 145.434 262.998 143.231 260.412 142.154C257.927 141.175 256 141.273 247.632 142.986C234.498 145.678 231.252 144.846 226.029 137.699C224.507 135.545 222.631 133.441 221.921 133C220.247 131.923 220.247 131.042 221.921 127.86C223.696 124.385 226.181 122.671 233.331 119.881C240.533 117.091 242.257 116.112 244.488 113.664L246.162 111.853L244.133 111.706C242.105 111.559 239.823 112.196 229.223 115.769C223.087 117.825 219.436 118.168 217.306 116.797C214.415 114.986 213.553 109.455 215.531 105.538C217.103 102.406 221.16 98.6364 229.122 92.8601C237.135 87.0839 241.141 83.4126 242.865 80.2308C244.032 78.0769 244.488 77.7832 252.197 74.1119C264.824 68.0909 269.794 64.5664 273.242 59.1329C274.206 57.6154 274.307 57.1748 273.8 56.0979C272.989 54.4336 271.873 54.1399 268.374 54.8252C262.593 56 258.941 58.7902 248.444 70C245.857 72.7902 242.409 75.7762 240.076 77.3427C237.845 78.8112 232.571 82.6294 228.26 85.7622C224 88.9441 219.03 92.3217 217.204 93.3007L213.908 95.1119L205.591 95.1608L197.274 95.2098L196.716 93.5455C195.956 91.2937 196.412 87.2308 197.781 84.6853C198.39 83.5594 201.788 79.6923 205.388 76.1189C211.727 69.8042 213.147 67.9441 214.06 64.9091C215.075 61.5315 211.981 56.6364 208.38 55.8531C206.453 55.4126 203.563 56.0979 202.092 57.2727C200.571 58.4965 198.745 63.1469 197.071 70.2448C194.789 79.8881 193.572 82.8741 190.935 85.4196C187.284 88.9441 184.9 88.7483 183.683 84.7343C182.466 80.965 183.125 77.5874 187.436 63.8811C189.617 57.0769 190.073 50.4196 188.602 47.7762L187.791 46.4056L185.204 51.4476C182.669 56.4895 180.945 58.7413 178.561 60.2587C177.496 60.8951 177.344 61.3357 177.445 63.979C177.496 65.5944 177.648 67.7483 177.8 68.8252C178.257 72.1539 177.547 75.3357 175.924 77.0979C173.388 79.8392 170.903 79.5944 169.585 76.5105C169.179 75.4825 168.571 74.1608 168.266 73.5734C167.455 72.007 168.368 69.4615 172.171 62.4126C176.482 54.4336 176.938 52.3287 175.721 45.5245C174.605 38.9161 174.808 37.4476 177.952 31.4266C180.387 26.7273 180.691 25.7972 180.59 23.5944C180.539 22.4196 178.054 21.049 176.076 21.049C174.301 21.049 171.258 29.028 168.368 41.3636C164.615 57.3706 162.789 63.4895 159.949 69.3147C158.073 73.1818 153.914 78.8112 152.951 78.8112C151.886 78.8112 148.691 75.2378 147.626 72.8881C146.206 69.8042 145.547 63.2448 145.902 56.1469C146.206 49.3427 145.496 42.2448 144.076 38.6713C143.113 36.2727 140.273 32.3077 139.461 32.3077C139.258 32.3077 138.498 33.3357 137.838 34.6084C136.672 36.958 136.672 37.1049 136.672 54.3357C136.672 71.1259 136.621 71.8112 135.506 74.9441C134.897 76.7063 133.731 78.8112 132.97 79.6923L131.601 81.2587L128.456 80.1329C121.559 77.7343 117.959 73.9161 112.33 62.7552C109.185 56.6853 108.323 55.3147 107.461 55.3147C106.853 55.3147 105.027 54.7273 103.404 54.042C100.716 52.8671 100.26 52.4266 98.5864 49.4895C95.6957 44.3986 91.7401 39.6014 83.7274 31.6224C72.0634 19.972 66.9414 13.8042 66.1807 10.5245C64.5071 3.27972 62.2758 0 58.9794 0C57.9144 0 56.748 0.195801 56.3423 0.440552Z" fill="white"/>
<path d="M293.832 33.1892C289.166 34.7556 284.349 38.9165 280.748 44.4479C279.987 45.6227 279.43 46.6507 279.531 46.7486C279.886 47.0913 287.797 42.9304 290.84 40.8745C294.035 38.6717 299.208 33.7276 299.208 32.8465C299.208 32.0633 296.773 32.2102 293.832 33.1892Z" fill="white"/>
<path d="M27.3851 73.427C26.7258 73.5738 25.7115 74.406 25.2044 75.2871C24.038 77.1962 24.0887 77.3431 29.3122 81.3571C32.9635 84.1473 40.5705 88.1123 42.244 88.1123C43.309 88.1123 34.8399 77.0983 32.1014 74.9445C30.0222 73.2801 29.16 72.9864 27.3851 73.427Z" fill="white"/>
<path d="M274.967 95.7485C272.076 97.1192 270.301 99.1262 270.149 101.182L270.047 102.553L273.344 102.406C278.872 102.112 281.813 100.35 282.675 96.8255C283.284 94.2311 279.277 93.6436 274.967 95.7485Z" fill="white"/>
<path d="M34.2315 201.531C32.4058 201.972 27.3852 204.273 27.3852 204.664C27.3852 205.741 28.653 207.552 29.6166 207.895C32.4565 208.776 36.3614 207.21 38.0857 204.42C39.6071 201.972 39.4042 201.189 37.1728 201.238C36.1079 201.287 34.7893 201.385 34.2315 201.531Z" fill="white"/>
<path d="M254.327 212.301C257.167 217.441 259.398 220.084 261.934 221.504C264.875 223.168 266.498 222.875 267.563 220.525C267.968 219.595 268.273 218.077 268.273 217.147C268.273 215.63 268.019 215.287 266.396 214.504C265.331 213.966 262.897 213.084 260.919 212.448C258.992 211.812 256.254 210.784 254.884 210.147L252.45 208.973L254.327 212.301Z" fill="white"/>
<path d="M287.29 248.329C288.152 250.972 290.434 252.832 296.571 255.769C303.569 259.147 303.873 259.343 307.93 264.336C311.531 268.741 313.306 269.916 316.044 269.818C319.138 269.671 320 269.035 320 266.685C320 264.091 317.769 261.986 313.306 260.42C308.792 258.804 304.583 256.748 300.475 254.056C295.759 251.021 291.854 248.867 289.166 247.986C286.986 247.252 286.986 247.252 287.29 248.329Z" fill="white"/>
<path d="M81.1411 254.055C79.7718 255.377 79.1125 257.139 79.1125 259.44C79.1125 261.104 79.3154 261.349 80.7354 261.839C81.5975 262.132 83.4232 263.062 84.7924 263.895C87.4295 265.559 88.2409 265.51 89.5087 263.65C90.8273 261.741 91.0301 258.853 90.0159 256.846C88.3423 253.419 83.3725 251.902 81.1411 254.055Z" fill="white"/>
<path d="M129.912 150.789C126.223 153.718 122.561 156.458 118.926 159.008C115.291 161.558 111.385 163.81 107.207 165.763C106.773 165.654 106.366 165.627 105.986 165.681C105.607 165.736 105.227 165.817 104.847 165.926C104.521 166.088 104.142 166.224 103.708 166.333C103.328 166.441 102.948 166.495 102.568 166.495C101.483 166.495 100.425 166.278 99.3945 165.844C98.4179 165.41 97.5499 164.841 96.7903 164.135C96.0308 163.376 95.434 162.508 94.9999 161.531C94.5659 160.554 94.3489 159.524 94.3489 158.439C94.3489 155.183 95.0271 152.037 96.3834 148.998C97.794 145.906 99.503 142.976 101.51 140.209C103.572 137.388 105.824 134.73 108.265 132.234C110.706 129.684 112.958 127.351 115.02 125.235L112.822 123.77L113.555 123.119C114.748 123.174 115.833 123.065 116.81 122.794C117.787 122.468 118.709 122.116 119.577 121.736C120.445 121.356 121.313 121.003 122.181 120.678C123.103 120.352 124.107 120.19 125.192 120.19C125.518 120.19 125.843 120.19 126.169 120.19C126.494 120.19 126.766 120.244 126.983 120.352C127.254 120.407 127.444 120.542 127.552 120.759C127.715 120.976 127.796 121.275 127.796 121.654C127.796 121.817 127.362 122.224 126.494 122.875C125.626 123.472 124.46 124.286 122.995 125.317C121.584 126.293 119.957 127.46 118.112 128.816C116.267 130.172 114.369 131.691 112.415 133.373C110.517 135.055 108.645 136.873 106.8 138.826C105.01 140.725 103.382 142.732 101.917 144.848C100.452 146.91 99.286 149.08 98.4179 151.358C97.5499 153.637 97.1158 155.943 97.1158 158.276C97.1158 159.198 97.3057 159.958 97.6855 160.554C98.0653 161.097 98.5264 161.558 99.069 161.938C99.6658 162.318 100.317 162.589 101.022 162.752C101.782 162.86 102.514 162.915 103.219 162.915C105.607 162.915 108.102 162.291 110.706 161.043C113.311 159.795 115.833 158.276 118.275 156.485C120.716 154.695 122.995 152.769 125.111 150.707C127.281 148.646 129.126 146.774 130.645 145.092C130.97 144.767 131.16 144.441 131.214 144.116C131.323 143.79 131.377 143.41 131.377 142.976C131.377 142.868 131.35 142.732 131.296 142.569C131.296 142.407 131.296 142.325 131.296 142.325C129.668 142.651 128.149 143.03 126.738 143.465C125.328 143.844 123.917 144.278 122.507 144.767C121.15 145.201 119.794 145.689 118.438 146.231C117.136 146.72 115.752 147.289 114.287 147.94C114.233 147.94 114.179 147.94 114.124 147.94C114.124 147.995 114.043 148.022 113.88 148.022C113.446 148.022 113.148 147.859 112.985 147.534C112.822 147.208 112.741 146.882 112.741 146.557C112.741 145.96 113.175 145.363 114.043 144.767C114.965 144.116 116.023 143.546 117.217 143.058C118.41 142.515 119.604 142.054 120.798 141.674C121.991 141.294 122.886 141.023 123.483 140.86C123.646 140.806 124.107 140.67 124.867 140.453C125.681 140.236 126.521 140.019 127.39 139.802C128.258 139.531 129.071 139.314 129.831 139.151C130.59 138.934 131.079 138.799 131.296 138.744C131.73 138.636 132.11 138.473 132.435 138.256C132.761 137.985 133.086 137.741 133.412 137.524C133.737 137.252 134.063 137.035 134.388 136.873C134.714 136.656 135.121 136.547 135.609 136.547C135.88 136.547 136.124 136.574 136.341 136.629C136.613 136.683 136.83 136.9 136.992 137.28H149.769C149.824 137.28 149.959 137.307 150.176 137.361C150.393 137.415 150.61 137.497 150.827 137.605C151.098 137.659 151.315 137.741 151.478 137.849C151.641 137.903 151.777 137.931 151.885 137.931C151.885 137.985 151.912 138.039 151.967 138.093C151.967 138.148 151.967 138.202 151.967 138.256C151.967 138.256 151.967 138.283 151.967 138.338C151.967 138.392 151.967 138.446 151.967 138.5C151.967 138.5 151.967 138.527 151.967 138.582C151.912 138.636 151.885 138.69 151.885 138.744C151.831 138.853 151.722 138.989 151.56 139.151C151.397 139.314 151.288 139.395 151.234 139.395C150.8 139.395 150.068 139.45 149.037 139.558C148.06 139.612 147.002 139.694 145.863 139.802C144.724 139.857 143.639 139.911 142.608 139.965C141.631 140.019 140.953 140.074 140.573 140.128C139.38 140.291 138.457 140.535 137.806 140.86C137.155 141.186 136.64 141.891 136.26 142.976C135.663 144.984 135.202 146.855 134.877 148.591C134.551 150.273 134.307 151.928 134.144 153.556C134.036 155.183 133.981 156.865 133.981 158.601C133.981 160.337 133.981 162.236 133.981 164.298C133.981 164.624 133.981 165.275 133.981 166.251C133.981 167.228 133.981 168.231 133.981 169.262C134.036 170.347 134.063 171.351 134.063 172.273C134.117 173.196 134.144 173.847 134.144 174.226C134.198 174.552 134.334 175.122 134.551 175.935C134.768 176.749 134.985 177.59 135.202 178.458C135.473 179.381 135.69 180.249 135.853 181.062C136.016 181.876 136.152 182.446 136.26 182.771C136.314 182.88 136.341 183.151 136.341 183.585C136.396 184.074 136.423 184.399 136.423 184.562C135.555 184.562 134.795 184.236 134.144 183.585C133.547 182.934 133.032 182.093 132.598 181.062C132.164 180.032 131.811 178.892 131.54 177.644C131.323 176.397 131.133 175.176 130.97 173.982C130.862 172.789 130.78 171.704 130.726 170.727C130.672 169.751 130.645 169.018 130.645 168.53C130.59 167.879 130.536 166.767 130.482 165.193C130.482 163.566 130.482 161.857 130.482 160.066C130.482 158.222 130.482 156.513 130.482 154.939C130.536 153.312 130.59 152.172 130.645 151.521L129.912 150.789ZM150.258 163.728C150.258 163.186 150.393 162.643 150.664 162.101C150.936 161.558 151.424 161.287 152.129 161.287C152.726 161.287 153.296 161.504 153.838 161.938C154.381 162.372 154.652 162.887 154.652 163.484C154.652 164.244 154.408 164.813 153.92 165.193C153.431 165.519 152.862 165.681 152.211 165.681C151.451 165.681 150.936 165.546 150.664 165.275C150.393 165.003 150.258 164.488 150.258 163.728ZM158.151 152.823C159.454 154.288 160.81 155.645 162.221 156.892C163.631 158.086 165.123 159.144 166.696 160.066C168.27 160.934 169.925 161.612 171.661 162.101C173.451 162.589 175.323 162.833 177.276 162.833C179.717 162.833 182.159 162.399 184.6 161.531C187.042 160.609 189.239 159.361 191.192 157.788C193.2 156.16 194.827 154.234 196.075 152.009C197.323 149.785 197.947 147.371 197.947 144.767C197.947 143.302 197.594 142.027 196.889 140.942C196.183 139.802 195.261 138.853 194.122 138.093C193.037 137.334 191.789 136.764 190.378 136.384C189.022 135.95 187.666 135.733 186.309 135.733C185.604 135.733 184.709 135.842 183.624 136.059C182.593 136.222 181.481 136.466 180.287 136.791C179.093 137.063 177.873 137.415 176.625 137.849C175.377 138.229 174.211 138.663 173.126 139.151C172.04 139.64 171.118 140.155 170.359 140.698C169.599 141.186 169.057 141.674 168.731 142.162C168.731 142.434 168.677 142.895 168.568 143.546C168.514 144.197 168.433 144.929 168.324 145.743C168.27 146.503 168.216 147.235 168.161 147.94C168.107 148.591 168.053 149.053 167.999 149.324C167.999 149.649 167.944 150.056 167.836 150.545C167.727 150.979 167.592 151.44 167.429 151.928C167.32 152.362 167.131 152.796 166.859 153.23C166.642 153.664 166.344 154.017 165.964 154.288C165.204 153.963 164.662 153.447 164.336 152.742C164.011 151.982 163.794 151.169 163.685 150.3C163.631 149.378 163.631 148.483 163.685 147.615C163.74 146.693 163.767 145.933 163.767 145.336C163.767 144.794 163.767 143.899 163.767 142.651C163.821 141.403 163.875 139.938 163.93 138.256C164.038 136.574 164.174 134.757 164.336 132.804C164.553 130.796 164.825 128.816 165.15 126.863C165.476 124.855 165.883 122.957 166.371 121.166C166.859 119.322 167.456 117.694 168.161 116.283C168.867 114.818 169.68 113.679 170.603 112.865C171.579 111.997 172.664 111.563 173.858 111.563C175.269 111.563 176.516 111.889 177.602 112.54C178.741 113.191 179.69 114.032 180.45 115.063C181.264 116.039 181.888 117.178 182.322 118.481C182.81 119.728 183.054 121.003 183.054 122.305C183.054 123.336 182.864 124.34 182.484 125.317C182.105 126.239 181.698 127.134 181.264 128.002C180.884 128.87 180.504 129.738 180.124 130.606C179.745 131.474 179.555 132.37 179.555 133.292C180.857 133.292 182.322 133.319 183.949 133.373C185.577 133.428 187.232 133.563 188.913 133.78C190.595 133.997 192.223 134.377 193.796 134.92C195.424 135.408 196.862 136.113 198.109 137.035C199.357 137.903 200.334 139.016 201.039 140.372C201.799 141.728 202.179 143.383 202.179 145.336C202.179 147.289 201.826 149.161 201.121 150.952C200.415 152.688 199.439 154.315 198.191 155.834C196.997 157.354 195.587 158.71 193.959 159.903C192.386 161.097 190.677 162.128 188.832 162.996C187.042 163.864 185.197 164.542 183.298 165.03C181.454 165.464 179.663 165.681 177.927 165.681C177.005 165.681 175.838 165.546 174.428 165.275C173.071 164.949 171.661 164.542 170.196 164.054C168.731 163.511 167.266 162.86 165.801 162.101C164.391 161.287 163.116 160.446 161.976 159.578C160.837 158.656 159.915 157.652 159.209 156.567C158.504 155.482 158.151 154.342 158.151 153.149V152.823ZM174.835 115.144C174.129 115.144 173.505 115.497 172.963 116.202C172.42 116.907 171.932 117.83 171.498 118.969C171.118 120.054 170.793 121.275 170.521 122.631C170.304 123.933 170.087 125.235 169.87 126.537C169.708 127.785 169.599 128.924 169.545 129.955C169.491 130.986 169.463 131.746 169.463 132.234C169.463 132.397 169.463 132.695 169.463 133.129C169.463 133.509 169.463 133.916 169.463 134.35C169.463 134.784 169.463 135.218 169.463 135.652C169.463 136.032 169.463 136.303 169.463 136.466C170.766 135.598 172.013 134.648 173.207 133.617C174.401 132.587 175.458 131.502 176.381 130.362C177.357 129.169 178.117 127.894 178.659 126.537C179.256 125.127 179.555 123.58 179.555 121.899C179.555 121.139 179.473 120.352 179.311 119.539C179.148 118.725 178.876 117.992 178.497 117.341C178.171 116.69 177.683 116.175 177.032 115.795C176.435 115.361 175.703 115.144 174.835 115.144ZM208.77 163.728C208.77 163.186 208.906 162.643 209.177 162.101C209.449 161.558 209.937 161.287 210.642 161.287C211.239 161.287 211.809 161.504 212.351 161.938C212.894 162.372 213.165 162.887 213.165 163.484C213.165 164.244 212.921 164.813 212.433 165.193C211.944 165.519 211.375 165.681 210.724 165.681C209.964 165.681 209.449 165.546 209.177 165.275C208.906 165.003 208.77 164.488 208.77 163.728Z" fill="#131313"/>
</svg>
