<svg width="1600" height="300" viewBox="0 0 1600 300" fill="none" xmlns="http://www.w3.org/2000/svg">
<path d="M1.00125 108L2.54285 191.708C2.79876 205.604 14.1367 216.735 28.035 216.735C53.0663 216.735 53.0663 216 53.0663 155.02C53.0663 112.408 57.0713 91.8367 65.0814 90.3673C72.0901 88.1632 96.1202 97.7142 118.148 111.673L159.199 135.918L156.195 212.327C153.191 276.98 156.195 289.469 170.213 296.082C182.228 301.959 191.239 301.224 203.254 293.878C216.27 285.796 218.273 274.776 212.265 224.082C205.257 160.163 219.274 95.5102 242.303 81.551C267.334 66.1224 293.367 99.9183 294.368 149.878C296.37 211.592 296.37 213.061 312.391 213.061C332.416 213.061 338.423 196.163 331.414 154.286C327.409 129.306 329.412 117.551 337.422 117.551C343.429 117.551 348.436 127.102 348.436 139.592C348.436 154.286 353.442 161.633 363.454 161.633C377.472 161.633 379.474 156.49 382.478 104.326C383.479 97.7142 396.496 87.4285 411.514 81.551C451.564 66.8571 463.579 79.3469 463.579 137.388C463.579 174.122 467.585 187.347 480.601 193.224C510.638 207.184 528.661 187.347 528.661 138.857C528.661 104.327 532.666 94.7755 547.685 88.1632C573.717 78.6122 580.726 87.4285 577.722 128.571C574.718 165.306 586.733 179.265 611.765 171.918C624.781 168.245 628.786 156.49 630.789 121.959C631.79 83.0204 632.791 81.551 635.795 110.204C638.799 127.837 644.806 145.469 650.814 147.673C669.837 156.49 688.861 146.204 688.861 127.837C688.861 118.286 692.866 110.204 698.874 110.204C703.88 110.204 714.894 100.653 723.905 88.1632C756.946 40.4081 782.979 74.9388 783.98 168.245C783.98 225.551 786.984 238.775 802.003 245.388C814.018 251.265 824.03 251.265 836.045 245.388C851.064 238.775 854.068 225.551 854.068 168.245C855.069 121.959 860.075 92.5714 870.088 78.6122L885.106 57.3061L915.144 85.2245C931.164 100.653 946.183 120.49 949.187 128.571C952.19 136.653 965.207 144 977.222 145.469C997.247 147.673 999.249 144.735 1000.25 112.408C1000.25 86.6938 1003.25 80.8163 1009.26 91.8367C1013.27 99.9183 1015.27 119.755 1012.27 136.653C1008.26 160.898 1010.26 167.51 1024.28 171.918C1053.32 180 1068.34 164.571 1062.33 132.245C1054.32 91.8367 1063.33 77.8775 1089.36 88.1632C1106.38 94.7755 1109.39 103.592 1109.39 138.857C1109.39 187.347 1127.41 207.184 1157.45 193.224C1170.46 187.347 1174.47 174.122 1174.47 138.857C1174.47 86.6938 1181.48 73.4693 1208.51 73.4693C1230.54 73.4693 1259.57 113.878 1259.57 143.265C1259.57 168.98 1283.6 163.837 1287.61 137.388C1293.62 102.857 1311.64 115.347 1309.64 152.082C1305.63 204.245 1308.64 213.061 1324.66 213.061C1339.67 213.061 1342.68 203.51 1340.68 150.612C1338.67 121.224 1369.71 73.4693 1388.74 73.4693C1411.76 73.4693 1431.79 147.673 1428.79 218.204C1425.78 277.714 1427.78 289.469 1441.8 296.082C1453.82 301.959 1462.83 301.224 1474.84 293.878C1487.86 285.796 1489.86 274.041 1483.85 213.061L1476.85 141.796L1514.89 116.816C1575.97 75.6734 1585.98 81.551 1580.98 151.347C1578.97 189.551 1581.98 213.061 1588.99 216C1597 219.673 1600 189.551 1600 110.939V-6.10352e-05H800H0L1.00125 108Z" fill="#E9E9E9"/>
</svg>
