<svg width="160" height="165" viewBox="0 0 160 165" fill="none" xmlns="http://www.w3.org/2000/svg">
<path d="M85.3236 0.721481C84.3934 1.39134 84.445 1.44287 86.2538 1.44287C88.1659 1.44287 89.7163 2.21578 89.7163 3.19482C89.7163 3.50398 89.3029 3.55551 88.8378 3.3494C87.4941 2.78259 85.1686 2.9887 83.4631 3.86468C81.396 4.94675 81.551 5.87426 83.6699 4.89523L85.3236 4.07079L84.0316 5.10134C83.3081 5.66814 82.5846 6.18343 82.4296 6.18343C81.6544 6.18343 80.5174 9.73884 80.2074 12.9851C79.949 15.5615 80.0523 16.9527 80.6725 18.344C81.6544 20.7143 81.6544 22.054 80.6725 24.3727C79.7939 26.5369 79.6906 30.2984 80.4658 35.039C80.7241 36.894 81.0859 39.2127 81.2926 40.2433C81.4477 41.4799 81.1893 43.438 80.4141 45.8083L79.2771 49.4668L80.3624 51.3218C80.9825 52.3008 81.4477 53.5374 81.4477 54.0527C81.4477 54.5165 81.9128 55.444 82.5329 56.1138C83.1531 56.7322 83.8249 58.0719 84.0833 59.0509C84.3934 60.0299 84.8585 60.8029 85.1169 60.8029C85.427 60.8029 85.5303 60.3906 85.3753 59.8754C84.7034 57.3505 84.445 55.444 84.9618 55.9077C85.2719 56.1654 85.737 58.1234 86.0471 60.2361C86.3572 62.2972 86.9773 64.6159 87.3908 65.3888C88.1143 66.7286 88.1143 66.7286 88.1659 64.3583C88.1659 63.0186 87.8042 61.009 87.3908 59.8238C86.9773 58.6902 86.7706 57.7112 86.9256 57.7112C87.5458 57.7112 88.5794 61.3181 88.8895 64.4098C89.4062 69.6141 89.6646 70.5931 90.5432 70.2324C91.06 70.0263 91.2667 68.9958 91.2667 66.2133C91.2667 64.1522 91.6285 61.4727 92.0419 60.2361C92.9721 57.7112 93.2822 48.3847 92.6104 44.9838C92.352 43.5926 92.352 42.562 92.7137 42.1498C92.9721 41.7891 93.3339 40.3979 93.4889 39.0581C93.6439 37.7184 94.1607 35.0905 94.6775 33.184C95.1426 31.2259 95.401 28.9587 95.1943 27.8766C94.9876 26.6399 95.3494 24.3727 96.2279 21.1265C97.4165 16.9012 97.5199 15.613 97.2615 11.8515C96.848 6.28648 96.7447 5.7712 96.0212 5.04981C95.6594 4.68912 95.401 4.22537 95.401 3.9162C95.401 3.19482 92.8171 9.15527e-05 92.1969 9.15527e-05C91.9385 9.15527e-05 91.7835 0.360786 91.9902 0.77301C92.2486 1.4944 92.0936 1.4944 90.7499 0.77301C88.8895 -0.206017 86.6156 -0.206017 85.3236 0.721481Z" fill="#131313"/>
<path d="M124.6 16.0766C124.031 16.3858 122.584 17.6224 121.447 18.8076C119.639 20.6111 119.173 21.5901 118.45 24.6302C117.985 26.6398 117.623 29.4223 117.623 30.762C117.571 32.1017 117.158 34.5236 116.589 36.0694C115.918 37.9244 115.556 40.3462 115.556 43.0256C115.556 45.2929 115.297 48.0754 114.936 49.209C114.626 50.3426 114.367 51.9915 114.367 52.8674C114.316 54.2072 114.057 54.5679 112.765 55.0831C111.887 55.3923 110.595 56.4229 109.975 57.4019C108.889 58.9992 108.786 59.5661 109.096 61.9363C109.303 63.4306 109.819 65.0795 110.233 65.5433C110.956 66.3677 110.956 66.4708 110.285 66.7284C109.716 66.9345 109.354 68.1712 109.148 70.7476C108.941 72.8087 108.683 75.2305 108.476 76.1065C108.321 77.1886 108.424 77.8069 108.786 77.8069C109.096 77.8069 109.354 77.3947 109.354 76.8794C109.354 75.9519 112.093 71.5205 114.316 68.9441C115.297 67.7074 115.556 67.6044 115.556 68.3773C115.608 69.2533 115.659 69.2533 116.331 68.3258C116.745 67.759 117.106 66.9861 117.106 66.5738C117.106 66.1616 117.881 64.9249 118.863 63.8429C120.259 62.194 120.672 61.2149 120.982 58.587C121.241 56.0106 121.706 54.9286 123.204 52.9705C124.238 51.5792 125.22 50.4972 125.375 50.4972C125.84 50.4972 127.442 46.9933 127.442 45.9627C127.39 45.3444 126.977 45.602 125.84 46.8902L124.29 48.6937L126.305 44.3138C127.39 41.892 128.476 39.2126 128.682 38.3881C128.889 37.5122 129.613 35.9663 130.336 34.9358C131.008 33.8537 131.576 32.3079 131.576 31.4834C131.576 30.6074 132.042 28.7524 132.61 27.3097C134.264 23.1359 133.902 19.4774 131.576 17.0041C130.388 15.7159 129.716 15.4583 127.856 15.4583C126.667 15.4583 125.168 15.7674 124.6 16.0766Z" fill="#131313"/>
<path d="M39.1224 18.1893C35.7116 19.8897 34.4713 25.5578 36.2284 31.0197C37.417 34.6782 40.4661 39.6764 41.5514 39.7279C43.3084 39.831 44.5487 39.5733 46.5126 38.6458C47.6495 38.079 48.6831 37.7183 48.7864 37.8729C48.8898 37.976 47.6495 38.7489 45.9958 39.5218C41.9131 41.4798 41.2413 43.0772 43.6185 45.499C44.7555 46.6326 45.634 48.333 46.2542 50.5487C47.081 53.4858 47.3911 53.9496 49.1999 54.8771C50.9053 55.8046 51.2154 56.1653 51.0603 57.4019C50.9053 58.9993 51.7321 60.339 52.6624 59.9783C53.0241 59.8753 53.5926 60.3905 53.9544 61.1635C54.3161 61.9879 55.0396 63.173 55.6598 63.8429C56.5383 64.8735 56.8484 64.9765 57.8303 64.5128C58.4504 64.2036 59.4323 63.8944 60.0008 63.7914C61.2928 63.5853 61.5512 61.9364 60.5176 60.5451C59.7941 59.6691 59.5874 59.6176 58.5538 60.236L57.4169 60.9573L58.5538 59.6691C60.1042 58.0718 60.0525 57.608 58.2437 54.4133C57.1068 52.4553 56.5383 50.6003 56.1249 47.1479C55.3497 40.9646 55.143 40.0886 54.5745 40.4493C54.3678 40.6039 53.7476 39.3672 53.2825 37.7698C52.8174 36.121 52.1973 34.5236 51.9389 34.2144C51.6805 33.8537 50.957 31.8957 50.3885 29.8346C49.2515 25.6093 48.218 23.136 46.6676 20.9718C45.789 19.6836 45.3756 19.529 43.5152 19.6836C42.3782 19.8382 40.9312 20.0958 40.3627 20.3535L39.3291 20.7657L40.3627 19.9412C40.9312 19.4775 41.9131 19.0653 42.5333 19.0653C44.1353 19.0653 45.3239 18.4985 44.9622 17.9832C44.5487 17.3133 40.5694 17.4164 39.1224 18.1893Z" fill="#131313"/>
<path d="M154.109 48.2815C153.23 48.5391 153.282 48.6937 154.625 49.8273L156.124 51.1155L154.729 50.2911C151.886 48.6422 149.561 49.5182 145.788 53.6919C142.998 56.7321 140.879 60.8027 140.879 63.1215C140.827 65.904 139.535 68.3773 136.331 71.9843C134.625 73.8908 132.352 76.9309 131.318 78.7344C130.284 80.5379 128.734 82.7536 127.907 83.6811C127.08 84.6601 126.409 85.6907 126.409 85.9998C126.409 86.8243 130.388 84.7116 131.008 83.5265C131.783 82.1868 134.884 81.8776 135.917 83.0627C136.434 83.6296 136.486 84.0933 136.176 84.2994C135.866 84.454 136.021 84.8662 136.589 85.2784C137.261 85.7422 137.726 85.7937 138.14 85.433C139.018 84.7632 139.018 83.475 138.191 83.475C137.003 83.475 139.638 82.0322 141.137 81.8261C142.791 81.6715 143.359 80.8471 145.013 76.2096C145.788 74.0969 146.977 72.345 149.457 69.7686C153.075 66.0071 156.899 60.6482 156.899 59.36C156.899 58.7416 156.744 58.7416 156.124 59.5661C155.711 60.0814 155.349 60.2875 155.349 59.9268C155.349 59.6176 155.814 58.9993 156.434 58.5871C157.519 57.8141 159.948 52.5068 160 50.8579C160 48.6937 157.261 47.5086 154.109 48.2815Z" fill="#131313"/>
<path d="M58.9155 65.1827C57.9853 65.8526 57.9853 65.9556 58.8122 67.3469C59.2773 68.1198 60.2075 69.1503 60.8277 69.5626C61.9646 70.284 62.0163 70.284 61.5512 69.3049C61.3445 68.7381 61.0344 67.5015 60.8793 66.574C60.6209 64.5128 60.2075 64.2552 58.9155 65.1827Z" fill="#131313"/>
<path d="M62.6881 70.4385C62.4814 70.593 62.5848 71.0568 62.8948 71.469C63.3599 71.9843 63.3083 72.1389 62.8948 72.1389C61.9646 72.1389 62.4297 74.4576 63.3599 74.5091C65.7889 74.6637 65.9439 74.7668 65.9439 76.0035C65.9439 76.6733 65.2721 78.013 64.4969 78.9405C62.8948 80.7955 60.2592 85.7937 60.2592 87.0304C60.2592 87.4426 59.7424 88.3186 59.1222 89.04L57.9336 90.2251L59.3806 89.7098C60.2075 89.4007 60.931 89.143 60.9827 89.143C61.0861 89.143 60.7243 90.3797 60.2075 91.8225C58.9672 95.4294 58.9672 98.0058 60.2075 99.1394C60.9827 99.8608 61.1894 100.943 61.3961 105.014C61.5512 109.754 61.6545 110.166 63.3599 112.485C64.6002 114.237 65.5821 115.062 66.9258 115.371C69.5098 116.041 74.8844 116.041 76.5898 115.422C77.365 115.113 78.7603 114.855 79.7422 114.804C81.0859 114.752 81.9644 114.237 83.6182 112.434C84.9102 111.042 86.4605 109.96 87.5975 109.651C88.8378 109.342 90.4915 108.105 92.4036 106.096C94.0574 104.395 95.1426 103.159 94.8842 103.313C94.4191 103.622 94.6775 100.994 95.401 98.0058C95.6594 97.0268 95.6594 96.3569 95.3493 96.3569C95.0909 96.3569 94.8842 96.7176 94.8842 97.1298C94.8842 97.5421 94.6775 97.9028 94.3674 97.9028C94.109 97.9028 93.8506 97.5936 93.8506 97.1814C93.8506 96.8207 93.6956 95.7901 93.5406 94.9141C93.2822 93.626 93.4889 93.1107 95.0909 91.7194C96.1245 90.7919 96.9514 89.6068 96.9514 89.143C96.9514 88.6793 97.4165 87.7518 97.985 87.0819C98.5535 86.4636 98.8635 85.6907 98.7085 85.4846C98.5535 85.2269 99.2253 85.0208 100.156 85.0723C101.706 85.0723 101.758 85.1239 100.879 85.6907C98.3984 87.185 97.3648 88.6278 97.7266 90.1221C97.9333 91.1526 97.7783 91.771 97.1581 92.2862C96.3312 92.9561 96.3312 92.9046 96.848 91.874C97.7266 90.3282 97.6232 89.7614 96.693 90.998C95.5044 92.5439 95.7111 94.9657 97.2098 96.3569C97.9333 97.0268 98.5018 98.0573 98.5018 98.6242C98.5018 99.2425 97.9333 100.582 97.2098 101.613C96.2279 103.056 95.9178 104.189 95.9178 106.25C95.9178 109.239 95.6077 109.909 94.2641 110.424C92.4036 111.094 91.215 113.928 91.4217 116.968C91.5251 118.514 91.7318 120.266 91.8868 120.833C92.0419 121.399 92.0419 121.554 91.9385 121.193C91.7835 120.884 91.5251 120.575 91.2667 120.575C91.0083 120.575 90.5949 119.957 90.2848 119.132C89.8197 117.999 89.768 118.256 90.0264 120.575C90.2331 122.121 90.5432 123.461 90.8016 123.564C91.06 123.667 91.2667 124.491 91.2667 125.367C91.3184 126.861 91.37 126.913 91.9902 126.088C92.9204 124.852 93.2822 124.955 95.9178 127.274C98.14 129.232 98.1917 129.335 97.2615 130.314C96.2796 131.396 96.538 132.426 97.8299 132.426C98.5018 132.426 98.6051 132.89 98.3467 135.106C97.985 138.97 97.1064 140.568 95.5561 140.465C94.4708 140.413 94.3158 140.207 94.5225 139.022C94.8326 136.6 93.799 137.425 93.0755 140.156C92.6103 141.804 92.1969 142.062 90.9566 141.495C89.3029 140.722 89.4062 140.052 91.4217 139.125C93.3339 138.249 94.0574 136.033 92.4553 136.033C91.8868 136.033 91.2667 135.415 90.9049 134.487C90.5949 133.612 90.0781 132.942 89.768 132.942C89.0962 132.942 87.9592 135.415 88.1143 136.549C88.2176 137.218 88.1659 137.218 87.7008 136.549C87.2357 135.879 87.1324 135.879 87.1324 136.6C87.1324 137.064 87.4424 137.734 87.8559 138.043C88.9928 138.97 88.1659 141.856 86.6156 142.268C83.7732 143.041 82.998 142.835 82.998 141.238C82.998 140.413 83.3081 139.64 83.6182 139.537C84.0833 139.383 83.7215 138.61 82.5846 137.373C81.706 136.342 80.9309 135.106 80.9309 134.591C80.9309 133.148 78.2435 125.573 77.1066 123.821C76.2797 122.585 75.6079 122.121 74.471 122.069C72.9723 122.018 72.9206 122.018 74.2126 121.606C75.2461 121.245 75.0394 121.193 73.0239 121.142C69.5098 121.09 66.8224 122.533 65.4788 125.367C64.3418 127.737 64.0834 129.335 64.8586 129.335C65.117 129.335 65.4788 128.922 65.6338 128.407C65.8405 127.892 66.6157 126.81 67.4943 125.985L68.993 124.543L72.5072 126.655C75.7629 128.613 79.3805 131.55 79.3805 132.169C79.3805 132.323 78.0885 131.396 76.5381 130.108C74.9361 128.819 72.5588 127.222 71.2152 126.552L68.7346 125.316L67.856 126.398C67.3392 127.016 66.4607 128.15 65.8922 128.922C64.5486 130.726 63.8767 130.777 63.8767 129.026C63.8767 128.253 63.67 127.84 63.3083 128.047C62.9982 128.253 62.8948 128.768 63.0499 129.18C63.515 130.314 62.8948 131.035 62.0163 130.314C61.6028 129.953 61.3961 129.283 61.6028 128.51C61.8096 127.737 61.7062 127.274 61.3444 127.274C61.0344 127.274 60.776 127.634 60.776 128.047C60.776 128.459 60.5693 128.819 60.3109 128.819C60.1042 128.819 60.0008 128.253 60.1558 127.531C60.3109 126.655 60.1042 126.14 59.5357 125.934C58.3471 125.47 57.8819 126.037 58.7088 127.016C59.0706 127.428 59.1222 127.789 58.8122 127.789C58.2437 127.789 57.6752 126.604 57.6752 125.419C57.6752 124.955 57.8819 124.749 58.1403 124.955C58.8122 125.316 59.3806 124.337 58.9155 123.615C58.7088 123.203 58.4504 123.254 58.1403 123.718C57.7269 124.337 57.5719 124.285 57.1584 123.667C56.9 123.254 56.6416 122.482 56.6416 121.966C56.6416 121.451 56.4349 121.193 56.1249 121.348C55.8665 121.502 55.6081 121.399 55.6081 121.142C55.6081 120.163 56.745 120.523 57.0034 121.606C57.1584 122.172 57.4685 122.482 57.7269 122.327C58.4504 121.915 58.2437 120.266 57.4168 119.544C56.8484 119.081 56.6416 119.081 56.6416 119.493C56.6416 119.854 56.3833 119.957 56.0732 119.802C55.7631 119.596 55.143 119.957 54.7295 120.575L53.9027 121.76L52.5073 120.06C51.3187 118.565 51.0086 118.462 50.0267 118.978C49.1998 119.441 48.3213 119.441 46.9776 119.081C45.634 118.72 44.8588 118.72 44.497 119.081C43.8252 119.751 44.8588 120.369 47.4944 120.781C49.665 121.142 50.9569 121.863 50.9569 122.739C50.9569 123.048 50.5952 122.997 50.1301 122.636C49.7166 122.224 48.6831 121.863 47.8045 121.76C46.5642 121.657 46.2025 121.863 45.789 122.842C45.3756 124.027 45.1689 124.079 43.6185 123.615C42.6883 123.306 41.4997 122.945 41.0345 122.791C39.8459 122.43 39.8459 123.203 41.0862 124.8C41.6547 125.47 42.2232 126.913 42.4299 127.943C42.7916 129.902 44.7038 131.86 46.2541 131.963C46.8226 131.963 46.7192 132.117 45.9441 132.426C44.5487 132.993 44.342 134.487 45.6857 134.487C46.5642 134.487 48.8898 138.661 48.8898 140.259C48.8898 140.619 49.3549 141.238 49.9234 141.598C50.4918 141.959 50.9569 142.577 50.9569 142.99C50.9569 144.742 54.0577 150.41 57.0034 154.068C61.2411 159.324 63.9284 161.385 66.1506 161.23C67.2876 161.127 68.8379 161.591 70.6467 162.519C72.1971 163.343 74.5743 164.271 75.918 164.631C79.3805 165.61 82.5846 164.631 85.3236 161.797C87.5458 159.53 87.4424 159.272 84.9102 160.612C82.7396 161.746 79.4838 162.312 77.5717 161.9C76.073 161.591 76.073 161.591 77.2616 161.282C79.0704 160.87 79.2771 159.736 77.5717 159.736C76.7448 159.736 76.3314 159.53 76.5381 159.169C76.7448 158.912 77.52 158.809 78.2952 158.963C79.5872 159.221 79.7939 159.066 80.3107 157.572L80.9309 155.872L80.6725 157.52C80.3107 160.097 82.7396 160.561 85.582 158.448C87.2874 157.211 87.2874 157.16 86.0471 157.16C85.3753 157.16 84.3934 156.799 83.8766 156.438C83.1014 155.82 83.2564 155.768 85.3236 155.975C87.2874 156.232 87.7525 156.078 88.5794 155.099C89.0962 154.429 89.8197 154.068 90.1297 154.274C90.8016 154.686 90.4398 155.975 89.3029 157.263C88.4243 158.293 88.7861 159.633 90.0264 160.097C91.2667 160.561 92.3003 158.912 92.3003 156.541C92.3003 155.202 92.507 154.583 93.0238 154.583C93.4372 154.583 93.9023 154.223 94.0574 153.759C94.2641 153.295 94.5225 153.037 94.7292 153.244C94.9359 153.398 94.5225 154.12 93.9023 154.789C92.9721 155.768 92.8171 156.335 93.1271 157.881C93.5406 160.303 94.5225 159.994 94.9359 157.366L95.246 155.356L95.3493 157.16C95.401 158.139 95.6594 159.324 95.9178 159.736C96.7964 161.024 97.5199 159.324 97.3648 156.49C97.2098 153.913 97.7783 153.089 98.0883 155.459C98.2434 156.954 99.587 157.933 104.652 160.251C107.856 161.746 108.631 161.333 107.339 158.809C106.77 157.727 105.995 156.541 105.633 156.232C105.22 155.923 103.876 154.12 102.584 152.265C100.156 148.709 99.587 148.297 99.1736 149.946C99.0186 150.513 98.6568 150.822 98.3984 150.667C98.14 150.513 97.4682 150.77 96.8997 151.286C95.5044 152.522 95.246 151.955 96.1762 149.74C96.7964 148.348 96.8997 147.009 96.6413 144.845C96.2796 141.65 96.5896 141.083 99.1219 140.465C101.189 140.001 101.861 141.495 101.086 144.896C100.466 147.369 100.466 147.524 101.809 148.709C102.533 149.431 103.153 150.307 103.153 150.667C103.153 151.028 104.083 152.368 105.168 153.553C106.305 154.789 107.339 156.49 107.494 157.314C107.856 159.118 109.148 160.767 110.233 160.767C111.06 160.767 116.279 158.087 116.486 157.52C116.848 156.799 117.52 157.16 117.778 158.19C118.088 159.324 120.052 160.251 122.223 160.251C123.101 160.251 124.445 160.921 125.737 162.055C127.701 163.704 127.959 163.807 128.682 163.034C129.148 162.622 129.509 161.437 129.509 160.509C129.509 159.169 129.974 158.293 131.473 156.799C132.558 155.717 134.109 153.759 134.936 152.419C135.814 151.028 136.693 149.946 136.899 149.946C137.726 149.946 136.641 152.265 135.297 153.398C134.057 154.48 134.005 154.583 134.936 154.583C135.814 154.583 135.814 154.686 135.194 155.099C134.522 155.562 134.522 155.665 135.194 156.078C136.021 156.644 136.899 156.284 136.486 155.614C136.331 155.356 136.693 154.377 137.261 153.45C138.605 151.182 138.553 150.203 136.899 147.112C135.659 144.896 135.401 143.659 135.039 138.094C134.367 128.304 134.367 121.502 135.091 120.214C135.504 119.493 135.711 116.659 135.711 112.279C135.711 105.58 135.711 105.477 136.693 106.353C137.261 106.869 137.881 107.951 138.036 108.775C138.398 110.269 139.018 110.682 139.587 109.806C139.742 109.548 139.638 109.187 139.328 108.981C139.018 108.775 138.915 108.466 139.07 108.208C139.225 107.951 139.018 106.92 138.553 105.89C138.14 104.807 137.83 102.592 137.83 100.788C137.881 96.6146 136.796 93.9351 134.832 93.4714C134.057 93.3168 132.972 93.0592 132.507 92.9561C132.042 92.8015 131.421 93.0592 131.215 93.5229C130.801 94.1928 130.439 94.2443 129.199 93.7805C128.372 93.4714 127.39 92.8015 127.029 92.3378C126.409 91.5133 126.253 91.5648 125.427 92.5954C124.755 93.4198 124.135 93.626 123.256 93.3683L122.016 93.0592L123.256 92.75C123.98 92.5954 124.651 92.1317 124.755 91.771C124.962 91.2041 124.341 91.1011 121.809 91.3072C118.295 91.5648 117.726 91.874 118.657 93.0076C119.432 93.9351 118.812 93.9866 116.848 93.2653C115.194 92.6469 115.504 91.9255 117.623 91.4618C119.432 91.0496 120.724 89.4522 120.724 87.6487C120.724 86.5151 120.672 86.4636 119.845 87.185C119.328 87.5972 118.243 88.1125 117.416 88.3186C116.228 88.6278 115.659 88.4216 114.471 87.288C113.54 86.4121 112.403 85.8968 111.318 85.8453C109.923 85.7937 109.561 85.5361 109.458 84.5571C109.354 83.8872 109.509 83.1143 109.82 82.8051C110.543 82.0837 110.543 79.3528 109.82 79.3528C109.509 79.3528 108.941 78.9921 108.476 78.5798C107.287 77.3432 105.995 77.8585 105.84 79.6104C105.737 80.4864 105.427 81.3623 105.117 81.6715C104.755 82.0322 104.703 81.8261 104.962 81.0016C105.117 80.3318 104.962 79.2497 104.548 78.4253C104.083 77.4978 103.98 76.5187 104.238 75.8489C104.858 74.2 104.031 74.4576 102.998 76.2611C102.378 77.2916 101.654 77.8069 100.879 77.8069C100.207 77.8069 99.3803 78.1676 99.0186 78.5798C98.5018 79.2497 98.5535 79.3528 99.587 79.4043H100.827L99.6904 79.9711C97.8816 80.8471 98.2951 81.4654 100.466 81.2078L102.378 80.9501L100.311 81.62L98.2434 82.2898L97.985 80.1772C97.8299 78.9921 97.9333 77.91 98.1917 77.7554C98.8635 77.2401 98.0367 76.2611 96.8997 76.2611C96.3312 76.2611 95.2977 76.6218 94.5742 77.1371C93.3339 77.91 93.2305 77.91 92.4036 77.0855C91.5768 76.2611 91.6284 76.1065 93.2305 74.7153C94.109 73.8393 94.8842 73.0148 94.8842 72.8087C94.8842 72.5511 94.0574 72.1389 93.0755 71.8297C91.6284 71.366 91.1633 71.4175 90.6465 71.9843C90.2331 72.4996 90.2331 72.8603 90.6465 73.2725C91.0083 73.6332 91.2667 74.0454 91.2667 74.303C91.2667 74.8698 87.4424 74.4061 87.2357 73.7362C86.9256 72.8603 86.0988 73.5816 86.0988 74.7153C86.0988 75.2821 85.4786 75.8489 84.4967 76.2096C83.1014 76.6733 82.7396 76.6218 82.1712 75.8489C81.8094 75.3851 81.4476 74.8183 81.4476 74.5607C81.4476 73.6847 79.7939 74.3546 77.7267 76.158C75.3495 78.1676 71.732 79.7135 70.3883 79.1982C69.9749 79.0436 69.3547 78.4253 69.0446 77.8585C68.5795 76.931 68.6312 76.8279 69.4064 77.1371C70.2333 77.4462 70.2333 77.3947 69.6648 76.6218C69.2514 76.158 69.0963 75.5397 69.2514 75.2821C69.4581 75.0244 69.3547 74.6122 69.0446 74.4576C68.6312 74.2 68.6829 73.8908 69.0963 73.3755C70.0782 72.1904 68.8379 71.366 66.2023 71.469C64.4969 71.5205 63.8767 71.366 63.8767 70.7991C63.8767 70.0262 63.2566 69.8201 62.6881 70.4385ZM81.2409 76.5187C80.6725 76.931 79.949 77.2916 79.6906 77.2916C79.3805 77.2916 79.5872 76.931 80.104 76.5187C80.6725 76.1065 81.396 75.7458 81.6544 75.7458C81.9644 75.7458 81.7577 76.1065 81.2409 76.5187ZM86.9256 82.1868C86.4605 82.8567 86.0988 83.7841 86.0988 84.2479C86.0988 84.7116 85.6337 85.0208 85.0135 85.0208C84.2383 85.0208 84.0316 84.8147 84.2383 84.1964C84.4967 83.5265 84.29 83.4235 83.1531 83.7326C82.0161 83.9903 81.8611 83.9387 82.4296 83.3204C82.7396 82.9082 83.5148 82.6505 84.0316 82.8051C84.7551 83.0112 85.0652 82.8051 85.0652 82.2898C85.0652 81.8261 85.582 81.3623 86.2538 81.2593C86.874 81.1562 87.4941 81.0016 87.5975 80.9501C87.7008 80.9501 87.3908 81.4654 86.9256 82.1868ZM90.2331 82.7021C90.4915 83.4235 90.9566 83.9903 91.215 83.9903C91.4734 83.9903 91.7835 84.5055 91.8868 85.1239C91.9902 85.9483 92.4553 86.309 93.6956 86.4121C95.3493 86.6182 95.401 86.5667 95.0909 85.0723C94.7292 83.2689 94.9359 83.1658 96.6413 84.2479C98.0367 85.1754 97.9333 86.5151 96.4346 87.8548C95.9178 88.3186 95.6077 89.0915 95.7628 89.7098C95.9178 90.2251 95.7628 90.6889 95.4527 90.6889C95.1426 90.6889 94.8842 90.4312 94.8842 90.1221C94.8842 89.8644 94.6775 89.7614 94.3674 89.916C94.109 90.0705 93.8506 90.6373 93.8506 91.1526C93.8506 91.6679 93.4889 92.3893 93.0755 92.75C92.4036 93.3168 92.352 93.1622 92.507 91.6679C92.8171 89.04 92.2486 86.9789 91.1633 86.6697C90.6465 86.5667 90.2331 86.206 90.2848 85.8453C90.4398 84.5571 90.1814 83.9903 89.5096 83.9903C87.9075 83.9903 88.1143 85.1754 90.0264 87.1335C92.4036 89.5553 91.8868 89.8129 89.2512 87.4426C87.3908 85.7937 87.1324 84.5055 88.2693 83.1143C88.5277 82.7536 88.6311 82.2383 88.4243 81.9291C88.2693 81.6715 88.476 81.4139 88.9411 81.4139C89.3546 81.4139 89.9747 81.9807 90.2331 82.7021ZM107.029 82.9597C106.874 83.2173 107.236 84.454 107.856 85.7422C109.354 89.04 108.889 90.0705 106.719 88.061C105.117 86.5667 103.566 86.0514 103.825 87.1335C103.876 87.4426 103.618 87.8548 103.308 87.9579C102.946 88.1125 102.636 87.8548 102.636 87.4426C102.636 87.0304 103.36 86.4121 104.238 86.1029C105.685 85.5876 105.789 85.433 105.168 84.6601C104.548 83.9387 104.548 83.8357 105.168 84.2479C105.737 84.5571 105.84 84.4025 105.633 83.578C105.375 82.7021 105.53 82.4444 106.357 82.4444C106.874 82.4444 107.236 82.6505 107.029 82.9597ZM77.3133 86.1029C76.0213 86.3605 73.2307 87.185 71.1118 87.9579C66.7191 89.5553 62.5331 93.1107 62.0163 95.8417C61.5512 98.0573 60.2592 97.8512 60.2592 95.584C60.2592 93.626 61.5512 89.8129 62.6364 88.6793C63.0499 88.2155 62.8948 88.9885 62.2747 90.6373C60.776 94.5535 61.2411 95.481 63.1532 92.4408C65.4788 88.6793 72.042 85.5876 77.5717 85.6392H79.6389L77.3133 86.1029ZM85.4269 87.185C86.6672 88.164 88.1659 91.7194 88.1659 93.626C88.1659 94.605 87.7008 95.8417 86.9773 96.6661C85.8921 97.9028 85.7887 98.315 86.2538 100.325C86.5122 101.613 86.5639 102.746 86.3572 102.952C85.8404 103.468 84.5484 101.458 84.5484 100.118C84.5484 99.0879 84.445 98.9848 83.2564 99.5517L81.9644 100.118L83.3081 102.386C84.5484 104.55 84.6001 104.756 83.8249 105.941C82.843 107.384 82.4812 107.538 82.5846 106.25C82.6363 105.787 82.3779 104.292 82.0161 102.901C81.3443 100.582 81.2409 100.479 79.4322 100.479C77.9335 100.479 77.1583 100.118 75.918 98.7787C75.0394 97.9028 74.1609 96.6146 73.9542 95.9447C73.7991 95.3264 73.3857 94.9141 73.1273 95.0687C72.5588 95.481 72.5588 91.8225 73.179 90.4312C73.5407 89.6068 73.6441 89.5553 73.6441 90.2766C73.6958 91.3587 74.781 93.7805 75.2461 93.7805C75.4012 93.7805 75.4529 93.0076 75.3495 92.0286C75.2461 91.0496 75.5045 89.6068 75.9697 88.6793C76.6932 87.288 77.1066 87.0819 78.9154 87.0819C80.3624 87.0819 80.8792 86.8758 80.6208 86.4636C80.104 85.6392 84.3417 86.2575 85.4269 87.185ZM102.119 86.5667C102.119 86.8243 101.603 87.0819 100.982 87.0819C100 87.0819 99.9488 86.9789 100.569 86.5667C101.551 85.8968 102.119 85.8968 102.119 86.5667ZM100 90.1736C100.776 90.1736 101.034 89.5037 100.569 88.6793C100.259 88.0094 100.362 87.8033 101.137 87.7518C101.809 87.7003 102.119 88.0094 102.119 88.7308C102.119 89.8129 102.119 89.8129 103.411 88.6278C104.652 87.4426 104.703 87.4426 105.737 88.3701C107.339 89.8129 108.941 92.75 108.114 92.75C107.701 92.75 107.029 93.3168 106.564 94.0382C106.099 94.7596 105.375 95.3264 105.013 95.3264C104.186 95.3264 103.618 93.5229 104.238 92.9046C104.962 92.1832 104.135 90.2251 102.946 90.0705C101.551 89.8644 99.0186 91.6164 99.0186 92.853C99.0186 93.3683 99.277 93.7805 99.5354 93.7805C99.8454 93.7805 100.052 93.2653 100.052 92.5954C100.052 90.2766 101.499 94.1412 101.603 96.7176C101.758 100.737 101.654 101.51 100.931 101.51C99.8454 101.51 98.6568 103.107 98.2434 105.117C98.0367 106.096 97.5199 107.487 97.1581 108.208C96.4863 109.393 96.4346 109.187 96.7447 106.147C96.9514 104.086 97.4682 102.334 98.0367 101.561C98.6051 100.891 99.0186 99.8093 99.0186 99.1394C99.0186 97.8512 99.7938 97.439 100.207 98.5211C100.362 98.8818 100.517 98.418 100.517 97.5421C100.569 95.9447 100.466 95.8932 99.0702 96.1508C97.8816 96.4085 97.4165 96.2539 96.9514 95.3264C96.4346 94.2958 96.4863 93.9866 97.6749 92.9046C99.0702 91.6164 99.432 90.3797 98.4501 90.0705C97.985 89.916 98.0367 89.5037 98.5535 88.6278L99.277 87.3396L99.432 88.7308C99.5354 89.5553 99.7938 90.1736 100 90.1736ZM103.36 92.0801C103.566 92.5439 103.411 93.1622 103.101 93.4714C102.636 93.8836 102.584 93.8321 102.791 93.1107C102.998 92.6469 102.895 92.2347 102.636 92.2347C102.326 92.2347 102.119 91.9771 102.119 91.7194C102.119 90.895 102.998 91.1526 103.36 92.0801ZM110.75 93.2653C110.595 95.7901 110.078 95.9447 109.768 93.5229C109.613 92.0286 109.768 91.5648 110.75 91.2557C110.853 91.2041 110.853 92.1317 110.75 93.2653ZM109.354 95.2233C109.354 95.5325 109.716 95.8417 110.13 95.9962C110.698 96.2539 110.801 97.0783 110.698 99.6547C110.595 101.458 110.336 103.21 110.181 103.468C109.664 104.344 110.44 105.632 111.473 105.632C112.662 105.632 112.765 104.962 111.68 104.086C110.801 103.365 110.646 102.54 111.37 102.54C111.628 102.54 111.938 103.056 112.145 103.674C112.352 104.55 112.559 104.704 112.869 104.189C113.23 103.674 113.437 103.674 114.006 104.344C114.574 105.014 114.522 105.117 113.695 104.859C113.127 104.653 113.23 104.859 114.006 105.323C115.401 106.096 117.468 109.548 116.951 110.115C116.745 110.269 115.918 110.424 115.039 110.372C113.85 110.372 113.179 110.733 112.093 112.124L110.75 113.928L108.579 111.712C106.719 109.806 106.357 109.136 106.15 106.766C105.995 105.271 106.099 103.932 106.305 103.777C107.029 103.365 106.822 101.819 105.737 99.294L104.703 96.9753L106.305 95.1718C107.701 93.626 108.062 93.4198 108.631 94.0382C109.044 94.3989 109.354 94.9657 109.354 95.2233ZM104.91 98.8818C105.84 101.561 106.099 102.901 105.737 103.313C105.427 103.674 105.323 104.962 105.478 106.199L105.737 108.466L104.91 105.787C104.031 103.004 102.688 102.025 101.551 103.365C100.776 104.292 100.052 104.292 100.052 103.313C100.052 102.901 100.827 102.231 101.758 101.819C102.636 101.407 103.205 101.046 102.895 101.046C102.326 100.994 102.274 98.1089 102.791 97.5936C102.946 97.3875 102.946 96.563 102.791 95.6355C102.274 92.9046 103.463 94.708 104.91 98.8818ZM112.817 101.819C113.437 103.159 113.437 103.159 112.455 102.283C111.422 101.355 111.111 100.479 111.835 100.479C112.042 100.479 112.455 101.097 112.817 101.819ZM69.0446 105.477C69.0446 105.838 71.1635 107.178 75.4012 109.6C76.6415 110.269 76.3314 110.476 73.0756 110.991C71.1118 111.352 69.5614 110.424 69.5614 108.93C69.5614 108.517 69.1997 107.487 68.7863 106.662C68.3211 105.787 68.2178 105.117 68.5279 105.117C68.7863 105.117 69.0446 105.271 69.0446 105.477ZM91.5251 106.199C91.3184 106.456 90.6465 106.92 90.0781 107.229C89.4579 107.487 88.3727 108.105 87.6491 108.569C86.4088 109.445 86.3572 109.445 87.1324 108.517C88.476 106.817 92.4036 104.756 91.5251 106.199ZM102.378 111.3C102.223 112.588 101.603 115.01 100.982 116.762L99.9488 119.905L101.654 122.533C103.721 125.676 105.789 126.655 107.597 125.47C109.251 124.388 109.664 124.491 108.579 125.728C107.391 127.016 104.807 127.067 103.308 125.779C102.636 125.212 102.119 124.646 102.119 124.44C102.119 124.285 101.396 123.1 100.517 121.812L98.9669 119.544L100.362 116.607C101.551 114.186 101.809 113.052 101.809 109.548C101.809 106.302 101.913 105.787 102.223 107.178C102.429 108.157 102.533 110.012 102.378 111.3ZM67.546 111.248C68.6312 111.609 69.6648 112.434 70.2333 113.413L71.1635 115.062L69.5614 114.752C67.2359 114.289 65.4788 112.897 64.3418 110.733C63.0499 108.157 63.1015 107.796 64.5486 109.342C65.2204 110.063 66.564 110.888 67.546 111.248ZM99.0186 111.712C99.0186 112.485 98.8635 113.619 98.7085 114.289L98.3467 115.474L96.8997 114.082C95.246 112.485 95.0393 111.815 96.1762 111.815C96.5896 111.815 97.1581 111.352 97.4682 110.785C98.1917 109.445 99.0186 109.909 99.0186 111.712ZM75.2461 112.794C75.2461 113.825 74.5743 114.907 73.9542 114.907C73.6441 114.907 72.9206 114.443 72.4555 113.928C71.7836 113.155 71.732 112.897 72.2488 112.691C73.3857 112.227 75.2461 112.279 75.2461 112.794ZM79.8973 113.103C78.4503 113.928 76.7965 114.082 76.7965 113.464C76.7965 112.64 77.4684 112.331 79.3288 112.331L81.1893 112.382L79.8973 113.103ZM108.838 117.483C108.476 119.699 108.424 119.699 108.424 116.453C108.372 114.289 108.528 113.464 108.786 114.134C109.044 114.701 109.044 116.195 108.838 117.483ZM94.2641 117.432C95.0393 119.596 95.0393 120.214 94.3674 119.802C93.6956 119.39 93.6956 119.647 94.4191 121.399C94.9359 122.842 94.9359 122.842 93.9023 121.915C93.1788 121.245 92.8687 120.369 92.9204 118.823C92.9204 117.689 92.7654 115.989 92.5587 115.165C92.1969 113.722 92.2486 113.67 92.9204 114.649C93.3339 115.216 93.954 116.453 94.2641 117.432ZM92.8171 118.308C92.8171 118.72 92.6103 118.926 92.3003 118.772C92.0419 118.617 91.7835 118.102 91.7835 117.689C91.7835 117.277 92.0419 117.071 92.3003 117.226C92.6103 117.38 92.8171 117.896 92.8171 118.308ZM113.23 122.842C114.212 123.203 114.212 123.254 113.334 123.718C112.455 124.233 112.507 124.337 113.695 125.47C114.677 126.346 115.039 127.222 115.039 128.562C115.039 129.695 114.832 130.314 114.522 130.108C114.264 129.953 114.006 129.129 114.006 128.253C114.006 127.428 113.799 126.758 113.489 126.758C113.23 126.758 112.972 127.634 112.972 128.768C112.972 129.902 112.662 131.035 112.197 131.396C111.422 132.014 111.422 136.239 112.197 139.125C112.455 140.207 112.352 140.465 111.577 140.465C111.06 140.465 110.181 140.619 109.561 140.825C108.734 141.135 108.372 140.928 107.907 139.898C107.442 138.919 106.925 138.61 105.737 138.61C104.858 138.61 103.67 138.816 103.153 139.125C102.378 139.537 102.274 139.434 102.481 138.61C102.791 137.425 102.274 137.27 101.137 138.301C100.672 138.661 99.7938 139.177 99.1219 139.383C97.9333 139.743 97.9333 139.692 98.7085 138.146C99.1736 137.27 99.6904 135.518 99.8971 134.23C100.156 132.066 101.189 130.211 100.982 132.272C100.827 133.715 101.654 137.064 102.171 137.064C102.429 137.064 102.636 135.724 102.636 134.075C102.688 131.138 102.688 131.138 103.463 132.581C104.083 133.715 104.135 134.384 103.721 135.57C103.308 136.755 103.36 137.064 103.928 137.064C104.29 137.064 104.858 136.342 105.168 135.518C105.84 133.457 106.564 133.56 106.977 135.827C107.184 136.806 107.701 137.785 108.062 137.94C108.476 138.094 108.734 138.352 108.631 138.558C108.476 138.764 108.579 139.228 108.838 139.589C109.303 140.413 110.543 139.795 110.233 138.919C109.354 136.549 109.303 136.033 110.078 136.342C110.698 136.6 110.905 136.342 110.905 135.363C110.905 134.642 110.698 133.921 110.44 133.715C110.181 133.56 110.13 132.839 110.336 132.014C110.543 131.241 110.646 129.747 110.491 128.665C110.336 127.377 110.491 126.758 110.905 126.758C111.318 126.758 111.422 127.222 111.215 127.995C110.853 129.438 111.318 130.984 111.99 130.571C112.61 130.211 112.61 125.934 111.99 123.77C111.68 122.842 111.628 122.172 111.835 122.275C112.042 122.378 112.662 122.636 113.23 122.842ZM77.365 126.346C78.1919 128.047 78.8637 129.592 78.7603 129.85C78.657 130.056 77.7784 128.562 76.7965 126.501C74.626 122.018 75.0911 121.863 77.365 126.346ZM71.3185 128.047C72.2488 128.51 73.9025 129.798 75.0394 130.932L77.0549 133.045L74.471 131.447C72.1971 130.005 71.5769 129.85 69.4581 130.108C67.701 130.365 66.9775 130.262 66.9775 129.85C66.9775 129.489 67.3392 129.335 67.7527 129.489C68.6312 129.85 69.303 129.026 68.5279 128.562C67.9077 128.201 68.3211 127.274 69.148 127.274C69.4064 127.274 70.44 127.634 71.3185 128.047ZM101.344 128.974C101.086 129.85 100.724 130.211 100.259 130.005C99.6904 129.798 99.6387 129.541 100.104 129.026C100.414 128.613 100.517 128.304 100.259 128.304C100 128.304 100.156 128.098 100.569 127.789C101.551 127.171 101.706 127.428 101.344 128.974ZM108.683 131.19C108.734 134.024 108.631 135.003 108.217 134.591C107.907 134.281 107.649 133.148 107.597 132.066C107.546 130.52 107.339 130.159 106.667 130.262C106.202 130.314 105.685 130.159 105.478 129.85C105.272 129.541 105.685 129.335 106.409 129.335C107.236 129.335 107.752 128.974 107.959 128.304C108.424 126.449 108.631 127.171 108.683 131.19ZM63.1532 133.405C62.9982 133.663 62.3264 133.972 61.7062 134.127C60.5693 134.436 60.5693 134.384 61.4995 133.715C62.6364 132.839 63.5667 132.684 63.1532 133.405ZM91.4217 136.549C92.8687 136.549 92.8687 137.528 91.4734 138.404C90.3365 139.177 90.0781 139.177 89.6646 138.558C89.4062 138.146 89.1995 137.115 89.1995 136.291C89.2512 134.9 89.3029 134.848 89.923 135.621C90.2848 136.136 90.9566 136.549 91.4217 136.549ZM53.6959 142.32C53.3342 142.938 54.9879 145.721 56.2282 146.545C57.9853 147.782 58.3471 147.524 57.1068 145.875C56.4866 145.051 56.1249 144.072 56.2282 143.659C56.3833 143.299 56.9 143.866 57.5719 145.051C58.8122 147.421 60.5693 149.224 65.8922 153.244C67.9594 154.841 69.5098 156.129 69.3547 156.129C68.6312 156.129 61.4478 152.368 60.0008 151.234C55.6597 147.885 51.9905 143.917 51.9905 142.68C51.9905 140.928 53.1275 139.795 53.5926 141.032C53.7993 141.547 53.851 142.114 53.6959 142.32ZM107.339 141.032C108.011 141.804 107.907 141.856 106.77 141.547C106.047 141.341 104.807 141.186 104.031 141.186C103.205 141.186 102.688 140.98 102.895 140.671C103.411 139.846 106.564 140.052 107.339 141.032ZM73.7475 141.186C76.7965 141.753 78.3469 143.093 78.3469 145.102C78.3469 145.772 78.2952 146.339 78.1919 146.339C78.1402 146.339 76.6932 145.824 74.9878 145.154C72.7655 144.278 71.6286 143.505 70.9568 142.32C69.8715 140.465 69.8715 140.465 73.7475 141.186ZM95.6077 142.011C96.2796 143.814 94.7292 146.339 92.9204 146.339C92.2486 146.339 92.8171 143.093 93.7473 142.062C94.7292 140.98 95.1943 140.928 95.6077 142.011ZM81.9644 142.938C81.9644 144.072 80.6208 145.154 80.0006 144.535C79.5872 144.123 80.8275 141.701 81.4476 141.701C81.706 141.701 81.9644 142.268 81.9644 142.938ZM106.822 143.659C108.166 147.163 107.649 148.709 105.013 149.224C102.481 149.688 100.879 144.948 102.843 142.835C104.031 141.495 106.202 141.959 106.822 143.659ZM91.6801 144.638C91.8352 146.133 91.6801 146.339 90.5949 146.339C89.6646 146.339 89.1995 145.978 88.9928 145.051C88.5794 143.35 88.9928 142.629 90.3881 142.835C91.2667 142.938 91.5768 143.402 91.6801 144.638ZM112.559 143.866C112.403 144.535 111.525 145.824 110.543 146.803C109.199 148.194 108.786 148.4 108.528 147.73C108.011 146.287 108.528 145.102 110.336 143.917C112.507 142.423 112.972 142.423 112.559 143.866ZM87.8042 144.381C88.1143 144.793 88.1659 145.772 87.9592 146.545C87.6491 147.73 87.4941 147.833 86.6156 147.369C85.0652 146.545 85.2719 142.887 86.8223 143.402C87.0807 143.505 87.5458 143.917 87.8042 144.381ZM84.8585 146.133C84.7034 146.545 84.3417 146.854 84.0316 146.854C83.1531 146.854 82.843 145.36 83.5665 144.484C84.135 143.762 84.2383 143.762 84.7034 144.535C84.9618 144.999 85.0135 145.721 84.8585 146.133ZM82.2745 146.7C81.706 147.266 81.2926 146.39 81.706 145.463C82.1195 144.587 82.1195 144.587 82.3262 145.463C82.4812 145.978 82.4296 146.545 82.2745 146.7ZM80.4141 146.081C80.4141 146.493 80.0523 146.854 79.5872 146.854C78.8637 146.854 78.8637 146.7 79.3805 146.081C79.7422 145.669 80.104 145.308 80.2073 145.308C80.3107 145.308 80.4141 145.669 80.4141 146.081ZM80.4141 147.936C80.4141 148.091 79.949 148.658 79.4322 149.121C78.3986 150.1 77.52 149.482 78.0368 148.142C78.2952 147.472 80.4141 147.266 80.4141 147.936ZM83.2047 147.833C83.3598 148.039 83.3598 148.4 83.2047 148.555C82.7913 148.915 80.9309 148.348 80.9309 147.833C80.9309 147.215 82.843 147.215 83.2047 147.833ZM91.2667 149.431C91.2667 151.749 90.7499 152.007 89.1995 150.461C87.4941 148.761 87.9592 147.524 90.3881 147.421C91.06 147.369 91.2667 147.782 91.2667 149.431ZM95.6594 147.833C96.1245 148.606 94.8326 150.822 93.5923 151.389C92.0936 152.11 91.9385 151.904 92.1969 149.74C92.4036 148.039 92.8687 147.627 94.7292 147.421C95.0393 147.421 95.4527 147.576 95.6594 147.833ZM87.6491 150.152C87.6491 150.873 86.6156 152.007 85.9954 152.007C85.4786 152.007 84.5484 149.843 84.8585 149.379C85.1685 148.812 87.6491 149.534 87.6491 150.152ZM81.9644 150.461C81.4476 151.44 79.8973 151.852 79.2254 151.182C78.5536 150.461 79.5872 149.431 80.9825 149.431C82.3779 149.431 82.4812 149.534 81.9644 150.461ZM84.0316 149.894C84.0316 150.152 84.1866 150.719 84.3417 151.182C84.5484 151.801 84.3417 152.007 83.5665 152.007C82.4296 152.007 82.2745 151.595 82.7913 150.255C83.1531 149.379 84.0316 149.121 84.0316 149.894Z" fill="#131313"/>
<path d="M83.1531 87.8033C83.9283 88.5762 84.5484 89.4007 84.5484 89.6583C84.5484 89.9675 84.8068 90.1736 85.0652 90.1736C85.7887 90.1736 85.6854 88.3186 84.9618 87.7003C84.6001 87.4426 83.7215 87.0304 82.998 86.8243L81.7061 86.4636L83.1531 87.8033Z" fill="#131313"/>
<path d="M77.9335 89.6584C76.6932 90.8435 76.3831 92.3378 77.4684 92.0802C77.8301 92.0286 78.0368 92.4409 77.9335 93.1107C77.7784 94.2959 79.0704 95.3264 80.8275 95.3264C82.998 95.3264 84.29 92.0286 82.998 89.6068C82.2745 88.2671 79.4322 88.3186 77.9335 89.6584Z" fill="#131313"/>
<path d="M84.9102 93.3682C84.4967 95.3263 82.7913 96.8721 80.9309 96.8721C80.3624 96.8721 79.8973 97.1298 79.8973 97.4389C79.8973 98.3664 83.5665 97.5935 84.7034 96.4599C85.3753 95.7385 85.582 94.9141 85.4786 93.4713L85.3236 91.4617L84.9102 93.3682Z" fill="#131313"/>
<path d="M108.321 100.737C108.321 101.304 108.528 102.077 108.786 102.437C109.096 103.004 109.303 102.953 109.561 102.231C109.768 101.716 109.561 100.995 109.096 100.531C108.424 99.8094 108.321 99.8609 108.321 100.737Z" fill="#131313"/>
<path d="M107.752 103.468C107.546 105.323 107.597 105.632 108.062 105.735C108.786 105.838 109.044 104.086 108.372 103.416C107.959 103.004 107.804 103.004 107.752 103.468Z" fill="#131313"/>
<path d="M112.352 107.538C111.318 108.621 111.163 110.012 111.887 110.527C112.559 110.939 113.592 108.93 113.385 107.59C113.23 106.559 113.23 106.559 112.352 107.538Z" fill="#131313"/>
<path d="M107.649 108.208C107.391 109.187 108.579 110.682 109.148 110.115C109.613 109.703 108.941 107.178 108.373 107.178C108.114 107.178 107.804 107.641 107.649 108.208Z" fill="#131313"/>
<path d="M114.316 108.002C113.902 109.084 113.902 109.239 114.471 109.239C115.091 109.239 115.608 107.796 115.091 107.435C114.832 107.281 114.471 107.538 114.316 108.002Z" fill="#131313"/>
<path d="M109.975 109.754C109.665 110.63 109.665 111.248 110.026 111.712C110.853 112.743 111.422 111.712 110.956 110.012L110.491 108.466L109.975 109.754Z" fill="#131313"/>
<path d="M127.442 81.9291C126.719 82.7535 125.892 83.4234 125.582 83.4234C124.6 83.4749 121.189 87.5971 121.344 88.4731C121.447 88.9369 121.964 89.5552 122.533 89.9159C124.445 91.1526 131.887 88.4731 131.266 86.8242C131.008 86.2574 130.646 86.2574 128.889 86.8758C126.925 87.5456 124.445 87.5971 124.755 86.9273C124.806 86.7212 124.858 86.3605 124.858 86.1028C124.858 85.8967 125.685 84.9177 126.667 83.9387C128.631 82.0837 129.819 80.3833 129.148 80.4348C128.941 80.4348 128.166 81.1046 127.442 81.9291Z" fill="#131313"/>
<path d="M4.03225 99.7577C1.34494 101.51 0.724788 102.386 0.156317 105.477C-0.153758 107.075 -0.153758 107.126 1.60333 106.817C3.20539 106.559 3.46378 106.714 3.9289 107.951C4.23897 108.672 4.34233 109.496 4.18729 109.754C3.82554 110.321 5.78935 110.733 6.56453 110.218C6.97797 109.96 7.70148 109.754 8.26995 109.754C9.04513 109.754 9.14849 110.012 8.8901 111.506C8.6317 112.846 8.78674 113.464 9.40689 113.979C9.92368 114.34 11.2673 115.628 12.456 116.813C13.6446 118.05 14.9366 119.029 15.2466 119.029C15.6084 119.029 16.797 118.565 17.934 117.947C19.5877 117.123 20.2078 117.02 20.7763 117.535C21.3448 117.999 21.5515 117.947 21.8099 117.277C22.12 116.453 22.2233 116.453 23.1019 117.277C24.3938 118.411 24.3422 118.823 22.7918 120.163C21.1381 121.605 21.6549 122.327 23.6703 121.296C24.8073 120.73 25.3757 120.626 25.7892 121.039C26.461 121.709 27.908 121.76 29.1483 121.142C29.6134 120.884 30.7504 120.369 31.6806 120.06C32.6625 119.699 33.5411 118.875 33.8511 118.05C34.2646 116.916 34.3162 117.02 34.0579 118.823C33.7478 121.348 34.4713 122.894 36.1767 123.357C36.9002 123.512 37.572 124.13 37.7788 124.646C38.0371 125.573 39.4842 126.501 39.9493 126.088C40.0526 125.985 39.7426 124.903 39.3291 123.667C38.9157 122.481 38.5539 120.626 38.5539 119.596C38.5539 117.999 37.572 115.319 37.5204 116.71C37.5204 116.968 37.262 116.813 36.9519 116.298C36.6935 115.834 36.125 115.422 35.7116 115.422C35.3498 115.422 34.833 114.701 34.678 113.825C34.4713 112.897 33.4377 111.248 32.3524 110.063C31.1638 108.775 30.2336 107.178 30.0269 106.044C29.5618 103.622 28.3215 102.386 24.7039 100.531C21.0347 98.6756 16.952 97.9027 11.2157 97.9542C7.02965 97.9542 6.61621 98.0573 4.03225 99.7577Z" fill="#131313"/>
<path d="M59.329 106.25C58.7605 107.178 58.1403 108.62 57.9853 109.496C57.5202 111.248 54.7812 113.928 53.7993 113.567C53.4375 113.413 52.6623 113.979 52.0422 114.804C50.7502 116.607 50.6469 117.38 51.7321 116.453C52.1456 116.092 52.5073 115.989 52.5073 116.195C52.5073 116.401 52.8691 116.298 53.2825 115.937C53.851 115.474 54.0577 115.474 54.0577 115.886C54.0577 116.247 54.3161 116.35 54.5745 116.195C54.8846 116.04 55.0913 116.144 55.0913 116.401C55.0913 117.844 56.0732 116.71 56.6416 114.649C57.0034 113.361 57.5202 112.33 57.7786 112.33C58.037 112.33 58.6571 111.351 59.1739 110.115C60.1041 107.951 60.931 104.601 60.5693 104.601C60.4142 104.601 59.8974 105.374 59.329 106.25Z" fill="#131313"/>
<path d="M59.8458 110.269C59.5357 111.145 58.8122 112.537 58.192 113.31C56.9517 115.113 56.745 116.401 57.9336 115.422C58.3471 115.061 58.7088 114.495 58.7088 114.134C58.7088 113.773 59.0706 113.361 59.4323 113.206C60.2075 112.897 61.1377 109.445 60.621 108.93C60.5176 108.775 60.1042 109.393 59.8458 110.269Z" fill="#131313"/>
<path d="M88.0626 112.124C86.4605 112.949 86.2538 113.619 87.3907 114.082C87.9075 114.237 88.4243 113.825 88.9411 112.846C89.4062 111.97 89.6646 111.3 89.613 111.3C89.5096 111.351 88.8378 111.712 88.0626 112.124Z" fill="#131313"/>
<path d="M85.1169 114.082C84.7551 114.495 84.6001 115.113 84.7551 115.371C84.9619 115.628 84.8585 115.989 84.5484 116.195C83.8766 116.607 83.8766 119.544 84.5484 119.544C84.8585 119.544 85.0652 118.874 85.0652 118.05C85.0652 117.226 85.3236 115.886 85.582 115.113C86.2022 113.516 85.9954 113 85.1169 114.082Z" fill="#131313"/>
<path d="M82.2228 114.958C78.4503 115.886 74.1609 116.453 71.0085 116.453C67.0292 116.453 65.5822 117.483 66.0989 119.957C66.3573 121.142 66.1506 121.76 65.1687 122.636C63.8767 123.873 63.2049 125.573 63.9284 125.985C64.1351 126.14 64.7553 125.522 65.2204 124.594C65.6855 123.667 66.6674 122.481 67.3392 121.966C68.3728 121.142 68.4762 120.833 67.9077 120.214C67.3909 119.596 67.4426 119.287 68.2695 118.72C69.6648 117.689 70.0266 117.844 69.7165 119.132C69.4064 120.266 69.4581 120.266 70.9568 118.874C73.5924 116.401 78.7087 117.432 77.2616 120.163C76.7449 121.142 76.7965 121.193 77.7784 120.936C78.5019 120.781 78.8637 120.936 78.8637 121.348C78.8637 121.76 79.2771 122.275 79.7939 122.584C80.6208 123.048 80.6208 123.151 79.6389 123.821C78.812 124.439 78.7603 124.697 79.2771 125.367C79.8973 126.088 80.1557 127.325 80.3624 129.953C80.4141 130.932 82.7913 131.035 83.4115 130.056C83.6182 129.747 84.1867 129.386 84.6518 129.18C85.8404 128.768 86.3572 130.623 85.8921 133.714C85.6337 135.26 85.6854 136.033 86.0988 136.033C87.029 136.033 87.6492 133.663 87.1324 131.911C86.874 130.932 86.874 129.85 87.1324 129.18C87.5975 128.149 87.5975 128.201 87.4941 129.592C87.3908 130.829 87.5975 131.138 88.4243 131.138C89.1995 131.138 89.5096 130.777 89.613 129.592C89.768 127.48 89.0445 126.346 88.0109 127.17C86.9773 128.046 86.3055 127.067 85.8404 124.027C85.582 122.275 85.1169 121.296 84.2383 120.781C83.5665 120.317 83.2048 119.647 83.3598 119.235C83.6182 118.617 83.4115 118.565 82.2745 119.081C80.6208 119.853 78.2952 118.978 78.3986 117.638C78.4503 116.813 78.5019 116.813 78.7087 117.586C79.0187 118.72 80.0006 119.029 81.7577 118.565C82.843 118.308 83.3081 117.741 83.6699 116.504C83.8766 115.577 84.0316 114.752 83.9283 114.701C83.8249 114.598 83.1014 114.752 82.2228 114.958ZM82.9464 121.348C83.9283 121.812 84.4967 122.584 84.6518 123.615C84.8068 124.697 84.7034 125.058 84.1867 124.852C83.5665 124.594 83.2564 125.264 83.4631 126.398C83.5148 126.655 83.3081 126.707 82.998 126.501C82.688 126.294 82.0678 126.449 81.6544 126.81C81.2409 127.119 80.7758 127.273 80.6208 127.119C80.4658 126.964 80.8275 126.604 81.396 126.243C82.0161 125.934 82.3779 125.47 82.2228 125.161C82.0161 124.903 82.2745 124.697 82.688 124.697C83.8249 124.697 83.7215 123.821 82.4812 122.275C81.7061 121.296 81.4477 121.193 81.4477 121.812C81.4477 122.275 81.2409 122.636 80.9309 122.636C80.3624 122.636 80.2074 121.451 80.7758 120.936C81.2409 120.472 81.2926 120.472 82.9464 121.348Z" fill="#131313"/>
<path d="M86.3572 115.268C85.737 116.298 85.9438 118.514 86.6156 118.514C87.2874 118.514 87.5975 117.123 87.2357 115.731C86.9257 114.546 86.8223 114.495 86.3572 115.268Z" fill="#131313"/>
<path d="M87.9075 114.907C87.7008 115.216 87.8559 115.834 88.2693 116.298C88.7861 116.968 88.7861 117.174 88.321 117.329C87.184 117.741 87.6491 121.09 88.7861 121.09C89.0962 121.09 89.1995 120.369 89.0445 119.338C88.8894 118.256 88.9928 117.483 89.3029 117.38C89.6646 117.226 89.7163 116.607 89.5096 115.783C89.1478 114.34 88.476 113.979 87.9075 114.907Z" fill="#131313"/>
<path d="M60.5176 115.886C60.2592 116.71 60.4142 117.226 61.1377 117.741C62.2747 118.617 63.1015 118.462 63.1015 117.329C63.1015 116.814 62.9465 116.504 62.7398 116.556C62.5331 116.659 62.0163 116.247 61.6545 115.731C60.931 114.752 60.8793 114.752 60.5176 115.886Z" fill="#131313"/>
<path d="M85.892 121.451C86.3571 124.027 86.6672 124.491 87.2357 123.461C87.5974 122.842 87.5458 122.069 87.1323 121.039C86.2021 118.926 85.4786 119.184 85.892 121.451Z" fill="#131313"/>
<path d="M30.492 124.233C30.1302 124.852 31.784 125.573 34.5746 125.934C36.9519 126.295 37.0552 126.295 36.5384 125.264C36.2284 124.697 35.5565 124.13 35.0914 123.976C33.7478 123.564 30.8021 123.77 30.492 124.233Z" fill="#131313"/>
<path d="M60.0008 124.697C59.639 125.316 60.1041 126.243 60.8276 126.243C61.4478 126.243 61.4478 124.852 60.8276 124.44C60.5692 124.285 60.2075 124.388 60.0008 124.697Z" fill="#131313"/>
<path d="M62.0163 125.882C61.8096 126.398 61.9129 127.067 62.1713 127.325C62.8948 128.046 63.4116 126.655 62.8431 125.676C62.4814 125.109 62.3264 125.161 62.0163 125.882Z" fill="#131313"/>
<path d="M95.401 129.077C95.401 129.901 95.7111 130.365 96.1762 130.365C96.5897 130.365 96.9514 129.901 96.9514 129.386C96.9514 128.871 96.5897 128.304 96.1762 128.098C95.6077 127.892 95.401 128.15 95.401 129.077Z" fill="#131313"/>
<path d="M83.9283 130.571C83.4115 130.932 82.998 131.55 82.998 131.963C82.998 132.375 82.7396 132.22 82.2745 131.602C81.551 130.674 81.4993 130.674 81.1376 131.55C80.9825 132.066 81.0342 132.735 81.3443 133.045C81.6544 133.354 81.7577 133.869 81.6544 134.23C81.4993 134.539 81.7577 135.157 82.2228 135.518C82.9463 136.136 83.0497 136.085 82.7396 134.9C82.5329 134.127 82.6363 133.405 82.9463 133.251C83.3081 132.993 83.5148 133.457 83.5148 134.384C83.5148 136.549 84.135 136.806 84.9102 134.951C85.6337 133.199 85.8404 129.85 85.2202 129.85C84.9618 129.85 84.3934 130.211 83.9283 130.571Z" fill="#131313"/>
<path d="M84.135 137.94C85.0652 138.558 85.9438 139.383 86.1505 139.743C86.7706 140.774 87.2874 138.816 86.7189 137.734C86.3572 137.167 85.5303 136.806 84.3417 136.755L82.5329 136.703L84.135 137.94Z" fill="#131313"/>
</svg>
