<svg width="110" height="225" viewBox="0 0 110 225" fill="none" xmlns="http://www.w3.org/2000/svg">
<path d="M13.6815 1.85097C13.6815 2.4511 14.079 3.05123 14.5758 3.45132C15.172 3.75139 15.8676 5.95187 16.265 8.45242C16.5631 10.8529 17.4574 13.3535 18.153 13.9536C19.246 14.8538 19.3454 14.3537 18.7492 11.7531C17.5568 6.552 15.3707 0.95077 14.4764 0.95077C14.079 0.95077 13.6815 1.35086 13.6815 1.85097Z" fill="#131313"/>
<path d="M41.5039 18.5547C41.5039 19.3549 42.0007 19.7549 42.5969 19.3549C43.3918 18.9548 43.4912 19.7549 42.9944 22.0555C42.0007 26.6565 40.9077 27.6567 40.1128 24.456C39.4172 21.5553 37.5292 21.9554 37.5292 25.0561C37.5292 26.0563 37.1318 26.9565 36.5356 26.9565C36.0388 26.9565 35.5419 27.6567 35.5419 28.4569C35.5419 29.3571 36.1381 29.6571 37.0324 29.3571C39.1191 28.5569 38.9204 30.2573 36.7343 32.2577C33.7534 34.9583 33.0578 34.2581 33.3559 29.4571C33.8527 23.9559 32.8591 17.9546 31.5673 17.9546C30.1762 17.9546 30.3749 23.3557 31.6667 24.656C32.4616 25.4562 32.561 26.8565 31.9648 28.6569C31.5673 30.1572 31.1699 31.9576 31.0705 32.6578C31.0705 33.3579 30.1762 34.6582 29.0832 35.4584C27.9902 36.3586 27.5927 36.8587 28.0895 36.5586C28.6857 36.3586 29.2819 36.9587 29.2819 38.059C29.3813 39.1592 29.0832 39.7593 28.487 39.4593C27.9902 39.0592 27.5927 39.4593 27.5927 40.1594C27.5927 41.1597 27.2946 41.0596 26.599 39.9594C26.1022 39.1592 26.1022 37.8589 26.4997 37.1588C27.2946 35.6584 24.8105 29.9572 23.4193 29.9572C22.3263 29.9572 22.4257 31.3575 23.6181 34.4582C24.2143 35.9585 24.3136 37.5589 24.0155 38.059C23.32 39.2592 19.6435 36.1586 19.6435 34.4582C19.6435 33.3579 17.5568 31.9576 16.0663 31.9576C15.7682 31.9576 16.6625 33.458 18.0536 35.2584C19.7428 37.4588 20.339 39.2592 19.9416 40.7596C19.6435 42.0598 19.8422 42.9601 20.5377 42.9601C21.1339 42.9601 21.6308 43.4601 21.6308 44.0603C21.6308 44.5604 21.2333 44.7604 20.6371 44.4604C20.0409 44.1603 19.6435 44.9605 19.6435 46.3608C19.6435 47.7611 18.5504 50.0616 17.06 51.4619C15.0726 53.4624 14.1784 53.7624 12.5885 52.9622C10.4025 51.662 10.005 50.4617 12.191 51.3619C12.986 51.662 13.6815 51.5619 13.6815 51.0618C13.6815 50.5617 11.7936 50.1616 9.50818 50.1616C5.33482 50.0616 5.33482 50.1616 7.7196 51.4619C9.70691 52.5621 10.3031 53.7624 10.7006 57.8633C10.9987 60.6639 10.8993 63.6646 10.4025 64.4648C9.50818 66.1651 10.7999 66.4652 12.191 65.0649C12.7872 64.4648 14.079 64.7648 15.6688 65.9651C17.3581 67.2654 17.6561 67.9655 16.6625 67.9655C15.8676 67.9655 16.265 68.5657 17.6561 69.2658C19.0473 69.966 20.1403 71.3663 20.1403 72.4665C20.1403 73.5668 20.7365 74.8671 21.432 75.2671C22.1276 75.7673 22.3263 76.6674 21.9289 77.2676C21.5314 77.9677 21.1339 78.8679 21.0346 79.4681C20.9352 79.9682 20.4384 81.3685 20.0409 82.3687C19.5441 83.769 19.6435 84.0691 20.4384 83.569C21.1339 83.1689 21.6308 82.2687 21.6308 81.6685C21.7301 80.9684 22.6244 79.368 23.7174 78.0677C25.1086 76.3674 26.0028 75.9673 26.6984 76.6674C28.2883 78.2678 26.8971 81.7686 24.413 82.5687C22.8232 83.0688 22.6244 83.3689 23.7174 84.0691C25.506 85.2693 29.58 85.1693 29.58 84.0691C29.58 83.569 28.9838 82.8688 28.3876 82.6688C27.1952 82.1687 29.9775 81.5685 31.8654 81.8686C32.2629 81.8686 32.561 81.2684 32.561 80.3683C32.561 77.9677 36.0388 79.168 36.3369 81.7686C36.5356 82.9688 38.0261 84.9693 39.6159 86.1695C42.1994 88.17 42.4975 88.8701 42.4975 94.1713C42.4975 97.372 42.1001 99.9726 41.5039 99.9726C40.0134 99.9726 40.3115 103.673 42.0007 105.374C43.988 107.274 44.1867 128.979 42.2988 128.979C41.4045 128.979 41.5039 129.279 42.4975 129.979C43.7893 130.779 43.988 135.88 43.8886 166.687C43.8886 186.392 43.4912 206.696 43.0937 211.797C42.3982 219.999 42.5969 221.399 44.0874 223.1C46.4721 225.8 50.0493 225.5 52.0366 222.499C53.3284 220.399 53.7258 215.798 54.0239 193.293C54.2227 178.49 54.5207 163.086 54.6201 158.986C54.8188 154.885 54.5207 139.781 54.1233 125.478C53.7258 109.075 53.7258 100.173 54.322 101.473C55.1169 103.173 55.3157 103.073 55.3157 100.173C55.415 98.4722 55.0176 96.9719 54.4214 96.9719C53.1296 96.9719 53.1296 93.2711 54.4214 92.771C55.0176 92.5709 54.6201 90.7705 53.4277 88.27C51.4404 84.0691 50.7449 77.9677 52.2353 77.9677C52.6328 77.9677 53.6265 78.5679 54.322 79.168C55.415 80.1682 55.6138 80.1682 55.0176 79.168C54.5207 78.3678 55.0176 77.9677 56.3093 77.9677C57.4023 77.9677 58.6941 77.1676 59.1909 76.2674C60.0852 74.667 60.284 74.767 61.8738 76.3674C63.4636 77.9677 63.6624 77.9677 64.8548 76.2674C66.1465 74.567 66.2459 74.567 66.9414 76.2674C67.3389 77.4676 68.4319 77.9677 69.9224 77.7677C71.5123 77.5676 72.804 78.3678 74.4932 80.8684C77.971 86.0695 79.3621 86.5696 84.9266 84.8692L89.6961 83.3689L89.4974 78.6679C89.2987 75.0671 89.5968 73.9669 90.6898 73.9669C91.4847 73.9669 92.1803 73.4668 92.1803 72.9666C92.1803 72.3665 91.1866 72.1665 89.8949 72.4665C88.2057 72.9666 87.3114 72.4665 86.3177 70.6661C85.6222 69.2658 84.3304 68.2656 83.4361 68.3656C81.5482 68.4656 79.7596 62.8644 81.3494 61.8642C82.1444 61.4641 82.045 61.064 81.1507 60.6639C80.1571 60.2638 80.2564 60.0638 81.5482 60.0638C82.4425 59.9638 83.2374 59.4637 83.2374 58.8635C83.2374 58.2634 85.026 57.9633 87.7088 58.0634C90.0936 58.2634 92.379 58.0634 92.7765 57.6633C93.1739 57.2632 91.8822 56.9631 89.8949 56.9631C88.0069 56.9631 85.7215 56.363 84.9266 55.5628C84.1317 54.6626 82.5418 54.3625 81.3494 54.6626C80.2564 54.9627 77.7723 54.4626 75.8843 53.5624C73.1021 52.2621 72.7046 51.5619 73.1021 49.4615C73.3008 48.0612 74.2945 46.3608 75.2881 45.6606C76.5799 44.7604 76.9774 43.5602 76.5799 41.6598C76.2818 40.1594 75.5862 38.9592 75.0894 38.9592C74.5926 38.9592 74.3939 38.5591 74.6919 38.159C74.99 37.6589 73.897 37.5589 72.3072 37.7589C68.8294 38.259 67.3389 35.8585 69.2268 32.7578C70.7173 30.3573 68.2332 29.257 64.7554 30.8574C61.2776 32.4577 60.0852 32.2577 60.582 30.1572C61.1782 27.9568 57.8992 25.3562 56.8062 27.0565C56.0112 28.4568 48.9563 27.6567 46.969 25.9563C46.174 25.2562 45.4785 23.5558 45.4785 22.0555C45.4785 20.5551 44.6836 18.9548 43.4912 18.1546C41.802 17.1544 41.5039 17.1544 41.5039 18.5547ZM54.4214 74.9671C54.4214 76.0673 53.7258 76.9675 52.9309 76.9675C51.2417 76.9675 51.1423 76.7675 52.0366 74.567C52.9309 72.2665 54.4214 72.5665 54.4214 74.9671ZM41.5039 84.1691C41.5039 85.3694 40.5102 85.1693 39.1191 83.669C38.4235 82.9688 38.1254 81.7686 38.3242 81.0684C38.7216 79.9682 39.1191 80.0682 40.1128 81.4685C40.9077 82.4687 41.5039 83.669 41.5039 84.1691Z" fill="#131313"/>
<path d="M52.5335 21.3552C52.4342 23.9558 52.7323 25.0561 53.4278 24.3559C54.024 23.7558 54.024 22.2554 53.5272 20.455C52.6329 17.4544 52.6329 17.4544 52.5335 21.3552Z" fill="#131313"/>
<path d="M63.6624 25.6562C62.6688 27.7566 62.6688 27.9567 63.9605 26.9565C64.7555 26.1563 65.3517 26.1563 65.3517 26.7564C65.3517 27.2565 66.0472 27.9567 66.7428 28.2568C67.7364 28.6568 68.0345 28.3568 67.6371 27.3566C67.339 26.6564 66.7428 25.9563 66.1466 25.9563C65.6498 25.9563 65.451 25.5562 65.8485 25.0561C66.1466 24.5559 66.0472 23.8558 65.5504 23.6557C65.1529 23.3557 64.2586 24.2559 63.6624 25.6562Z" fill="#131313"/>
<path d="M26.5991 30.6576C26.5991 31.3576 26.9966 31.9576 27.4934 31.9576C27.9902 31.9576 28.5864 31.3576 28.8845 30.6576C29.1826 29.8576 28.7852 29.2576 27.9902 29.2576C27.1953 29.2576 26.5991 29.8576 26.5991 30.6576Z" fill="#131313"/>
<path d="M13.7809 35.2584C14.7745 37.4589 18.4511 40.4595 19.1466 39.7594C19.7428 39.1593 14.6752 32.9579 13.5821 32.9579C13.0853 32.9579 13.1847 33.9581 13.7809 35.2584Z" fill="#131313"/>
<path d="M3.54624 37.6596C4.14243 37.8596 4.73862 38.8596 4.73862 39.7596C4.73862 41.0596 5.03672 41.0596 5.93101 40.1596C6.92466 39.1596 6.92466 38.6596 5.73228 37.9596C4.93735 37.4596 3.84433 37.0596 3.24814 37.0596C2.75131 37.0596 2.85068 37.3596 3.54624 37.6596Z" fill="#131313"/>
<path d="M95.4594 39.4599C94.6645 41.6599 96.0556 42.7599 97.1486 40.9599C98.4404 38.9599 98.341 37.9599 97.1486 37.9599C96.5524 37.9599 95.8569 38.6599 95.4594 39.4599Z" fill="#131313"/>
<path d="M7.22281 54.863C6.62662 55.963 8.1171 57.163 9.11076 56.263C10.005 55.363 9.80632 53.963 8.81266 53.963C8.21647 53.963 7.62028 54.363 7.22281 54.863Z" fill="#131313"/>
<path d="M0.0684774 57.1634C0.267208 57.8634 1.06213 58.4634 1.75769 58.4634C2.45325 58.4634 3.24817 57.8634 3.54627 57.1634C3.745 56.4634 3.04944 55.9634 1.75769 55.9634C0.465939 55.9634 -0.229619 56.4634 0.0684774 57.1634Z" fill="#131313"/>
<path d="M6.42789 58.6641C5.13614 59.9641 5.73233 61.8641 7.22282 61.3641C8.01774 60.9641 8.7133 60.1641 8.7133 59.3641C8.7133 57.8641 7.52091 57.4641 6.42789 58.6641Z" fill="#131313"/>
<path d="M4.73865 68.4659C4.73865 69.3659 5.23547 69.9659 5.83167 69.7659C6.42786 69.5659 6.92469 68.9659 6.92469 68.4659C6.92469 67.9659 6.42786 67.3659 5.83167 67.1659C5.23547 66.9659 4.73865 67.5659 4.73865 68.4659Z" fill="#131313"/>
<path d="M10.2038 69.5658C8.61398 70.8661 7.81905 71.9664 8.61398 71.9664C10.3032 71.9664 14.7746 77.0675 14.0791 78.1677C13.781 78.5678 14.0791 78.9679 14.6753 78.9679C16.0664 78.9679 14.9734 74.867 13.2842 73.6667C12.5886 73.2666 12.4892 72.6665 13.1848 72.1664C14.1784 71.4662 14.4765 68.4656 13.6816 67.6654C13.3835 67.3653 11.893 68.2655 10.2038 69.5658Z" fill="#131313"/>
<path d="M68.9288 83.5695C68.1339 85.6695 68.1339 85.9695 69.2269 85.9695C70.4193 85.9695 71.413 83.1695 70.4193 82.4695C69.9225 82.1695 69.2269 82.6695 68.9288 83.5695Z" fill="#131313"/>
<path d="M17.358 84.6699C16.9606 84.9699 16.6625 85.8699 16.6625 86.6699C16.6625 88.1699 19.246 88.4699 20.0409 87.0699C20.7365 85.9699 18.2523 83.7699 17.358 84.6699Z" fill="#131313"/>
<path d="M88.5038 85.6693C88.1064 86.6695 88.4045 87.5697 89.1 87.7698C89.9943 88.0699 89.9943 88.4699 89.0007 89.6702C88.007 90.8705 88.1064 91.4706 89.5968 92.4708C90.5905 93.271 91.9816 93.5711 92.7765 93.271C94.3664 92.6709 94.6645 90.3704 93.174 89.4702C92.6772 89.1701 92.1804 88.0699 92.1804 86.9696C92.1804 84.5691 89.2988 83.4688 88.5038 85.6693Z" fill="#131313"/>
<path d="M95.5587 85.4693C94.6644 87.7699 95.8568 89.9703 97.9435 89.9703C100.825 89.9703 102.713 87.3698 101.123 85.4693C100.428 84.6692 99.0365 83.969 97.9435 83.969C96.9498 83.969 95.8568 84.6692 95.5587 85.4693Z" fill="#131313"/>
<path d="M63.563 88.1701C62.8674 88.8702 62.3706 90.1705 62.3706 91.0707C62.3706 95.1716 70.5186 96.972 72.9033 93.3712C74.2945 91.3708 74.1951 91.0707 71.0154 89.0703C67.1401 86.6697 65.2522 86.4697 63.563 88.1701Z" fill="#131313"/>
<path d="M26.1023 89.7711C25.8042 90.0711 24.6118 90.3711 23.3201 90.4711C19.2461 90.7711 20.836 93.4711 25.1087 93.4711C28.3877 93.4711 29.1827 93.0711 29.3814 91.3711C29.6795 89.4711 27.4934 88.3711 26.1023 89.7711Z" fill="#131313"/>
<path d="M32.9584 90.2704C33.2565 91.2706 33.5546 92.5709 33.5546 93.071C33.5546 93.5711 34.0515 93.9712 34.5483 93.9712C35.9394 93.9712 35.7407 92.6709 33.9521 90.3704C32.561 88.67 32.4616 88.67 32.9584 90.2704Z" fill="#131313"/>
<path d="M79.6603 93.3711C78.2692 96.9719 80.9521 99.0724 84.2312 96.9719C85.4235 96.2717 85.4235 95.6716 84.6286 94.2713C83.1381 91.8708 80.3559 91.4707 79.6603 93.3711Z" fill="#131313"/>
<path d="M37.2313 97.6725C36.0389 98.7725 36.4363 99.9725 38.0262 99.9725C38.8211 99.9725 39.5167 99.2725 39.5167 98.4725C39.5167 96.8725 38.3243 96.4725 37.2313 97.6725Z" fill="#131313"/>
<path d="M104.104 108.975C104.104 109.475 104.8 109.975 105.595 109.975C106.39 109.975 107.085 109.475 107.085 108.975C107.085 108.375 106.39 107.975 105.595 107.975C104.8 107.975 104.104 108.375 104.104 108.975Z" fill="#131313"/>
<path d="M101.719 111.676C100.626 112.776 101.123 113.976 102.614 113.976C103.409 113.976 104.104 113.576 104.104 113.076C104.104 111.776 102.514 110.876 101.719 111.676Z" fill="#131313"/>
<path d="M79.3621 114.877C77.4741 116.077 78.7659 119.177 80.9519 118.777C81.9456 118.577 82.7405 117.577 82.7405 116.577C82.7405 114.377 81.3494 113.677 79.3621 114.877Z" fill="#131313"/>
<path d="M33.5547 115.976C33.5547 116.476 34.2502 116.976 35.0452 116.976C35.8401 116.976 36.5357 116.476 36.5357 115.976C36.5357 115.376 35.8401 114.976 35.0452 114.976C34.2502 114.976 33.5547 115.376 33.5547 115.976Z" fill="#131313"/>
<path d="M107.483 128.479C109.569 130.079 110.662 129.779 109.569 128.079C109.271 127.479 108.178 126.979 107.284 126.979C105.793 127.079 105.793 127.179 107.483 128.479Z" fill="#131313"/>
</svg>
