<svg width="545" height="601" viewBox="0 0 545 601" fill="none" xmlns="http://www.w3.org/2000/svg">
<path d="M210.063 5.43796C207.958 14.753 208.459 21.564 211.766 26.7725C214.673 31.3799 215.675 31.9809 232.011 39.493C241.732 44.0003 246.944 51.7128 249.549 65.3348C252.356 80.259 253.959 86.1685 256.064 88.9731L258.068 91.7776L255.062 95.1831C249.85 101.193 249.549 113.713 254.561 123.228L257.166 128.237L254.059 125.332C248.848 120.324 247.946 116.117 247.545 96.6855C247.244 83.6645 246.743 77.7549 245.44 73.6483C240.229 56.8211 229.205 45.0019 213.169 38.9922C205.052 35.8872 193.426 33.5835 187.012 33.6836L182.301 33.7838L188.816 35.1861C199.138 37.3896 209.361 42.9987 216.978 50.5109C228.804 62.33 232.011 71.7452 231.71 93.1799C231.61 100.892 231.911 108.805 232.312 110.708C233.113 114.214 233.113 114.214 231.109 112.411C227.401 109.005 221.989 97.0862 218.281 84.0651C213.771 68.1394 210.664 61.6288 204.751 55.519C197.034 47.6062 184.306 42.5981 171.578 42.5981H165.865L169.273 47.7063C172.78 52.8146 174.785 58.2233 174.785 62.6305C174.785 65.0344 175.086 65.1345 180.598 65.2347C191.722 65.3348 200.241 72.7468 207.557 88.5724C222.69 121.325 225.998 125.132 248.848 136.85C256.565 140.757 259.772 143.061 261.576 145.765C266.988 153.878 264.983 160.288 256.966 160.288C251.955 160.288 248.748 156.983 249.149 152.275C249.449 149.872 249.95 149.17 252.155 148.97C253.859 148.77 255.563 149.371 256.866 150.673C258.87 152.676 258.97 152.676 258.97 150.873C258.97 147.968 254.36 142.96 250.953 142.259C247.144 141.458 241.532 144.062 240.029 147.368C238.325 151.174 238.625 154.078 241.933 162.292C246.944 174.812 245.44 182.024 237.323 185.429C227.701 189.436 218.581 182.925 221.788 174.511C223.091 171.206 221.989 171.006 218.982 174.211C216.276 177.116 215.875 183.726 218.281 187.332C220.987 191.439 224.294 192.941 233.013 193.843C240.63 194.544 241.632 194.944 244.138 197.749C247.846 201.956 247.746 205.361 243.436 214.877C239.327 223.991 238.926 230.001 241.933 235.911C243.035 238.114 244.138 239.917 244.338 239.917C244.538 239.917 244.438 237.914 244.238 235.51C242.935 224.092 251.353 216.98 259.672 222.389C262.979 224.592 267.289 234.008 270.095 245.226C272.6 255.442 272.199 255.643 276.008 241.42C278.914 230.402 282.622 223.791 287.232 221.588C290.54 219.985 291.241 219.885 294.549 221.287C299.159 223.19 301.464 228.298 300.862 235.109C300.562 237.714 300.462 239.917 300.662 239.917C300.862 239.917 301.965 238.114 303.067 235.911C306.074 230.001 305.673 223.991 301.564 214.877C297.255 205.361 297.154 201.956 300.862 197.849C303.268 195.145 304.47 194.644 311.987 193.843C320.806 192.841 324.013 191.439 326.719 187.332C329.125 183.726 328.724 177.116 326.018 174.211C323.011 171.006 321.909 171.206 323.212 174.511C326.218 182.524 318.602 188.835 309.081 185.93C299.86 183.225 297.856 175.313 303.067 162.292C306.375 154.078 306.675 151.174 304.972 147.368C303.468 144.062 297.856 141.458 294.047 142.259C290.64 142.96 286.03 147.968 286.03 150.873C286.03 152.676 286.13 152.676 288.134 150.673C289.437 149.371 291.141 148.77 292.845 148.97C295.05 149.17 295.551 149.872 295.851 152.275C296.252 156.983 293.045 160.288 288.034 160.288C280.017 160.288 278.112 153.978 283.524 145.665C285.328 142.96 288.134 140.957 294.549 137.752C306.375 131.943 314.092 126.634 320.005 120.123C324.915 114.815 327.521 110.107 337.443 88.5724C344.759 72.7468 353.278 65.3348 364.402 65.2347C369.915 65.1345 370.215 65.0344 370.215 62.6305C370.215 58.2233 372.22 52.8146 375.727 47.7063L379.135 42.5981H373.422C360.594 42.5981 348.467 47.4058 340.349 55.519C334.136 61.729 331.029 68.1394 327.12 82.763C323.913 94.9828 317.599 109.005 313.991 112.211L311.887 114.214L312.689 109.707C313.19 107.203 313.39 99.3899 313.29 92.3786C312.889 72.0457 316.397 62.1297 328.022 50.5109C335.539 42.9987 345.661 37.4898 356.184 35.0859L362.699 33.5835L354.581 34.0843C330.127 35.6869 311.686 46.8049 302.867 65.2347C298.457 74.5497 297.054 83.4642 297.255 99.8907C297.455 115.716 296.152 120.624 290.64 125.733L287.834 128.237L290.54 123.028C295.551 113.513 294.949 100.592 289.337 94.5821L286.932 91.9779L289.337 88.2719C291.041 85.7679 292.344 81.5611 293.546 74.8502C297.756 50.5109 301.865 44.0003 317.098 37.6901C331.63 31.6804 336.14 26.472 336.14 15.955C336.14 12.7498 335.539 7.74168 334.737 5.03731L333.434 0.0292101L332.733 5.03731C330.628 18.9598 325.417 24.1682 304.972 32.5819C296.653 35.9874 289.938 40.9955 287.333 46.0036C286.03 48.2071 285.428 52.6143 285.028 61.6288C284.627 71.9455 284.126 74.7501 282.422 77.4544L280.417 80.7598L280.818 72.4463C281.119 65.7355 280.818 62.9309 279.115 58.1232C276.609 51.0117 276.509 48.5076 278.613 44.5011C281.219 39.3929 281.42 32.7822 279.315 26.2717L277.311 20.5624H279.716C284.426 20.5624 286.531 24.4687 286.03 32.081C285.829 34.6853 286.03 34.8856 287.533 33.5835C294.047 28.1747 293.145 15.354 285.829 11.4477C282.522 9.64476 264.382 9.34427 260.273 11.047C252.155 14.4525 250.451 27.7741 257.367 33.4833C258.77 34.6853 258.97 34.2846 258.97 29.6772C258.97 23.8678 261.275 20.5624 265.284 20.5624H267.689L265.685 26.2717C263.58 32.682 263.781 37.4898 266.687 45.6029C268.391 50.3105 268.391 50.611 266.086 57.6224C264.182 63.4318 263.781 66.1361 264.182 72.7468L264.683 80.7598L262.578 77.4544C260.874 74.7501 260.373 72.0457 259.972 61.6288C259.572 52.6143 258.97 48.2071 257.667 46.0036C255.062 40.9955 248.347 35.9874 240.029 32.5819C227.501 27.3734 224.294 25.6707 220.486 21.9647C215.875 17.4574 214.071 14.0519 212.568 6.33942L211.265 0.129372L210.063 5.43796ZM273.903 71.645C273.903 74.6499 273.703 78.2557 273.302 79.5578C272.7 81.8616 272.6 81.8616 271.899 80.0586C270.896 77.6548 270.796 67.939 271.698 64.7339C272.3 62.4301 272.4 62.4301 273.101 64.2331C273.502 65.2347 273.903 68.6402 273.903 71.645ZM269.393 101.994L272.5 105.299L275.607 101.994C279.014 98.3883 281.119 97.8875 283.424 100.291C287.032 103.797 284.527 112.812 276.509 125.332L272.801 131.141L270.295 128.237C265.986 122.828 259.972 109.707 259.972 105.7C259.972 101.694 261.977 98.6888 264.683 98.6888C265.585 98.6888 267.689 100.191 269.393 101.994ZM268.09 170.906C269.493 173.61 268.591 179.72 265.986 185.129C264.883 187.332 264.182 189.335 264.382 189.536C264.583 189.736 266.487 188.234 268.591 186.13L272.5 182.324L276.409 186.13C278.513 188.234 280.417 189.736 280.618 189.536C280.818 189.335 280.117 187.332 279.014 185.129C274.905 176.615 275.507 168.802 280.317 168.802C284.627 168.802 286.531 171.707 287.533 179.419C288.736 188.334 282.622 206.964 275.306 216.68C272.901 219.785 272.7 219.885 270.997 218.382C267.689 215.377 261.175 201.555 258.97 192.841C256.164 181.923 257.166 172.408 261.376 169.603C263.58 168.101 266.888 168.802 268.09 170.906Z" fill="#131313"/>
<path d="M97.7152 26.0714C76.9695 29.9777 62.1369 39.4931 58.0278 51.5125C52.8163 66.8373 56.0234 79.0571 70.7558 99.39C77.8715 109.106 80.377 115.216 81.1788 124.831C81.9806 132.944 82.9828 132.343 84.6865 122.527C86.5907 112.01 84.7867 104.198 76.9695 88.9731C69.1523 73.8487 66.5466 66.4367 66.5466 59.6257C66.5466 53.8163 68.0499 50.3106 72.2592 46.5044C76.9695 41.9972 81.5797 40.2944 89.6976 39.7936C101.022 39.0925 105.933 40.9955 122.57 52.1135C138.305 62.6305 150.932 69.0409 163.56 73.0474C168.17 74.4496 172.079 75.6516 172.38 75.6516C172.68 75.6516 171.778 74.2493 170.275 72.5466C166.667 68.2396 163.56 61.7291 160.253 51.813C156.946 41.7968 152.937 36.2879 146.122 32.4818C134.897 26.0714 112.648 23.1667 97.7152 26.0714Z" fill="#131313"/>
<path d="M418.321 26.0713C403.99 28.7757 395.07 33.1828 390.259 39.6933C388.656 41.8969 385.749 48.5076 383.845 54.4171C381.34 61.729 378.934 66.8372 376.228 70.4431L372.22 75.6515L375.026 75.0505C389.458 71.5448 405.292 63.7322 424.034 51.0116C438.666 41.0956 444.078 39.0924 455.303 39.7935C463.42 40.2943 468.031 41.9971 472.741 46.5044C476.95 50.3105 478.454 53.8162 478.454 59.6256C478.454 66.3364 475.848 73.8486 468.131 88.7727C459.412 105.9 458.008 113.012 461.115 126.033L462.819 133.245L463.621 125.732C464.823 114.815 466.828 109.907 474.244 99.49C489.177 78.5562 492.184 66.6369 486.772 51.1118C483.064 40.7951 470.536 31.8807 453.699 27.4736C443.376 24.8694 428.043 24.1682 418.321 26.0713Z" fill="#131313"/>
<path d="M80.5774 47.3053C80.5774 47.6058 81.9805 50.4103 83.6842 53.6155C87.9937 61.8288 95.2096 69.4411 104.33 75.6512C108.639 78.5559 112.448 81.2602 112.848 81.5607C114.151 82.7627 96.2118 80.7594 91.301 79.257C87.3924 78.055 86.6909 78.055 87.5928 79.1568C89.7977 81.761 111.245 91.6771 120.064 94.1811C125.075 95.5834 129.886 97.4865 130.888 98.3879C133.594 100.892 132.692 103.897 128.683 105.9C123.271 108.604 115.154 108.104 104.129 104.197C100.922 103.096 109.541 110.508 115.454 113.913C118.26 115.516 120.666 117.118 120.666 117.319C120.666 117.519 119.263 118.621 117.559 119.622L114.452 121.525L118.862 123.028C121.267 123.929 124.474 124.831 126.078 125.231C128.683 125.732 128.884 126.133 128.383 129.238C127.882 132.042 126.579 135.548 122.871 143.16C122.57 143.661 124.374 142.96 126.679 141.658C136.601 136.149 144.518 126.533 146.823 117.419C147.425 114.714 148.527 112.711 149.329 112.711C150.03 112.711 152.335 114.113 154.34 115.916L157.948 119.121L157.647 114.514C157.246 110.007 157.346 109.806 160.253 109.406C161.856 109.105 165.865 109.306 169.172 109.907C172.38 110.407 175.286 110.608 175.486 110.307C175.787 110.107 174.384 108.104 172.38 105.9C168.27 101.393 161.155 97.4865 147.525 92.2781C136.801 88.1714 128.683 82.0615 126.779 76.6528L125.777 73.6479L129.986 74.2489C138.204 75.3507 146.222 77.7546 151.433 80.5591C157.146 83.6641 157.246 82.6625 151.734 77.9549C143.917 71.3442 137.904 68.74 122.67 65.4346C108.739 62.4298 97.8153 58.223 88.6953 52.2133C84.1853 49.2084 80.5774 47.105 80.5774 47.3053Z" fill="#131313"/>
<path d="M456.906 51.8131C448.287 57.7227 437.263 62.1298 423.132 65.2348C406.796 68.9408 401.885 71.0442 393.065 77.9554C388.556 81.5612 386.852 84.7664 391.061 81.8617C394.669 79.3577 403.689 76.0523 409.301 75.251C411.807 74.8504 415.014 74.3496 416.517 74.0491C419.223 73.5483 419.223 73.5483 418.221 76.5531C416.317 82.062 408.199 88.1719 397.475 92.2786C383.645 97.487 376.629 101.493 372.62 106.101C370.816 108.204 369.413 110.208 369.614 110.408C369.814 110.608 372.62 110.408 375.828 109.907C379.135 109.306 383.144 109.106 384.747 109.406C387.654 109.807 387.754 110.007 387.353 114.515L387.052 119.122L390.66 115.917C392.665 114.114 394.97 112.712 395.671 112.712C396.373 112.712 397.676 115.316 398.578 118.721C400.682 126.233 406.796 133.846 415.214 139.555C418.722 141.859 421.729 143.662 421.929 143.461C422.129 143.361 421.127 140.957 419.724 138.153C418.421 135.348 417.018 131.442 416.617 129.439C416.116 126.133 416.317 125.833 418.922 125.232C420.526 124.831 423.733 123.93 426.138 123.028L430.548 121.526L427.441 119.623C425.737 118.621 424.334 117.519 424.334 117.319C424.334 117.119 426.74 115.516 429.646 113.914C435.459 110.508 444.078 103.096 440.871 104.198C429.846 108.104 421.729 108.605 416.317 105.901C412.308 103.897 411.406 100.892 414.112 98.3884C415.114 97.487 419.925 95.5839 424.936 94.1816C433.855 91.6776 451.695 83.4643 456.405 79.7583L458.91 77.7551L453.899 79.2575C448.788 80.7599 430.748 82.7632 432.152 81.5612C432.552 81.2607 436.361 78.5564 440.67 75.6517C449.891 69.3415 457.006 61.8293 461.416 53.4157C463.22 50.1104 464.423 47.406 464.222 47.2057C464.122 47.1055 460.815 49.1087 456.906 51.8131Z" fill="#131313"/>
<path d="M180.798 78.8564C178.192 84.5656 178.192 93.5802 180.698 98.4882C181.7 100.491 184.206 104.598 186.21 107.603C190.319 113.613 190.62 115.516 188.014 118.821C186.31 120.724 184.907 121.125 175.987 121.726C167.669 122.327 165.063 122.928 161.355 125.131C155.342 128.637 150.131 135.548 147.725 143.561C145.12 151.975 145.22 153.377 148.126 147.768C151.233 141.958 156.745 136.249 162.057 133.545C165.264 131.942 169.072 131.241 177.892 130.74C190.319 129.939 194.027 128.737 197.034 124.731C201.945 118.02 200.241 109.506 191.923 100.391C185.007 92.7789 182.502 86.8694 182.903 79.7579C183.103 76.9533 183.203 74.6496 183.003 74.6496C182.802 74.6496 181.8 76.5527 180.798 78.8564Z" fill="#131313"/>
<path d="M362.097 79.7583C362.598 86.9699 359.892 92.8795 353.077 100.291C344.859 109.106 342.955 118.02 347.966 124.731C350.973 128.737 354.681 129.939 367.108 130.741C375.928 131.242 379.736 131.943 382.943 133.545C388.155 136.25 393.767 141.859 396.874 147.768C398.979 151.675 399.279 151.875 398.778 149.271C397.375 141.759 393.767 134.347 389.357 129.839C383.745 124.13 377.632 121.726 368.311 121.726C356.285 121.726 352.677 117.419 357.788 109.206C365.705 96.4853 366.206 95.3835 366.206 89.1735C366.206 85.3673 365.405 81.5612 364.202 78.8568C363.2 76.5531 362.198 74.65 361.997 74.65C361.797 74.65 361.897 76.9537 362.097 79.7583Z" fill="#131313"/>
<path d="M194.228 83.6645C202.446 92.8794 207.657 109.005 205.853 120.424C204.55 128.637 199.439 136.55 192.123 141.758L187.713 144.964L181.9 143.361C174.885 141.458 167.769 142.46 161.155 146.266C156.044 149.271 153.438 152.376 151.133 158.285C148.627 164.896 149.629 177.516 153.137 184.828C156.244 191.439 156.444 197.649 153.839 203.458C151.433 208.667 145.921 214.075 140.509 216.379C116.957 226.195 108.238 232.806 95.4101 249.933C89.2966 258.046 73.4617 283.287 74.0631 283.888C74.2635 284.089 76.3681 282.586 78.6732 280.583C83.6842 276.276 95.6105 271.368 95.6105 273.572C95.6105 273.972 92.3032 277.678 88.2944 281.985C78.4728 292.202 75.0653 299.113 75.0653 308.528C75.0653 313.837 75.6666 316.541 77.2701 319.546L79.475 323.552L78.7734 320.047C77.4706 313.837 78.0719 304.722 79.9761 301.016C80.9783 299.113 88.1942 291.2 96.0114 283.488C109.942 269.866 114.652 263.455 117.158 254.941C117.859 252.538 117.759 252.538 114.552 255.643C111.445 258.547 105.131 261.953 102.726 261.953C102.225 261.953 102.927 259.849 104.43 257.145C107.737 251.135 118.962 239.817 124.274 237.113L128.483 235.009L128.984 237.814C130.086 243.022 127.982 252.237 123.772 260.951C116.456 276.176 116.156 284.489 122.069 308.127C127.882 331.265 128.984 346.59 125.677 358.008C123.973 364.018 125.376 362.515 128.082 355.404C135.398 336.173 135.498 320.247 128.683 300.014C124.474 287.694 127.28 269.465 134.296 262.954L136.601 260.651L137.703 263.455C139.908 269.365 140.008 274.573 137.803 283.688C135.398 294.005 135.097 306.024 137.002 313.536L138.405 318.544L139.106 310.632C139.808 303.22 141.211 297.811 147.124 281.484C148.527 277.578 149.73 272.37 149.73 269.866C149.73 264.757 147.525 256.344 144.518 250.634C142.113 245.927 141.912 236.712 144.117 231.604C144.919 229.5 149.73 223.591 154.64 218.382C162.357 210.269 163.961 208.066 165.364 203.158C167.368 196.347 166.667 190.838 162.257 178.919C160.153 173.109 159.752 170.505 160.253 167.099C161.856 156.482 174.384 150.072 181.5 156.182C187.613 161.49 183.604 171.807 175.286 171.807C172.881 171.807 170.776 170.906 168.27 168.702L164.763 165.597V168.201C164.763 174.511 171.578 180.721 178.593 180.822C187.513 180.922 195.029 172.007 195.029 161.49C194.929 156.582 195.13 156.382 202.245 149.371C206.254 145.464 210.764 140.657 212.267 138.754L215.074 135.248L214.472 142.56C214.071 148.469 213.169 151.574 209.561 159.086C207.056 164.095 203.047 170.605 200.742 173.51C198.337 176.314 193.727 181.723 190.519 185.529C187.312 189.235 183.604 194.644 182.201 197.549C177.19 207.665 179.395 219.184 188.214 229.4L191.722 233.407L189.016 227.898C187.212 224.192 186.21 220.386 186.01 215.678C185.609 209.869 186.01 208.066 188.515 202.657C190.219 199.051 194.228 193.342 197.936 189.335C205.853 180.721 212.267 172.308 217.379 163.994C221.788 156.683 223.693 155.38 227.3 156.783C231.009 158.185 232.211 161.19 231.71 168.902C231.51 172.608 231.71 175.413 232.111 175.213C232.512 174.912 233.614 172.208 234.516 169.103C236.621 161.791 235.919 155.581 231.81 146.767C230.107 142.96 229.004 139.455 229.305 138.854C230.307 137.351 232.612 137.451 233.213 138.954C233.614 139.855 233.815 139.855 233.815 138.854C233.915 138.052 229.906 133.545 225.096 128.838C216.777 120.724 216.176 119.723 213.169 111.409C209.161 100.392 204.149 91.3769 198.938 85.9682C193.125 79.9585 189.116 78.0554 194.228 83.6645Z" fill="#131313"/>
<path d="M350.572 81.861C343.557 87.0695 337.243 96.7852 332.633 109.205C328.624 120.123 327.12 122.427 319.804 128.937C312.288 135.548 309.882 138.853 312.989 138.052C316.297 137.15 316.397 139.755 313.19 146.766C309.081 155.58 308.379 161.79 310.484 169.102C311.386 172.207 312.488 174.912 312.889 175.212C313.29 175.412 313.49 172.608 313.29 168.902C312.789 161.189 313.991 158.184 317.7 156.782C321.308 155.38 323.412 156.882 327.12 163.293C331.029 170.204 339.748 181.422 347.465 189.736C350.873 193.442 354.781 198.95 356.485 202.556C358.991 208.065 359.391 209.868 358.991 215.677C358.79 220.385 357.788 224.191 355.984 227.897L353.278 233.406L356.786 229.4C362.699 222.488 365.204 216.379 365.204 208.866C365.204 200.453 362.498 194.844 353.378 184.327C342.153 171.306 339.147 166.999 334.938 158.184C331.931 151.574 330.929 148.068 330.428 142.459L329.927 135.247L332.733 138.753C334.236 140.656 338.746 145.464 342.655 149.37L349.87 156.482L350.372 162.992C350.873 171.005 353.779 175.913 359.792 178.818C364.803 181.322 367.509 181.322 372.921 178.918C377.431 176.815 380.237 172.708 380.237 168.201V165.596L376.73 168.701C369.814 174.711 360.694 171.406 360.694 162.792C360.694 152.375 373.723 150.472 381.54 159.787C385.85 164.895 385.95 169.703 381.841 182.023C377.832 194.042 377.531 196.246 379.836 203.758C381.039 207.965 383.044 210.77 390.36 218.482C395.371 223.69 400.081 229.5 400.883 231.603C403.088 236.711 402.887 245.926 400.482 250.634C397.475 256.343 395.27 264.757 395.27 269.865C395.27 272.369 396.473 277.578 397.876 281.484C403.689 297.61 405.092 302.919 405.894 310.531L406.595 318.544L407.898 313.536C409.903 306.024 409.602 294.004 407.197 283.687C404.992 274.573 405.092 269.364 407.297 263.455L408.399 260.65L410.704 262.954C415.014 266.96 417.62 274.573 418.121 284.489C418.421 292.502 418.121 294.605 415.315 303.52C409.402 321.849 410.304 341.481 417.82 357.206C419.223 360.211 420.125 361.714 419.724 360.612C419.424 359.51 418.622 354.702 418.021 349.794C416.617 338.877 417.92 328.059 422.831 308.528C428.945 284.188 428.544 275.274 420.726 259.849C417.018 252.337 414.914 242.922 416.016 237.813L416.517 235.009L420.726 237.112C426.038 239.817 437.263 251.135 440.57 257.145C442.073 259.849 442.775 261.952 442.274 261.952C439.869 261.952 433.555 258.547 430.448 255.642C427.241 252.537 427.141 252.537 427.842 254.941C430.348 263.455 435.058 269.865 448.989 283.487C456.806 291.2 464.022 299.112 465.024 301.015C466.928 304.721 467.53 313.836 466.227 320.046L465.525 323.552L467.73 319.545C469.334 316.541 469.935 313.836 469.935 308.528C469.935 299.012 466.527 292.201 456.605 281.784C452.496 277.477 449.39 273.671 449.69 273.371C450.793 272.269 460.514 276.175 464.723 279.38C471.438 284.489 471.939 284.589 469.434 280.382C443.176 237.413 434.356 228.699 404.591 216.379C402.286 215.377 398.678 212.973 396.674 210.97C388.957 203.358 387.353 194.443 391.863 184.828C395.371 177.516 396.373 164.895 393.867 158.285C391.562 152.375 388.957 149.27 383.845 146.265C377.231 142.359 370.115 141.457 362.999 143.36L357.187 145.063L353.478 142.159C341.652 133.244 337.343 122.827 339.247 108.704C340.35 100.792 345.561 89.3732 350.672 83.7641C354.882 79.0565 354.882 78.6559 350.572 81.861Z" fill="#131313"/>
<path d="M441.272 117.319C438.866 122.628 438.566 130.941 440.67 135.849C443.877 143.561 450.191 148.469 460.013 150.873C472.741 153.978 481.861 160.689 486.872 170.705C493.487 183.626 504.21 189.536 514.232 185.73C519.845 183.626 525.457 175.814 525.557 170.004C525.557 167.7 525.457 167.7 523.052 170.705C521.649 172.308 518.441 174.411 516.036 175.413C511.827 177.016 511.226 177.016 507.016 175.413C501.504 173.31 498.297 169.503 495.491 162.091C489.979 147.267 483.966 142.059 468.632 139.154C462.819 138.053 460.213 136.951 457.908 134.847C456.305 133.345 453.498 131.542 451.695 130.841C445.381 128.337 442.073 122.327 443.476 115.917C444.479 111.409 443.577 111.91 441.272 117.319Z" fill="#131313"/>
<path d="M101.924 118.02C101.924 123.93 99.6194 127.435 93.6062 130.44C91.2009 131.742 88.094 133.846 86.5907 135.248C84.7867 136.951 81.7801 138.153 76.3682 139.154C61.0345 142.059 55.0212 147.267 49.5091 162.091C46.7029 169.503 43.4958 173.31 37.9837 175.413C33.7744 177.016 33.1731 177.016 28.9638 175.413C26.5585 174.411 23.3515 172.308 21.9484 170.705C19.5431 167.7 19.4429 167.7 19.4429 170.004C19.5431 173.209 22.7502 179.92 25.5563 182.524C32.3713 188.734 43.4958 188.033 50.8119 181.022C52.4155 179.52 55.823 174.812 58.3285 170.405C65.0433 159.087 71.8583 154.179 84.9872 150.873C94.8088 148.469 101.123 143.561 104.33 135.849C106.334 131.041 106.134 123.028 103.829 117.72L101.824 113.212L101.924 118.02Z" fill="#131313"/>
<path d="M114.753 133.244C112.848 138.553 105.432 145.564 92.0026 154.479C78.8737 163.293 61.8362 176.615 56.9253 181.923C43.1951 196.647 34.977 213.274 32.0706 232.405C31.5695 235.61 32.1708 234.708 34.8768 228.198C46.1015 201.254 68.0498 183.125 104.63 170.304C117.358 165.897 118.661 165.897 111.646 170.104C95.5103 179.82 77.3704 194.944 71.4573 203.458C69.8538 205.862 67.8494 209.768 67.0476 212.072C64.4419 219.584 63.2392 220.886 56.1236 224.592C46.0013 229.801 35.6786 240.618 27.6609 254.24C20.8459 265.759 18.3404 268.363 12.3271 270.166C9.12008 271.067 7.71699 270.967 4.20927 269.665L0 267.962L2.9064 270.967C4.71037 272.87 8.01765 274.673 11.1245 275.575C15.9351 276.977 16.9373 276.977 21.7479 275.575C28.7633 273.571 32.9726 268.964 39.3867 256.243C47.2039 240.919 52.6158 234.508 59.3306 232.405C61.1346 231.904 60.5333 232.805 57.1258 236.011C50.9121 241.72 47.2039 249.833 43.1951 266.76C41.2909 274.573 38.9858 281.885 37.8834 283.187C36.8812 284.489 32.3713 288.896 28.0618 293.003C13.2291 307.025 7.71699 319.045 8.7192 335.471C9.01986 340.48 9.92185 346.589 10.7236 349.093L12.2269 353.601L12.3271 345.588C12.5276 329.862 17.5386 316.941 28.0618 305.223C31.0684 301.817 33.9748 299.012 34.3757 299.012C35.0772 299.012 37.7832 315.439 37.7832 319.946C37.7832 327.959 36.1797 332.166 28.5629 344.486C18.641 360.412 15.9351 368.224 16.0353 380.644C16.1355 388.557 18.2402 400.276 20.2446 403.882C20.6455 404.483 20.9461 399.976 21.0463 393.866C21.0463 381.546 23.0508 374.635 29.1642 364.719L32.1708 360.011L31.6697 370.929C31.1686 383.048 33.0728 393.165 37.8834 403.181C39.3867 406.186 40.2887 407.788 39.988 406.687C39.5872 405.585 38.8856 401.178 38.2843 396.971C36.0794 381.145 40.2887 366.121 52.5156 346.089C62.0366 330.563 63.6401 325.155 63.3395 309.63C63.0388 299.213 63.3395 297.009 64.8428 294.605C67.8494 290.098 65.9452 290.399 62.6379 295.006C59.7315 299.012 58.7293 302.418 55.5222 319.245C54.8207 322.651 53.0167 326.958 51.2128 329.762C47.2039 335.672 44.8989 336.673 47.0035 331.665C48.9077 327.158 48.9077 316.14 47.0035 309.029C44.9991 301.416 45.0993 299.213 48.1059 293.203C50.2106 288.996 52.8163 286.292 61.5355 279.481C79.2745 265.558 87.0918 256.043 98.3165 234.508C107.837 216.379 115.454 210.269 130.387 208.867C140.008 208.065 141.512 207.064 144.719 199.652C147.725 192.64 147.625 184.427 144.318 177.316C142.915 174.311 141.612 171.807 141.411 171.807C141.111 171.807 141.211 173.71 141.411 176.114C141.712 178.618 141.311 181.823 140.509 183.826C137.703 190.437 133.995 193.542 121.868 199.451C106.935 206.763 100.02 213.374 90.6997 229.4C87.192 235.41 82.5818 243.222 80.377 246.628C75.7668 253.839 65.9452 263.355 59.5311 266.86L55.2216 269.264L55.8229 263.956C56.8251 255.642 60.8339 248.631 68.8516 241.119C88.5951 222.589 93.5059 216.479 96.1116 207.865C96.8132 205.661 96.2118 205.962 92.0026 209.868C87.192 214.376 79.0741 218.783 77.9717 217.581C76.8693 216.479 81.6798 207.965 86.29 202.857C92.203 196.246 100.622 190.337 113.35 183.826C124.775 178.117 131.89 172.207 136.501 164.996C140.209 159.286 142.714 150.372 142.714 142.76V137.251L140.81 140.356C137.202 146.265 127.882 151.774 117.459 154.278C109.04 156.282 109.14 156.282 112.147 152.275C115.454 147.968 117.659 140.957 117.659 134.546C117.659 128.837 116.557 128.336 114.753 133.244Z" fill="#131313"/>
<path d="M427.341 134.546C427.341 140.957 429.546 147.968 432.853 152.275C435.86 156.282 435.96 156.282 427.541 154.278C417.118 151.774 407.798 146.265 404.19 140.356L402.286 137.251V142.76C402.286 150.372 404.791 159.286 408.499 164.996C413.11 172.207 420.225 178.117 431.65 183.826C444.479 190.437 452.797 196.246 458.91 203.057C463.621 208.266 468.131 216.479 467.028 217.681C465.826 218.883 456.104 213.274 452.296 209.167C447.586 203.959 447.285 205.461 451.594 213.975C454.701 220.285 458.81 224.792 476.148 241.119C484.166 248.631 488.175 255.642 489.177 263.956L489.778 269.264L485.469 266.86C479.055 263.355 469.233 253.839 464.623 246.628C462.418 243.222 457.808 235.41 454.3 229.4C445.08 213.574 437.964 206.663 423.031 199.451C407.597 191.939 402.486 185.729 403.589 176.014C403.99 172.007 403.889 171.907 402.586 173.71C397.676 180.821 396.673 191.338 400.281 199.652C403.488 207.064 404.992 208.065 414.613 208.867C429.546 210.269 437.163 216.379 446.684 234.508C457.908 256.043 465.725 265.558 483.465 279.481C492.184 286.292 494.789 288.996 496.894 293.203C499.901 299.213 500.001 301.416 497.997 309.029C496.193 315.84 496.092 326.357 497.896 331.265C499.6 335.972 498.397 336.173 495.19 331.765C491.182 326.457 490.38 324.253 488.476 313.636C486.271 301.817 485.268 298.712 481.761 294.205C478.754 290.298 477.451 290.599 480.157 294.605C481.661 297.009 481.961 299.213 481.661 309.63C481.36 325.155 482.863 330.063 492.585 346.289C505.012 367.022 508.921 381.145 506.716 396.971C506.114 401.178 505.413 405.585 505.012 406.687C504.711 407.788 505.613 406.186 507.117 403.181C511.927 393.165 513.831 383.048 513.33 370.929L512.829 360.011L515.535 364.318C517.038 366.722 519.544 371.73 521.047 375.636C523.653 381.846 523.954 383.85 524.054 393.866C524.054 399.976 524.355 404.483 524.755 403.882C526.86 399.976 528.864 388.657 528.965 380.144C528.965 367.824 526.259 360.011 516.638 344.686C508.52 331.866 507.517 329.161 507.517 320.547C507.517 313.536 509.622 299.012 510.624 299.012C511.025 299.012 513.932 301.817 516.938 305.223C527.662 317.342 532.974 331.365 532.372 346.189C532.172 350.496 532.372 353.701 532.773 353.501C534.076 352.599 536.581 338.977 536.581 332.266C536.581 317.943 530.468 305.823 516.938 293.003C505.914 282.686 504.912 281.083 502.406 268.964C499.099 252.838 495.19 243.623 489.077 237.213C483.565 231.704 484.868 230.802 491.282 235.61C495.892 239.015 499.5 244.324 505.613 256.243C512.027 268.964 516.237 273.571 523.252 275.575C528.063 276.977 529.065 276.977 533.876 275.575C536.982 274.673 540.29 272.87 542.094 270.967L545 267.962L540.791 269.665C537.283 270.967 535.88 271.067 532.673 270.166C526.66 268.363 524.154 265.759 517.339 254.24C509.321 240.518 499.099 230.001 488.476 224.392C481.059 220.485 480.959 220.285 478.754 214.075C475.748 205.762 472.039 200.553 463.42 192.54C456.305 185.93 440.971 174.611 432.352 169.503C426.339 165.897 428.143 166.098 440.37 170.304C476.95 183.125 498.899 201.254 510.123 228.198C512.929 234.708 513.431 235.61 512.929 232.405C508.219 201.355 493.386 181.923 454.401 155.48C439.568 145.464 432.152 138.653 430.247 133.244C428.443 128.336 427.341 128.837 427.341 134.546Z" fill="#131313"/>
<path d="M202.346 223.39C203.047 230.201 207.557 244.424 211.365 251.936C214.372 257.946 214.472 259.248 211.766 263.555L209.662 266.961L211.766 270.366C212.969 272.169 213.871 275.274 213.871 277.077C213.871 279.782 216.978 286.993 218.08 286.993C218.281 286.993 218.381 283.988 218.481 280.182C218.481 275.374 219.183 271.668 221.087 266.961C225.296 256.444 225.296 256.644 221.488 251.836C214.272 242.822 208.559 233.607 205.152 225.594L201.744 217.381L202.346 223.39Z" fill="#131313"/>
<path d="M339.748 225.394C337.042 232.605 330.728 242.822 323.613 251.736C319.704 256.644 319.704 257.546 323.913 266.961C325.817 271.067 326.419 274.273 326.519 279.681C326.619 283.688 326.719 286.993 326.92 286.993C328.022 286.993 331.129 279.782 331.129 277.077C331.129 275.274 332.031 272.169 333.234 270.366L335.238 267.061L332.933 263.054C330.929 259.649 330.828 258.647 331.831 256.243C338.846 239.416 340.45 234.909 341.753 228.699C343.957 218.282 343.055 216.88 339.748 225.394Z" fill="#131313"/>
<path d="M164.362 240.218C164.663 241.42 166.567 245.426 168.371 249.132L171.778 255.943H166.567C163.66 255.943 159.451 256.845 157.246 257.847L153.237 259.649L158.449 260.25C161.355 260.551 164.562 261.352 165.665 261.853C167.469 262.855 167.469 262.955 165.565 266.861C164.262 269.566 163.761 272.27 163.961 275.675C164.262 280.183 164.362 280.283 165.464 277.979C166.066 276.577 167.268 274.874 168.07 274.173C169.273 273.171 169.573 273.672 170.074 277.879C171.377 288.596 177.591 297.611 186.511 301.718C189.217 302.919 193.125 303.42 200.441 303.42L210.463 303.52L210.063 311.233C209.862 315.44 209.862 320.147 210.263 321.55C210.864 324.054 211.165 323.853 213.971 318.244C215.575 314.939 219.082 310.031 221.788 307.226L226.799 302.318L222.791 298.412C218.18 293.905 213.57 286.994 211.967 281.986C211.065 279.482 208.659 276.877 203.648 272.971C199.84 269.966 194.528 264.658 192.023 261.252C188.315 256.244 186.711 254.942 184.606 254.942C182.602 254.942 181.299 253.84 178.894 250.334C177.19 247.73 176.088 245.226 176.388 244.725C176.789 244.124 178.794 243.924 180.999 244.124C184.907 244.525 184.907 244.425 182.903 242.722C180.999 241.22 177.591 240.318 166.968 238.515C163.861 238.014 163.66 238.115 164.362 240.218ZM198.537 277.578C199.339 279.682 197.234 281.785 195.731 280.283C194.428 278.981 195.23 275.976 196.833 275.976C197.435 275.976 198.136 276.677 198.537 277.578ZM186.811 279.381C186.811 280.083 188.014 281.885 189.417 283.388C192.925 286.793 197.134 286.793 200.241 283.488C202.546 280.984 202.646 280.984 203.147 283.087C203.849 285.692 202.646 289.097 200.441 290.9C198.337 292.603 192.323 291.701 189.517 289.297C186.21 286.293 182.803 275.575 185.809 277.478C186.41 277.779 186.811 278.68 186.811 279.381Z" fill="#131313"/>
<path d="M372.42 239.417C366.507 240.518 360.193 242.922 360.193 244.224C360.193 244.324 361.897 244.324 364.102 244.124C366.206 243.924 368.211 244.124 368.612 244.725C368.912 245.226 367.81 247.73 366.106 250.334C363.701 253.94 362.398 254.942 360.193 254.942C358.088 254.942 356.886 255.843 354.781 258.948C351.674 263.656 342.654 272.67 337.744 276.076C335.539 277.578 333.735 279.882 333.033 281.985C331.43 286.893 326.92 293.805 322.209 298.412L318.301 302.318L323.111 307.126C325.717 309.73 329.325 314.638 331.029 318.044C333.835 323.853 334.136 324.053 334.737 321.549C335.138 320.147 335.138 315.439 334.937 311.233L334.537 303.52L344.559 303.42C351.875 303.42 355.783 302.919 358.489 301.717C367.409 297.611 373.623 288.596 374.925 277.879C375.527 273.071 375.627 272.971 377.331 274.573C378.433 275.575 379.235 276.877 379.235 277.578C379.235 278.279 379.736 279.181 380.438 279.582C382.141 280.683 380.738 268.464 378.834 265.459C377.331 263.155 377.331 262.955 379.235 261.953C380.337 261.352 383.645 260.551 386.551 260.25L391.763 259.649L387.754 257.846C385.549 256.845 381.34 255.943 378.433 255.943H373.222L376.629 249.132C380.438 241.42 381.74 237.914 380.538 238.014C380.137 238.014 376.429 238.715 372.42 239.417ZM349.87 277.578C350.672 279.682 348.567 281.785 347.064 280.283C345.761 278.981 346.563 275.976 348.167 275.976C348.768 275.976 349.469 276.677 349.87 277.578ZM359.191 283.388C357.587 288.396 353.979 291.3 349.069 291.401C343.957 291.501 340.65 287.995 341.752 283.688L342.354 280.984L344.759 283.488C348.968 287.995 355.583 285.892 358.389 279.181C359.993 275.275 360.694 278.88 359.191 283.388Z" fill="#131313"/>
<path d="M107.036 289.097C100.02 300.215 98.3164 307.727 98.2162 329.062C98.0158 349.595 97.0136 353.001 87.7933 366.523C75.6666 384.151 74.2635 386.455 71.9584 392.965C70.6555 396.771 69.6533 401.88 69.6533 404.684V409.692L70.9562 405.686C74.063 395.87 80.0763 386.655 90.6997 375.537C107.336 358.109 110.142 350.296 107.637 327.459C105.733 310.833 106.033 299.013 108.539 291.201C109.541 287.795 110.243 284.991 110.042 284.991C109.842 284.991 108.539 286.894 107.036 289.097Z" fill="#131313"/>
<path d="M150.832 291.2C145.821 302.118 145.22 308.828 147.324 326.757C148.727 338.677 148.828 343.284 148.026 347.291C147.124 351.698 147.224 352.199 148.327 350.596C149.128 349.594 150.732 346.189 151.935 343.184C153.739 338.476 154.139 335.572 154.139 325.555C154.139 318.945 153.839 309.029 153.338 303.52C152.736 296.809 152.837 292.202 153.538 289.597C155.342 283.287 154.039 284.088 150.832 291.2Z" fill="#131313"/>
<path d="M390.961 287.494C391.462 289.097 391.662 294.305 391.562 299.013C391.462 303.72 391.261 314.237 391.061 322.551C390.76 336.273 390.961 338.076 393.065 343.184C394.268 346.189 395.872 349.594 396.673 350.596C397.776 352.199 397.876 351.698 396.974 347.291C396.172 343.384 396.272 338.577 397.676 326.357C399.079 314.137 399.279 309.329 398.477 305.022C397.275 298.412 393.867 289.097 391.763 286.392C390.359 284.589 390.259 284.689 390.961 287.494Z" fill="#131313"/>
<path d="M436.461 291.2C438.967 299.213 439.267 310.632 437.463 327.459C434.958 349.996 437.764 358.409 453.499 374.635C465.325 386.855 472.34 397.773 474.745 407.689C474.946 408.791 475.246 407.388 475.347 404.684C475.347 401.779 474.445 396.871 473.042 392.965C470.736 386.455 469.333 384.151 457.207 366.522C447.986 353 446.984 349.595 446.784 329.062C446.684 309.53 445.882 305.023 440.67 294.306C435.96 284.49 433.956 283.087 436.461 291.2Z" fill="#131313"/>
<path d="M166.767 289.397C166.767 289.798 167.469 292.903 168.371 296.308C170.475 304.722 174.685 312.434 181.6 321.148C184.807 325.255 188.615 330.263 190.018 332.467L192.624 336.273V328.26C192.624 323.953 193.125 318.644 193.827 316.641C194.428 314.538 194.829 312.735 194.629 312.635C194.528 312.434 192.123 311.132 189.317 309.73C182.001 306.024 174.083 299.413 170.175 293.604C168.271 290.799 166.767 288.896 166.767 289.397Z" fill="#131313"/>
<path d="M374.825 293.604C371.518 298.913 362.899 306.124 355.783 309.73C352.977 311.132 350.572 312.434 350.371 312.535C350.171 312.735 350.572 314.738 351.173 317.042C351.775 319.446 352.276 324.654 352.276 328.761V336.273L354.581 332.767C355.884 330.964 359.692 325.856 363.1 321.549C366.507 317.242 370.616 311.232 372.22 308.027C374.825 302.819 378.834 290.198 378.032 289.397C377.832 289.297 376.429 291.1 374.825 293.604Z" fill="#131313"/>
<path d="M219.584 313.236C218.18 315.039 216.076 318.545 214.873 320.948C212.769 325.055 212.769 325.856 213.871 330.764C214.873 334.871 214.973 337.776 214.071 344.286C213.37 348.894 212.869 354.603 212.969 357.107V361.614L214.873 356.606C215.875 353.802 218.08 348.693 219.784 345.088C223.191 338.076 223.492 334.47 221.889 324.354C221.287 320.448 221.187 316.642 221.788 314.037C222.289 311.834 222.49 310.031 222.289 310.031C222.189 310.031 220.886 311.533 219.584 313.236Z" fill="#131313"/>
<path d="M323.212 314.037C323.813 316.642 323.813 320.448 323.111 324.354C321.508 334.47 321.809 338.076 325.216 345.088C326.92 348.693 329.125 353.802 330.127 356.606L332.031 361.614V357.107C332.131 354.603 331.63 348.894 330.929 344.286C330.027 337.776 330.127 334.871 331.129 330.664C332.332 325.456 332.332 325.155 329.125 319.246C327.321 315.84 325.116 312.435 324.114 311.533C322.41 309.931 322.31 310.031 323.212 314.037Z" fill="#131313"/>
<path d="M454.501 317.544C454.3 332.568 459.412 345.288 473.442 365.121C483.765 379.744 487.674 386.655 491.081 396.672C493.587 403.783 493.887 406.187 493.887 417.405C493.988 430.727 494.389 431.027 496.894 419.008C500.402 402.08 499.901 387.757 495.391 370.429C493.487 363.217 487.974 348.494 486.571 346.891C486.271 346.49 486.07 348.994 486.271 352.4C486.471 355.805 486.07 359.912 485.469 361.615L484.266 364.62L479.155 359.111C467.529 346.49 459.512 333.069 457.407 322.151C454.801 309.33 454.601 309.03 454.501 317.544Z" fill="#131313"/>
<path d="M88.3946 318.946C87.4926 323.553 85.1875 330.464 83.2834 334.471C79.6754 341.983 70.1544 355.305 64.1412 361.014L60.6335 364.419L59.5311 361.515C58.9297 359.912 58.5288 355.805 58.7293 352.4C58.9297 348.994 58.7293 346.49 58.4286 346.891C57.0255 348.494 51.5134 363.217 49.6092 370.429C45.0993 387.757 44.5982 402.08 48.1059 419.008C50.6114 431.027 51.0123 430.727 51.1125 417.405C51.1125 406.187 51.4132 403.783 53.9187 396.672C57.3262 386.655 61.2348 379.744 71.5575 365.121C85.5884 345.288 91.0003 331.867 90.399 317.844L90.0984 310.532L88.3946 318.946Z" fill="#131313"/>
<path d="M161.556 328.06C160.754 342.383 158.549 348.393 147.825 366.522C136.3 385.954 130.387 398.274 127.28 409.792C124.975 418.005 124.775 418.306 125.276 413.198C126.378 402.48 128.884 392.464 134.195 376.639C138.806 363.317 142.313 348.493 141.211 347.291C141.111 347.191 140.209 349.294 139.307 351.999C137.102 358.71 133.494 364.719 123.472 378.341C109.24 397.472 103.027 409.592 98.4166 426.72C96.6127 433.23 96.2118 437.437 96.2118 449.757C96.312 463.179 96.5125 465.683 99.018 473.696C100.521 478.603 103.327 485.815 105.232 489.621C108.539 496.232 118.361 511.356 119.363 511.356C119.563 511.356 118.461 508.953 116.757 506.048C102.927 481.809 100.622 452.361 110.443 422.713L113.149 414.7L113.35 419.708C114.051 432.829 117.358 455.266 118.862 456.868C119.062 457.069 121.568 454.164 124.374 450.458C127.18 446.752 130.888 442.445 132.592 440.842C135.398 438.238 135.699 437.237 135.699 432.228C135.699 420.209 140.81 406.186 152.135 387.156C158.85 375.937 163.059 365.32 164.763 355.504C166.266 346.991 165.564 328.561 163.56 322.05L162.157 317.543L161.556 328.06Z" fill="#131313"/>
<path d="M380.939 324.755C378.834 333.569 378.734 349.094 380.638 358.209C382.542 367.123 387.253 378.241 393.466 388.358C403.889 405.485 409.301 420.309 409.301 432.228C409.301 437.237 409.602 438.238 412.408 440.842C414.112 442.445 417.82 446.752 420.626 450.458C424.034 454.965 426.038 456.768 426.539 455.967C427.842 453.563 430.348 436.636 431.049 425.718C431.65 415.101 431.751 414.8 433.054 418.106C435.96 425.017 439.367 440.041 440.169 449.256C441.873 468.187 438.666 485.114 430.348 501.741C427.742 507.049 425.637 511.356 425.838 511.356C426.639 511.356 436.762 495.631 439.768 489.621C448.688 471.893 451.494 450.758 447.485 431.327C443.577 412.597 436.962 399.175 421.528 378.341C411.506 364.719 407.898 358.71 405.693 351.999C404.791 349.294 403.889 347.191 403.789 347.291C402.687 348.493 406.194 363.317 410.805 376.639C416.116 392.464 418.622 402.48 419.724 413.198C420.225 418.306 420.025 418.005 417.72 409.792C414.613 398.374 408.7 386.054 397.375 366.823C386.551 348.593 384.246 342.183 383.344 328.06L382.643 317.543L380.939 324.755Z" fill="#131313"/>
<path d="M175.486 354.904C174.885 364.92 171.678 375.437 167.469 381.547L164.863 385.453L167.068 388.358C169.072 390.962 169.373 393.065 169.874 406.988C170.375 417.204 171.277 426.019 172.68 432.229C175.587 445.35 175.086 448.555 166.667 465.182C158.95 480.507 157.346 487.017 158.85 496.733C160.453 506.749 165.865 515.463 178.192 527.883C190.319 540.203 196.733 548.216 200.842 556.429C203.949 562.64 207.757 574.358 207.958 578.365C208.058 580.268 208.259 579.867 208.86 576.963C210.063 570.652 208.259 560.736 204.35 552.824C201.844 547.615 198.036 542.707 190.018 534.194C176.288 519.57 174.284 515.263 174.284 499.337C174.284 488.319 175.787 482.911 180.698 476.701L182.702 474.096L184.306 478.003C187.312 485.114 187.814 490.323 186.11 498.336C184.506 506.348 184.807 514.061 187.012 520.872L188.315 524.878L188.515 520.371C188.816 514.862 190.92 504.445 191.722 503.945C192.023 503.744 192.223 505.848 192.023 508.652C191.522 515.563 194.127 526.281 197.836 533.292C199.539 536.397 204.55 543.008 209.06 547.916C218.581 558.533 221.488 562.84 224.494 570.953C227 577.564 227.601 575.761 225.497 567.948C223.693 561.037 221.087 556.229 213.971 546.914C207.757 538.701 205.452 533.392 204.55 525.379C204.15 521.673 204.25 521.273 205.052 523.376C208.058 530.888 211.365 537.599 213.47 540.103L215.775 542.908L214.272 537.899C213.47 535.095 212.568 527.282 212.267 520.371C211.967 513.46 211.265 506.048 210.764 503.844C209.762 499.938 203.548 490.323 202.045 490.323C201.644 490.323 201.444 492.226 201.644 494.429C202.145 499.537 200.341 498.936 199.439 493.728C199.038 491.725 197.134 486.516 195.23 482.109C191.421 473.495 191.321 470.19 194.829 468.287C197.635 466.784 197.335 465.583 193.727 463.379C191.021 461.676 190.82 461.376 192.323 460.474C193.526 459.873 195.931 460.074 199.94 461.376C203.147 462.377 209.561 463.88 214.071 464.781C218.682 465.683 223.492 466.584 224.895 466.885C226.298 467.085 223.693 465.382 219.183 462.878C209.762 457.77 202.847 453.263 200.742 450.658C199.439 449.056 199.539 449.056 201.343 449.957C203.448 451.059 223.592 458.271 224.695 458.271C224.995 458.271 221.187 455.566 216.276 452.261C211.365 448.956 205.753 444.949 203.849 443.347L200.341 440.342L209.361 443.647C223.592 448.956 223.993 448.855 214.372 442.445C209.461 439.04 203.147 434.232 200.341 431.728L195.33 427.22L200.341 430.025C205.553 432.93 215.174 437.237 216.577 437.237C216.978 437.237 215.575 436.035 213.37 434.532C200.341 425.818 186.912 412.296 182.402 403.382C180.097 398.774 180.197 393.466 182.702 386.755C186.611 376.138 184.807 360.112 178.493 349.695L176.088 345.889L175.486 354.904Z" fill="#131313"/>
<path d="M366.006 350.796C359.892 361.914 358.389 376.238 362.298 386.755C364.803 393.465 364.903 398.774 362.598 403.381C358.189 411.995 344.158 426.118 331.63 434.532C329.425 436.034 328.022 437.236 328.423 437.236C329.826 437.236 339.447 432.929 344.659 430.024L349.67 427.22L344.659 431.727C341.953 434.231 335.639 439.039 330.628 442.445C321.007 448.855 321.408 448.955 335.639 443.647L344.659 440.341L341.151 443.346C339.247 444.949 333.635 448.955 328.724 452.26C323.813 455.566 320.005 458.27 320.305 458.27C321.408 458.27 341.552 451.059 343.657 449.957C345.461 449.055 345.561 449.055 344.258 450.658C342.153 453.262 335.238 457.769 325.817 462.878C321.307 465.382 318.702 467.084 320.105 466.884C321.508 466.584 326.419 465.682 331.129 464.781C335.839 463.879 342.153 462.277 345.16 461.275C349.069 459.973 351.173 459.672 352.476 460.474C354.28 461.375 354.18 461.576 351.273 463.378C347.665 465.582 347.365 466.784 350.171 468.286C353.679 470.189 353.579 473.495 349.77 482.109C347.866 486.516 345.962 491.724 345.561 493.728C344.659 498.936 342.855 499.537 343.356 494.429C343.556 492.225 343.356 490.322 342.955 490.322C341.452 490.322 335.238 499.938 334.236 503.844C333.735 506.047 333.033 513.459 332.733 520.371C332.432 527.282 331.53 535.094 330.728 537.899L329.225 542.907L331.53 540.103C333.635 537.598 336.942 530.888 339.948 523.375C340.75 521.272 340.85 521.673 340.45 525.379C339.548 533.392 337.243 538.7 331.029 546.914C323.913 556.229 321.307 561.036 319.503 567.948C317.399 575.76 318 577.563 320.506 570.952C323.512 562.839 326.419 558.532 335.94 547.915C340.45 543.007 345.461 536.397 347.164 533.292C350.873 526.28 353.478 515.563 352.977 508.652C352.777 505.747 352.977 503.744 353.278 504.144C354.48 505.446 356.184 514.261 356.184 518.968C356.184 524.678 357.487 523.876 359.091 517.165C360.594 510.855 360.494 505.747 358.69 498.034C357.086 491.023 357.688 485.214 360.694 478.002L362.298 474.096L364.302 476.7C372.22 486.716 373.422 504.345 367.108 519.069C366.006 521.573 360.895 527.983 354.681 534.493C346.864 542.807 343.256 547.515 340.65 552.823C336.641 561.137 334.737 570.952 336.04 577.463C336.842 581.369 336.942 581.57 337.042 578.865C337.142 574.458 340.85 563.04 344.158 556.429C348.567 547.815 352.877 542.406 365.805 529.085C379.235 515.363 384.446 506.949 386.05 496.833C387.654 487.017 386.05 480.606 378.333 465.181C369.914 448.554 369.413 445.349 372.32 432.228C373.723 426.018 374.625 417.204 375.126 406.987C375.627 393.065 375.928 390.961 377.932 388.357L380.037 385.452L377.231 381.145C373.222 375.036 370.215 364.919 369.413 354.803L368.712 346.089L366.006 350.796Z" fill="#131313"/>
<path d="M108.339 371.229C98.9179 379.542 92.2031 390.16 84.6865 408.389C80.7779 417.704 75.366 423.213 70.2548 423.213C65.8451 423.213 61.0345 420.008 58.6292 415.501C56.8252 412.095 56.6248 411.895 56.5245 414.198C56.5245 419.207 58.8296 424.715 62.5378 428.421C65.8451 431.727 66.9475 432.228 70.9563 432.228C76.5687 432.228 80.3771 430.425 83.985 426.118L86.691 423.013L85.9894 427.32C83.985 441.342 78.4729 458.57 72.9607 467.985C69.2526 474.296 70.8561 473.194 75.6667 466.082C85.789 451.258 91.0004 437.536 97.0137 409.691C101.925 387.055 104.931 379.342 112.448 369.326C113.751 367.623 114.653 366.121 114.452 366.121C114.252 366.121 111.445 368.424 108.339 371.229Z" fill="#131313"/>
<path d="M434.356 372.03C440.37 380.844 443.777 390.26 448.287 410.793C454.2 437.937 459.311 451.459 469.333 466.182C474.144 473.194 475.647 474.296 472.039 467.985C466.527 458.57 460.915 441.142 459.011 427.32L458.309 423.013L461.115 426.218C464.423 430.224 468.932 432.228 474.545 432.228C478.053 432.228 479.355 431.627 482.462 428.421C486.17 424.715 488.476 419.207 488.476 414.198C488.375 411.895 488.275 411.895 486.571 415.2C483.765 420.408 481.059 422.412 476.148 422.913C472.14 423.413 471.338 423.113 467.63 419.808C464.623 417.003 462.518 413.597 459.311 405.885C452.095 388.557 443.978 376.738 434.156 369.025L430.047 365.72L434.356 372.03Z" fill="#131313"/>
<path d="M158.95 399.475C157.647 404.984 154.54 413.197 151.333 419.707C146.222 430.024 142.814 434.732 127.882 452.56C125.476 455.465 121.868 461.074 119.964 465.081C116.557 471.992 116.456 472.693 116.857 480.606C117.258 486.015 118.16 490.522 119.563 493.827C121.668 498.535 134.697 518.768 135.198 518.167C135.398 517.966 134.897 514.961 134.095 511.356C131.89 500.939 131.289 489.32 132.592 481.808C134.196 472.893 137.403 465.081 144.719 452.761C151.634 441.042 154.741 433.63 157.647 421.911C159.451 414.599 162.358 391.362 161.556 390.56C161.355 390.46 160.153 394.467 158.95 399.475Z" fill="#131313"/>
<path d="M383.845 397.672C385.248 418.405 389.959 435.032 398.277 449.155C410.604 469.788 413.911 480.506 412.909 495.83C412.608 500.738 411.706 507.75 410.905 511.356C410.103 514.961 409.602 517.966 409.802 518.167C410.303 518.768 423.332 498.535 425.437 493.827C426.84 490.522 427.742 486.015 428.143 480.606C428.544 472.994 428.343 471.892 425.437 465.682C423.733 461.976 419.724 455.766 416.517 451.96C401.684 434.131 398.778 430.024 393.767 419.707C390.76 413.597 387.152 404.383 385.85 399.174L383.344 389.659L383.845 397.672Z" fill="#131313"/>
<path d="M160.854 424.515C159.05 430.926 156.545 438.939 155.242 442.144C152.636 448.554 146.222 459.873 144.719 460.774C143.015 461.876 143.516 464.079 148.828 477.701C155.041 493.928 155.943 495.831 155.142 492.125C153.839 486.115 156.745 475.698 163.059 463.579C168.772 452.561 169.172 451.259 169.573 443.646C169.974 437.036 169.573 434.131 167.769 428.822C166.567 425.217 165.264 420.108 164.863 417.404L164.161 412.696L160.854 424.515Z" fill="#131313"/>
<path d="M380.337 415.902C380.237 417.705 379.035 422.813 377.631 427.421C375.427 434.332 375.026 437.036 375.427 443.747C375.827 451.159 376.329 452.561 381.941 463.579C388.255 475.699 391.161 486.115 389.858 492.125C389.457 494.329 389.457 494.429 390.259 492.826C392.564 487.718 401.283 464.38 401.283 463.279C401.283 462.678 400.181 460.674 398.878 458.972C395.17 454.064 389.658 442.845 387.353 435.434C386.25 431.728 384.246 425.117 382.843 420.71C381.039 414.6 380.438 413.498 380.337 415.902Z" fill="#131313"/>
<path d="M219.884 428.021C219.884 430.825 225.096 438.438 232.712 446.551C236.521 450.657 240.93 456.066 242.534 458.67C244.939 462.577 246.242 463.478 250.552 464.78C258.168 466.984 260.774 471.09 257.968 476.299C254.861 482.108 234.917 481.207 214.572 474.396C204.35 470.99 204.55 471.992 215.675 479.103C228.603 487.417 230.908 488.218 242.634 489.42C248.647 489.921 257.768 491.523 262.979 492.826L272.5 495.229L281.72 492.826C286.832 491.523 295.952 490.021 301.965 489.42C311.987 488.619 313.791 488.118 319.804 484.813C326.118 481.407 339.147 472.593 339.147 471.892C339.147 471.691 335.238 472.793 330.428 474.396C316.196 479.204 301.263 481.307 293.246 479.704C286.832 478.402 283.925 472.292 287.734 468.086C288.636 467.084 291.642 465.582 294.448 464.78C298.758 463.478 300.061 462.577 302.566 458.47C304.17 455.866 308.579 450.557 312.187 446.751C319.503 439.139 325.116 430.925 325.116 428.021C325.116 426.318 324.915 426.318 322.209 427.62C317.499 430.124 305.473 433.029 297.756 433.73C293.847 434.031 286.431 435.232 281.42 436.334L272.3 438.438L263.881 436.434C259.271 435.333 252.055 434.131 247.846 433.83C239.728 433.129 227.601 430.124 222.791 427.62C220.085 426.318 219.884 426.318 219.884 428.021ZM233.113 434.631C236.621 435.433 242.835 436.334 246.944 436.735C251.053 437.035 258.67 438.237 263.681 439.439C272.5 441.443 273.202 441.443 278.714 439.94C281.921 439.039 288.936 437.837 294.348 437.236C299.76 436.735 307.377 435.533 311.285 434.732C315.294 433.93 318.602 433.43 318.702 433.53C318.902 433.63 317.198 435.934 314.893 438.538C310.985 443.245 310.784 443.245 309.381 441.342C304.971 434.932 291.241 443.245 290.039 452.961C289.638 456.968 289.036 458.069 286.03 460.073C281.319 463.278 277.21 462.677 274.404 458.57L272.3 455.365L271.197 457.869C268.892 462.777 262.979 463.378 257.667 459.171C255.563 457.569 254.961 456.266 254.961 453.262C254.961 444.147 240.029 434.932 235.619 441.242C234.115 443.346 233.915 443.245 227.501 435.433C225.196 432.829 225.096 432.829 233.113 434.631Z" fill="#131313"/>
<path d="M139.708 470.29C138.004 473.595 135.699 485.214 135.699 491.224C135.699 496.132 136.3 497.534 141.712 506.348C148.728 517.667 150.632 521.974 152.235 529.386L153.438 534.895L154.741 527.382C156.946 514.361 154.841 502.943 146.122 480.607C143.616 474.096 141.411 468.587 141.211 468.487C141.011 468.287 140.309 469.088 139.708 470.29Z" fill="#131313"/>
<path d="M398.979 480.306C390.259 502.342 388.054 514.461 390.259 527.483L391.562 534.895L392.765 529.386C394.368 521.873 396.273 517.667 403.488 506.048L409.602 496.132L409.001 488.019C408.399 480.006 405.994 469.889 404.491 468.888C404.09 468.687 401.584 473.796 398.979 480.306Z" fill="#131313"/>
<path d="M215.474 501.841C216.477 504.245 216.878 509.353 216.878 519.169C216.878 538.099 219.183 545.311 229.906 560.636C232.512 564.342 235.619 570.051 236.922 573.156C240.83 583.573 241.031 583.573 240.429 572.455C240.229 566.646 239.628 560.836 239.327 559.434C238.625 556.93 238.625 556.93 241.833 559.935C247.545 565.143 249.85 570.151 254.46 586.678C255.964 592.387 259.572 597.696 263.079 599.499C264.783 600.5 264.783 600.3 262.879 596.995C261.275 594.29 260.574 590.785 259.972 580.768C258.87 564.542 257.567 560.636 248.948 545.912C240.83 532.09 238.425 525.379 236.621 512.258L235.218 502.842L233.915 510.355C233.214 514.561 232.913 520.471 233.214 524.077C233.915 531.288 232.813 531.589 229.906 525.179L228.203 521.272L227.501 525.179C227.2 527.382 227.2 530.687 227.601 532.49C228.002 534.794 227.902 535.495 227.1 534.994C225.396 533.993 222.089 521.973 221.388 514.161C220.886 509.253 219.984 506.348 217.88 502.943C214.372 497.434 213.47 497.033 215.474 501.841Z" fill="#131313"/>
<path d="M328.924 500.038C325.817 503.544 324.314 508.051 323.312 516.464C322.31 524.778 319.904 532.791 317.8 534.894C317.198 535.595 317.098 534.694 317.499 532.49C317.8 530.687 317.8 527.382 317.499 525.179L316.798 521.272L315.094 525.179C312.187 531.589 311.085 531.288 311.787 524.077C312.087 520.471 311.787 514.561 311.085 510.355L309.782 502.842L308.379 512.258C306.575 525.379 304.17 532.09 296.052 545.912C287.433 560.636 286.13 564.542 285.028 580.768C284.426 590.785 283.725 594.29 282.121 596.995C280.217 600.3 280.217 600.5 281.921 599.499C285.429 597.696 289.036 592.387 290.54 586.678C295.15 570.151 297.455 565.243 303.067 559.935L306.375 556.93L305.673 559.935C305.372 561.537 304.871 567.447 304.571 572.956C303.969 583.473 304.17 583.573 308.078 573.156C309.381 570.051 312.488 564.342 315.094 560.636C325.817 545.311 328.123 538.099 328.123 519.169C328.123 509.353 328.523 504.245 329.526 501.841C331.229 497.834 331.129 497.534 328.924 500.038Z" fill="#131313"/>
<path d="M270.095 509.153C268.992 510.755 267.589 513.259 266.988 514.762C265.785 518.067 264.683 518.067 262.578 514.862C259.371 510.054 256.465 512.458 255.362 520.872C254.961 523.376 254.36 525.379 253.959 525.379C252.055 525.379 248.347 519.67 246.342 513.66C244.238 507.65 244.037 507.25 243.937 510.355C243.937 519.47 247.645 529.386 257.066 545.111C265.084 558.332 266.086 561.337 266.988 573.958C267.689 585.076 269.995 592.788 272.5 592.788C275.006 592.788 277.311 585.076 278.012 573.958C278.914 561.337 279.916 558.332 287.934 545.111C297.355 529.386 301.063 519.47 301.063 510.355C300.963 507.25 300.762 507.65 298.658 513.66C296.653 519.67 292.945 525.379 291.041 525.379C290.64 525.379 290.039 523.376 289.638 520.872C288.535 512.458 285.629 510.054 282.422 514.862C281.52 516.264 280.417 517.366 280.017 517.366C279.515 517.366 278.213 515.363 277.01 512.959C273.903 506.348 272.6 505.647 270.095 509.153Z" fill="#131313"/>
</svg>
