<svg width="300" height="150" viewBox="0 0 300 150" fill="none" xmlns="http://www.w3.org/2000/svg">
<path d="M78.1649 0.228073C67.7795 0.914017 53.4232 3.58157 52.5832 4.95348C52.4305 5.18211 52.4687 6.05861 52.6214 6.93509C52.7741 7.81158 52.9269 8.64996 52.965 8.76428C52.965 8.91672 51.5523 9.22157 49.8341 9.48833C47.3523 9.8313 46.5505 9.8313 45.8251 9.45023C45.0614 9.03104 44.756 9.03104 44.1451 9.45023C43.6487 9.71698 42.8851 9.8313 42.1978 9.67888C41.396 9.48833 40.8615 9.60266 40.3269 10.0981C39.716 10.6316 38.3415 10.8983 33.4161 11.2794C26.4288 11.8129 22.4198 12.4989 19.327 13.6421L17.1507 14.4805L16.8834 17.491C16.6543 20.1586 16.5398 20.4635 15.9671 20.1586C15.6234 19.9299 14.0198 18.901 12.378 17.8721C9.17074 15.8524 8.67438 15.6618 8.67438 16.5002C8.67438 17.4148 14.898 22.064 15.7762 21.8354C16.5016 21.6448 16.5016 21.7972 16.2343 25.3794C16.0816 27.3991 15.8525 29.9143 15.738 30.9051C15.5089 32.5818 15.5471 32.6962 16.578 33.2297C18.5634 34.2586 19.1361 35.2875 19.4034 38.1837C19.7852 42.0707 20.7398 49.0826 21.4652 53.3126C21.9998 56.4756 22.0379 58.6096 21.6561 71.2234C21.2743 86.2761 21.2361 86.6191 20.2816 101.329C19.938 106.473 19.747 112.914 19.8234 115.657C19.9761 119.964 20.1289 120.916 20.9307 122.517C21.427 123.546 22.1143 124.384 22.4198 124.384C23.4507 124.384 24.3288 121.793 24.7488 117.487C25.0543 114.438 25.0543 106.893 24.7488 89.3248C24.1379 55.4086 24.1379 54.837 25.0543 51.2929C26.1616 47.101 28.7197 41.9945 30.2088 41.0799C32.1561 39.8986 33.2251 40.1272 34.9815 42.1088C36.4706 43.7856 37.6924 46.6818 37.6924 48.4729C37.6924 48.854 38.2269 50.6832 38.8378 52.5124C39.4869 54.3415 40.136 56.9329 40.2887 58.2667C40.7469 62.3061 40.1742 78.1972 39.4869 81.8556C38.9142 84.7518 38.876 85.171 39.4106 85.9712C40.0597 86.924 41.396 87.1145 42.3506 86.3523C43.6105 85.3996 43.8015 83.2656 43.3815 74.5007C42.8851 64.5545 43.0378 62.6872 44.5269 57.8856C45.176 55.8659 46.1687 51.7502 46.7796 48.7397C47.9632 42.9091 48.8032 40.6607 50.7123 38.3362C52.2778 36.4307 53.6141 36.4307 55.6759 38.3362C57.0505 39.6699 57.2414 40.051 57.7377 42.8329C58.005 44.5097 58.4632 49.3113 58.6923 53.5032C58.9214 57.6951 59.265 62.9921 59.4559 65.3167C60.1432 73.5099 59.9141 80.8648 58.8832 85.895C58.3868 88.4102 57.9286 91.5731 57.9286 92.9069C57.9286 95.4221 59.0741 100.033 60.105 101.596C61.2886 103.387 64.305 102.205 65.4122 99.5758C66.0613 98.0515 66.0995 94.9266 65.5268 93.4404C65.2977 92.8688 64.8777 90.3918 64.5722 87.991C63.9995 83.6848 64.1141 77.778 65.0304 61.8869C65.3359 56.3232 67.2068 46.1102 68.8486 41.0037L69.4595 39.1745L71.5977 41.2705C72.8195 42.4137 74.3849 43.8237 75.1104 44.4334C75.8358 45.0051 76.9813 46.0721 77.6685 46.7199C78.3558 47.4059 79.0813 47.9775 79.2722 47.9775C79.4631 47.9775 80.8758 49.197 82.4031 50.6451C85.0758 53.2364 86.2212 53.7699 86.4885 52.5124C86.5648 52.1313 86.1449 51.7121 85.4194 51.4072C84.7703 51.1405 84.083 50.6069 83.854 50.2259C83.663 49.8067 83.3194 49.5018 83.0903 49.5018C82.8994 49.5018 81.8685 48.7015 80.8376 47.6726C79.8067 46.6818 78.2413 45.2718 77.3631 44.5478C76.4849 43.8237 75.3395 42.8329 74.8431 42.3375C74.3467 41.8802 73.8122 41.4991 73.6976 41.4991C73.5831 41.4991 72.8958 41.0799 72.2086 40.5464C71.5213 40.0129 70.7958 39.5937 70.5668 39.5937C70.3758 39.5937 70.0704 39.2507 69.9558 38.7934C69.574 37.6121 71.5595 34.6778 73.774 33.1916L75.6831 31.8959L80.074 32.0483C83.6249 32.1626 84.7703 32.3532 85.9921 33.001C88.8939 34.5635 91.8339 38.4886 93.1321 42.528C93.8575 44.967 93.8957 45.691 93.7048 53.9224C93.5903 58.7621 93.6284 63.3351 93.8194 64.1353C94.163 65.774 95.1939 67.0696 95.9193 66.8029C97.1412 66.3075 97.3321 64.7069 97.0266 55.7896C96.7212 45.5005 96.9884 43.8999 99.5466 41.0418C102.334 37.8789 110.848 34.6016 114.896 35.1351C117.606 35.5162 119.554 37.9932 120.737 42.6805C121.081 44.0143 121.806 46.4913 122.341 48.168C123.296 51.1024 123.334 51.5597 123.257 59.2194C123.219 63.6018 123.105 67.2983 122.99 67.3745C122.876 67.4888 122.265 67.3364 121.577 67.0696C119.096 66.0788 119.019 66.0788 119.019 67.3745C119.019 68.2891 119.248 68.6702 120.165 69.1275C120.776 69.4323 121.692 69.6229 122.15 69.5086L123.028 69.2799L122.761 75.4915C122.646 78.9212 122.341 84.104 122.112 87.0383C121.386 96.8321 121.234 102.967 121.692 105.635C122.379 109.903 123.868 112.151 125.014 110.589C126.426 108.722 126.465 107.54 126.35 77.435C126.274 61.2772 126.312 47.6726 126.465 47.2534C126.77 46.2626 128.412 46.1864 128.832 47.101C129.366 48.2824 129.176 107.807 128.603 117.906C127.801 132.311 127.725 135.74 128.106 142.79C128.374 147.783 128.565 149.497 128.985 149.764C129.901 150.336 130.283 149.917 130.512 147.973C130.665 146.944 131.161 143.705 131.657 140.771C132.65 134.597 132.688 132.349 132.421 82.8464C132.23 51.5596 132.345 47.8251 133.795 45.1194C134.139 44.4715 135.323 42.1851 136.392 39.9748C137.499 37.7645 138.797 35.5924 139.332 35.097C140.248 34.2586 143.875 32.6962 146.625 31.934C147.732 31.6291 148.228 31.6672 148.686 32.0102C149.106 32.3913 149.297 32.3913 149.526 32.0483C149.946 31.3243 154.91 33.9537 156.055 35.478C157.277 37.1167 157.468 39.9748 156.666 44.1667C156.208 46.7199 156.017 51.331 155.826 65.6978C155.674 79.7596 155.444 85.5139 154.91 90.6585C153.841 100.338 153.23 116.801 153.726 120.954C154.337 126.061 155.215 128.652 156.819 130.329C160.866 134.597 164.264 128.995 165.028 116.877C165.219 113.333 165.143 112.266 164.303 108.493C162.355 99.7283 161.324 85.3615 161.21 64.9356C161.172 58.6478 161.019 51.5215 160.866 49.1207C160.523 43.557 161.172 39.5175 163.004 36.1259L164.264 33.7251L166.937 33.2297C168.426 32.9248 170.068 32.7724 170.679 32.8486C171.252 32.9248 171.71 32.8486 171.71 32.658C171.71 32.5056 171.977 32.3532 172.283 32.3532C172.588 32.3532 172.855 32.5056 172.855 32.6962C172.855 33.2678 174.497 33.344 175.566 32.8486C176.101 32.5818 177.132 32.2389 177.819 32.0864L179.079 31.8578L178.85 39.1364C178.697 43.4807 178.735 46.4532 178.926 46.5294C179.117 46.6056 179.537 47.8251 179.804 49.2351C180.262 51.4834 180.415 51.7883 180.835 51.2548C181.446 50.5307 181.255 46.8343 180.339 41.3467C180.033 39.4794 179.881 37.7264 179.995 37.4597C180.301 36.6213 181.561 36.8499 181.866 37.7645C182.095 38.5267 182.133 38.4886 182.63 37.3834C183.202 36.0116 183.89 35.7829 184.195 36.9262C184.462 37.8789 185.073 37.8789 186.142 36.9262C187.135 36.0116 187.364 35.9353 187.746 36.5451C187.899 36.8118 188.128 36.2402 188.281 35.2494C188.433 34.2967 188.701 33.4964 188.892 33.4964C189.044 33.4964 189.655 33.9918 190.152 34.6397C190.762 35.3256 191.488 35.7829 192.061 35.7829C192.595 35.7829 193.206 36.0497 193.512 36.3926C193.779 36.7356 195.459 37.7264 197.253 38.641C199.086 39.5175 201.453 40.8894 202.522 41.6134C203.63 42.3375 205.042 43.0616 205.691 43.214C206.302 43.3664 207.066 43.7475 207.295 44.0905C208.021 45.0813 210.655 45.9197 211.037 45.3099C211.571 44.4715 211.037 43.8618 208.67 42.4137C207.41 41.6516 206.226 40.6607 205.997 40.1653C205.806 39.708 204.813 38.9459 203.859 38.4886C201.262 37.231 197.291 34.5253 195.955 33.1153L194.81 31.8959L195.955 32.0864C199.277 32.7343 207.562 33.5345 208.861 33.3821C209.891 33.2297 210.388 33.344 210.541 33.687C210.808 34.4491 213.213 35.1351 214.55 34.8683C215.542 34.6778 216.077 34.9064 217.795 36.164C220.239 38.0313 221.957 40.1653 226.119 46.4532C227.875 49.0826 229.746 51.8264 230.319 52.5886C231.693 54.4559 231.999 58.4953 231.12 63.6018C230.777 65.5834 230.319 69.9659 230.128 73.3575C229.937 76.8253 229.517 80.5218 229.135 81.9318C228.257 85.2091 228.6 86.924 230.509 88.8294C231.311 89.6296 232.304 90.2775 232.762 90.2775C234.175 90.2775 236.619 89.058 237.42 87.9529C238.757 86.0475 238.757 84.6375 237.229 80.1026C233.029 67.3745 232.533 58.6478 235.626 52.0551C237 49.2351 239.062 46.6056 240.819 45.5005C241.659 44.967 243.033 43.4807 243.911 42.1851C244.789 40.8513 246.317 38.9078 247.309 37.8789C248.417 36.6594 249.257 35.3637 249.562 34.2205L250.058 32.4675L251.815 32.7724C254.984 33.3059 259.069 33.1535 260.368 32.5056C261.169 32.0864 262.964 31.8197 265.598 31.7053C269.798 31.4767 271.746 30.9051 271.746 29.7999C271.746 29.2664 272.318 29.2283 277.015 29.4189C282.971 29.6475 286.751 30.4859 291.218 32.5437L294.082 33.8775L291.791 31.7435C288.393 28.5805 283.735 24.9983 280.413 23.0548C275.487 20.1586 272.051 19.2821 254.984 16.5764C245.018 15.014 239.482 13.947 239.253 13.6421C239.062 13.2991 237.917 13.1086 235.779 13.0705C234.022 13.0705 227.111 12.1559 220.391 11.0889C198.971 7.69725 193.817 7.58293 168.464 10.06C146.663 12.194 138.072 12.3083 120.546 10.8221C112.567 10.0981 114.285 9.98373 131.237 9.90752L149.374 9.86942V8.15456C149.412 6.70644 149.259 6.36346 148.61 6.24915C146.472 5.75374 119.783 2.17159 113.483 1.48564C101.074 0.189957 86.4121 -0.343552 78.1649 0.228073ZM117.034 6.13483C117.186 6.85887 116.346 7.16374 113.903 7.31618C111.956 7.4305 111.803 6.78265 113.597 5.98239C115.354 5.18211 116.881 5.25833 117.034 6.13483Z" fill="#131313"/>
<path d="M10.3543 2.43829C11.8052 3.58153 23.2597 9.48828 24.0997 9.48828C24.4433 9.48828 24.7106 9.33585 24.7106 9.14531C24.7106 8.30693 11.7671 1.48558 10.2016 1.48558L9.24707 1.52369L10.3543 2.43829Z" fill="#131313"/>
<path d="M24.5961 6.70637C24.8634 7.46853 26.2379 9.10718 26.6197 9.10718C26.7343 9.10718 27.2306 8.42123 27.727 7.58285L28.567 6.05853H26.467C24.6343 6.05853 24.367 6.13475 24.5961 6.70637Z" fill="#131313"/>
<path d="M296.335 16.3859C295.915 17.1099 297.06 17.8721 298.511 17.8721C299.58 17.8721 300 17.7196 300 17.3004C300 16.805 299.618 16.6526 297.251 16.1572C296.869 16.081 296.449 16.1953 296.335 16.3859Z" fill="#131313"/>
<path d="M294.922 18.1771C294.349 18.2533 293.967 18.4819 294.082 18.6725C294.235 18.863 294.044 19.0154 293.738 19.0154C293.395 19.0154 293.127 18.8249 293.127 18.6344C293.127 18.4057 292.516 18.2533 291.791 18.2533C291.066 18.2533 290.455 18.3676 290.455 18.5581C290.455 18.7106 289.729 18.863 288.851 18.9011C286.484 18.9773 285.224 19.1679 284.918 19.4727C284.766 19.6252 284.422 19.6252 284.116 19.5108C283.811 19.3965 283.582 19.549 283.582 19.93C283.582 20.273 283.391 20.5398 283.162 20.5398C282.971 20.5398 282.895 20.3492 283.009 20.1587C283.276 19.7014 282.436 19.6633 281.749 20.1206C281.329 20.3873 281.367 20.5398 281.826 21.0352C282.284 21.4544 282.856 21.5687 283.887 21.4162C285.796 21.1114 287.095 20.616 286.904 20.2349C286.789 20.0825 287.935 19.9681 289.424 19.9681C290.951 19.9681 293.471 19.7776 295.036 19.5871C297.785 19.206 297.824 19.1679 296.945 18.6344C296.411 18.3295 295.533 18.1008 294.922 18.1771Z" fill="#131313"/>
<path d="M12.2634 26.9419C12.378 27.2849 12.7216 28.6949 13.0652 30.0668C13.9052 33.306 14.3634 34.1062 14.4016 32.3151C14.4016 29.6857 13.5998 26.7133 12.7979 26.5227C12.2634 26.3703 12.1107 26.4846 12.2634 26.9419Z" fill="#131313"/>
<path d="M0.0071684 29.3045C0.04535 29.8761 0.312621 30.0667 1.11443 30.0667C2.29806 30.0667 2.60352 29.1521 1.57261 28.771C0.465348 28.3518 -0.0691948 28.5423 0.0071684 29.3045Z" fill="#131313"/>
<path d="M3.32898 32.925C3.32898 33.4585 4.43625 34.2588 5.19988 34.2588C5.84897 34.2588 5.69624 32.8488 5.00897 32.582C4.01625 32.201 3.32898 32.3153 3.32898 32.925Z" fill="#131313"/>
<path d="M82.7467 40.1273C82.7467 40.737 84.7703 41.3086 85.4576 40.8894C85.8012 40.6989 85.7249 40.4702 85.2285 40.0892C84.274 39.4413 82.7467 39.4413 82.7467 40.1273Z" fill="#131313"/>
<path d="M88.0922 40.5082C88.0922 41.4609 89.6958 42.0707 90.7649 41.499C91.834 40.9274 91.3758 40.3939 89.5049 40.089C88.3594 39.8985 88.0922 39.9747 88.0922 40.5082Z" fill="#131313"/>
<path d="M260.94 47.2154C260.787 50.0354 260.558 59.7148 260.444 68.7464C260.329 77.7399 260.1 86.1618 259.909 87.4194C259.413 90.4299 259.451 93.5548 259.909 95.3078C260.558 97.5943 262.697 98.6232 264.109 97.3275C264.72 96.7559 264.758 95.727 264.606 85.7807C264.491 79.0356 264.224 73.548 263.918 71.414C263.193 67.0697 262.238 57.314 261.666 48.7397L261.207 42.0708L260.94 47.2154Z" fill="#131313"/>
<path d="M280.031 42.9092C279.878 43.0235 280.031 43.4808 280.413 43.8619C280.757 44.243 280.871 44.5478 280.68 44.5859C280.489 44.5859 282.131 45.0813 284.346 45.6911C286.56 46.3008 288.546 46.7581 288.736 46.6819C289.195 46.5294 281.52 42.6424 280.795 42.6424C280.489 42.6424 280.146 42.7567 280.031 42.9092Z" fill="#131313"/>
<path d="M151.244 43.7857C150.099 44.243 149.755 44.929 150.634 44.929C152.199 44.929 153.764 44.4336 153.764 43.9381C153.764 43.3284 152.504 43.2903 151.244 43.7857Z" fill="#131313"/>
<path d="M169.304 47.5964C168.808 56.1326 168.808 95.1553 169.266 95.6126C169.61 95.9556 169.801 95.765 170.03 94.7742C170.45 93.2499 170.221 45.6529 169.801 44.2048C169.61 43.557 169.457 44.7002 169.304 47.5964Z" fill="#131313"/>
<path d="M14.6307 44.7765C14.2489 45.8055 14.3635 50.6452 14.8216 51.4836C15.2416 52.2457 15.318 52.1314 16.158 50.226C17.5325 47.0249 17.3416 45.5387 15.318 44.4336C15.0507 44.2811 14.7453 44.4336 14.6307 44.7765Z" fill="#131313"/>
<path d="M189.464 46.8343C189.312 47.0629 189.655 47.2153 190.228 47.2153C190.801 47.2153 191.144 47.0629 190.992 46.8343C190.877 46.6056 190.533 46.4532 190.228 46.4532C189.922 46.4532 189.579 46.6056 189.464 46.8343Z" fill="#131313"/>
<path d="M106.801 50.8356C106.267 51.4834 106.419 51.5596 108.634 51.9407C110.161 52.2075 110.237 51.6359 108.71 50.8356C107.336 50.1496 107.374 50.1496 106.801 50.8356Z" fill="#131313"/>
<path d="M192.213 54.6082C191.908 55.3323 192.824 56.0563 193.626 55.7515C194.428 55.4466 194.39 54.9512 193.512 54.4558C192.557 53.9604 192.442 53.9604 192.213 54.6082Z" fill="#131313"/>
<path d="M99.8521 63.8304C99.6994 66.5361 99.4703 69.0513 99.3939 69.3561C99.1266 70.0421 99.7757 71.1091 100.196 70.6899C100.654 70.2326 100.768 64.5545 100.425 61.5059L100.081 58.8383L99.8521 63.8304Z" fill="#131313"/>
<path d="M253.571 61.163C253.915 61.4678 254.182 62.0013 254.182 62.2681C254.182 62.8397 256.549 63.4494 257.198 63.0303C257.962 62.573 257.618 62.1157 255.862 61.3154C253.648 60.3627 252.693 60.2865 253.571 61.163Z" fill="#131313"/>
<path d="M281.176 63.6019C281.291 64.021 281.52 64.364 281.711 64.364C282.131 64.364 282.131 64.2497 281.826 63.4494C281.482 62.5729 280.947 62.6873 281.176 63.6019Z" fill="#131313"/>
<path d="M205.119 65.1262C205.462 65.5073 205.691 66.117 205.577 66.4219C205.348 66.9935 206.379 67.87 207.906 68.3273C209.357 68.8227 208.899 67.6032 206.951 65.9264C205.042 64.3259 203.935 63.7924 205.119 65.1262Z" fill="#131313"/>
<path d="M224.706 73.0144C223.713 74.1195 222.491 77.0157 222.491 78.3495C222.491 81.0933 224.019 82.5414 225.928 81.5125C226.73 81.0933 226.768 80.8646 226.615 77.4349C226.539 75.4533 226.271 73.7384 226.08 73.586C225.851 73.4336 225.584 73.0906 225.508 72.8238C225.393 72.4428 225.164 72.4809 224.706 73.0144Z" fill="#131313"/>
<path d="M96.3775 75.1487C96.263 75.7965 96.1484 78.1592 96.1102 80.3695C96.1102 82.5798 95.9193 85.0568 95.6902 85.8952C95.4611 86.7336 95.1557 91.116 94.9648 95.6127C94.8121 100.109 94.4302 107.312 94.2011 111.58C93.9339 115.848 93.8193 119.926 93.9339 120.65C94.2011 122.327 95.1939 123.432 96.3393 123.432C98.2484 123.432 98.2484 123.203 98.172 110.818C98.1339 104.416 97.9429 98.3946 97.7139 97.3276C97.4848 96.2606 97.2557 90.6206 97.1793 84.79C97.0648 74.8057 96.8357 72.2525 96.3775 75.1487Z" fill="#131313"/>
<path d="M243.224 75.6058C243.797 76.7491 245.668 77.5112 246.431 76.9015C246.813 76.5585 246.546 76.2918 244.98 75.5677C243.911 75.0723 242.995 74.6531 242.919 74.6531C242.842 74.6531 242.995 75.0723 243.224 75.6058Z" fill="#131313"/>
<path d="M234.022 101.024C232.953 101.558 232.571 102.891 233.22 104.073C233.793 105.216 234.289 105.521 235.511 105.521C237.268 105.521 237.955 103.844 236.962 101.977C236.16 100.529 235.549 100.3 234.022 101.024Z" fill="#131313"/>
<path d="M62.9686 108.607C62.7395 109.103 62.3195 110.741 61.9377 112.266C61.365 114.59 61.365 115.124 61.8232 116.077C62.205 116.877 62.5868 117.144 63.465 117.144C65.1832 117.144 65.4886 115.848 64.6868 111.732C63.9614 108.036 63.5032 107.197 62.9686 108.607Z" fill="#131313"/>
</svg>
